<?xml version="1.0" encoding="UTF-8" standalone="no"?>
<svg width="172px" height="54px" viewBox="0 0 172 54" version="1.1" xmlns="http://www.w3.org/2000/svg" xmlns:xlink="http://www.w3.org/1999/xlink">
  <path fill="#ffffff" d="M60.5007684,0.569438511 C59.9025659,1.49779853 59.4797572,3.12758612 58.9938748,6.37717892 C58.2957008,11.0472254 57.8044944,13.6510701 56.994296,16.9762331 C56.4387589,19.2565012 56.0762881,21.1217247 55.4898426,24.7187778 C54.0205862,33.7293048 53.9305971,34.4551337 53.8729212,37.7619588 L53.8268544,40.4038843 L53.5568129,40.9399004 C52.8358643,42.370928 51.7781772,43.6777306 50.2121288,45.0720083 C49.1280439,46.0371921 48.2807259,46.4805571 47.2054403,46.6451552 C46.2485381,46.7916372 43.838721,46.7135529 43.0527022,46.510652 C42.1891166,46.2877125 41.2359855,45.7599781 40.5503819,45.1251736 C39.4410083,44.0980991 38.8920521,43.0541655 38.4917962,41.2103855 C38.0698009,39.2663383 37.996523,38.3042601 37.996523,34.7089077 C37.996523,32.2378654 37.9682026,31.3473645 37.8871606,31.2663225 C37.8270446,31.2062064 37.6268797,31.157034 37.4423168,31.157034 C36.9947371,31.157034 36.6606606,31.5317794 35.8047652,32.9937893 C35.442812,33.6120305 34.8414299,34.6097495 34.4683852,35.2110576 C33.6392573,36.5472897 30.6172624,42.6352758 30.6172624,42.9693523 C30.6172624,43.1006759 29.9422326,44.3668096 29.8722821,44.3668096 C29.8310217,44.3668096 29.7973035,44.3346442 29.7973035,44.2953063 C29.7973035,44.2559684 29.6545187,43.535981 29.4800121,42.6953179 C29.0986858,40.8587844 29.0065522,40.298367 28.4292018,36.3043116 C28.1828961,34.6006545 27.895404,32.8993636 27.7902564,32.523509 C27.5673169,31.7264725 27.1399977,30.9131685 26.4722144,30.0146077 C26.2100109,29.6618975 25.7255335,28.9239418 25.3955238,28.3747638 C25.0655882,27.8255858 24.6073606,27.1918165 24.3773225,26.966289 L23.9590244,26.5563465 L23.2445828,26.5563465 C22.5355391,26.5563465 22.5261482,26.5594521 21.9958258,26.9712432 C21.1895464,27.5973224 20.656562,28.3136126 20.3852635,29.135568 C19.8204835,30.8466194 19.3222525,33.1363523 18.9952746,35.5227293 C18.4961563,39.1657752 18.3338504,40.6424998 18.2786146,42.0437282 C18.2114,43.7497515 18.1417453,44.245986 17.728919,45.9611043 C17.5601061,46.6626058 17.351068,47.6055327 17.2644063,48.0565138 C17.1022483,48.9006522 16.9228615,49.3774396 16.7673584,49.3774396 C16.7185557,49.3774396 16.6785523,49.3149574 16.6785523,49.2384999 C16.6785523,49.1621163 16.5955138,48.8649376 16.4939895,48.578037 C16.392539,48.2912103 16.2481275,47.6670537 16.1731488,47.1910057 C16.0981702,46.7150317 15.9573079,45.9770761 15.8600723,45.5511618 C15.5995695,44.4103623 15.1550215,41.0730725 15.0409267,39.4018027 C14.8427583,36.4987828 14.4347383,34.7773793 13.5003149,32.9016558 C13.1595835,32.2176789 12.7425425,31.350618 12.5735077,30.9748374 C11.9012139,29.4803663 10.8897414,27.9868565 10.184247,27.4468475 C9.85704719,27.196475 9.72394898,27.1527004 9.28265447,27.1507779 C8.78279675,27.1485596 8.75388486,27.1619434 8.44701954,27.536393 C8.27221722,27.7497938 8.00883065,28.2520177 7.86175713,28.6524215 C7.71475755,29.0528992 7.24248074,30.097942 6.81235169,30.9748374 C6.36077903,31.8954333 5.8204003,33.1850071 5.53357366,34.0267054 C5.26035261,34.8284003 4.83192426,35.9967807 4.58147779,36.6231557 C4.33103132,37.2494567 3.77157518,38.7991636 3.33811867,40.066998 C2.47985705,42.5773042 2.12204469,43.4615939 2.10969614,43.1029681 C2.10267151,42.8989582 2.59143771,39.6634146 2.88048266,38.0005004 C2.98363377,37.4074739 3.01321115,36.3122974 3.01321115,33.0951658 C3.01321115,28.0189479 3.03443292,28.1284582 1.66670092,26.1229639 C1.20980435,25.4530363 1.16839601,25.4175434 0.842231454,25.4175434 C0.0684132472,25.4175434 0.0735892887,25.9213941 0.859090561,27.080014 C1.24559298,27.6500441 1.52169782,28.1851728 1.68969734,28.6895411 L1.9413269,29.4452432 L1.89466858,33.2847568 L1.84793632,37.1241965 L1.52960977,39.0373354 C1.09297369,41.6615885 0.938505826,42.7041911 0.823523761,43.8032866 C0.769471099,44.3200034 0.64369329,45.057959 0.543943576,45.4430565 C0.444193861,45.8282279 0.328620249,46.5122788 0.28706403,46.9632599 C0.245507811,47.414241 0.165427054,47.8985706 0.109156088,48.0396547 C-0.0772553498,48.5069034 -0.0207625538,48.978071 0.246912736,49.188662 C0.840826529,49.6558367 1.37336726,49.2189049 1.37336726,48.2644428 C1.37336726,47.8950953 1.88121087,46.6413101 3.04419346,44.1390638 C3.37021013,43.4375623 3.9712225,41.8826794 4.37976006,40.6837603 C4.78829762,39.4847672 5.35980655,37.9064443 5.64981276,37.1763267 C5.93974503,36.4461351 6.31123692,35.4388035 6.47531744,34.9377626 C6.91919997,33.5820834 7.20388225,32.8955185 8.00764756,31.2421429 C8.40790346,30.4186347 8.82775437,29.4784438 8.94051813,29.1527229 C9.21861944,28.3498449 9.29455937,28.2767888 9.60068525,28.5176226 C9.96078985,28.800826 10.9646461,30.3556349 11.4239828,31.3415969 C11.6451477,31.8163138 12.0984211,32.7581316 12.4313145,33.4345662 C13.3243295,35.2493603 13.6657264,36.6850464 13.8612329,39.4473518 C13.9833135,41.1729701 14.4345165,44.6050554 14.6695827,45.596711 C14.7646,45.9975584 14.9110081,46.7764788 14.9949339,47.3276532 C15.0787858,47.8788277 15.2927042,48.7750223 15.4702424,49.3190982 C15.7764422,50.2573667 15.8100125,50.3154862 16.1213145,50.4455528 C16.4925106,50.6006861 17.3308814,50.5564679 17.5555956,50.3699825 C17.9284924,50.0605292 18.1915092,49.3778833 18.517378,47.8742432 C18.7020148,47.0224886 18.958081,45.8745905 19.0865208,45.323416 C19.2616928,44.5719287 19.3443616,43.8656209 19.416974,42.4992199 C19.5088858,40.771753 20.1564825,35.3428988 20.4698548,33.6731818 C20.7217062,32.3311821 21.4218768,29.6755031 21.6521367,29.1886594 C21.9443612,28.5709358 22.8680628,27.6951496 23.22728,27.6951496 C23.5498953,27.6951496 23.7207047,27.8899166 24.3840514,29.0141528 C24.6790118,29.5141585 25.1479612,30.2315578 25.4261364,30.6084476 C26.1365111,31.5709695 26.4679257,32.1960874 26.6845061,32.9823281 C26.7875093,33.3563341 27.0815824,35.1381494 27.3380183,36.9419999 C27.7176439,39.6124676 28.132097,42.1052492 28.3810646,43.2157319 C28.4499059,43.5225233 27.990865,43.0105388 27.6031055,42.3480055 C27.4077469,42.0142248 27.0513395,41.522279 26.8110972,41.2547516 C26.2777431,40.6608378 26.1234232,40.4197082 25.9750926,39.9483927 C25.8113818,39.4282744 24.8698598,37.1461577 24.7629376,37.0103236 C24.648621,36.8650987 24.0377003,36.8619191 23.8938802,37.0057391 C23.6883175,37.2113759 23.7848876,37.6389908 24.3799845,39.1576414 C25.1555034,41.1368857 25.2937776,41.4088498 25.8005861,41.9526299 C26.0340995,42.2031503 26.3783062,42.6746137 26.565531,43.0003346 C26.782703,43.3781857 27.2595643,43.9409693 27.8832033,44.5555133 C28.7895282,45.4484544 28.8757463,45.5643977 29.0694042,46.149808 C29.1842383,46.4969725 29.4292869,47.0065168 29.6139237,47.2821041 C29.7985605,47.5576913 30.1237638,48.0782532 30.3364991,48.4388754 C30.6722024,49.0077963 30.8279273,49.1658874 31.5130134,49.6335058 C31.9472832,49.9298711 32.4461058,50.2452399 32.6214996,50.3342679 C33.011921,50.5324363 33.0738117,50.620503 33.0755864,50.9803857 C33.0772131,51.3138707 33.3188603,51.5639474 33.6394052,51.5639474 C33.9959605,51.5639474 34.1702452,51.2989341 34.1702452,50.7567068 C34.1702452,50.0342793 34.0037245,49.7438294 33.3852615,49.3875699 C32.420891,48.8321806 31.6150553,48.2642949 31.5117563,48.0674575 C31.456003,47.9612007 31.1527609,47.4623782 30.8379836,46.9588972 C30.0910808,45.7645626 30.0588415,45.6339785 30.4637558,45.4409122 C30.8444906,45.259307 31.1998628,44.6494954 31.9390016,42.9092363 C32.68376,41.1555934 34.7631238,37.0205278 35.4667696,35.8936296 C35.7950046,35.3678917 36.2488695,34.6132248 36.4752104,34.2165922 L36.8867797,33.4954217 L36.9283359,36.6307719 C36.9691527,39.7080025 36.9751421,39.7914107 37.2531695,41.1249069 C37.7325448,43.4239567 38.2758813,44.5462703 39.504156,45.7744711 C40.333136,46.603525 41.1678097,47.1336996 42.2327432,47.5076316 C42.9291426,47.7521626 43.0530719,47.7653985 45.018193,47.8056237 C46.3099851,47.8320954 47.3263378,47.8093948 47.7512169,47.7445464 C48.5422639,47.6239446 49.4899971,47.1892311 50.3208997,46.5660357 C51.0751968,46.0002944 52.8042904,44.2549332 53.3573135,43.5011536 L53.8027488,42.89393 L53.8579846,44.7919105 C53.9455336,47.8029617 54.2739904,49.0917221 55.4139027,50.8966078 C55.8513521,51.5892361 56.1028338,51.6955668 57.159042,51.6344155 L57.8950012,51.5918241 L58.2908205,51.1451317 C58.508584,50.8994916 58.8311992,50.4252183 59.0077762,50.0912897 C59.1843531,49.7572871 59.6112287,49.1218911 59.9563967,48.6791916 C60.3014908,48.2364922 60.8191689,47.546304 61.106735,47.1454566 C61.9948698,45.9074214 63.3203061,44.7400761 64.395296,44.2493135 C64.7622034,44.0818315 64.9951252,44.0522542 65.9648936,44.0503316 C66.9543309,44.0482612 67.1514641,44.073402 67.46809,44.2418452 C67.6685507,44.3484716 67.9760076,44.4650804 68.1514014,44.500943 C68.3267213,44.5368056 68.6136959,44.660439 68.7890897,44.775569 C68.9644836,44.8907729 69.2514581,45.0313394 69.4267781,45.088054 C69.6500873,45.1602968 69.8393086,45.3291836 70.0580333,45.6517249 C70.4994757,46.3025012 71.2516285,46.9416684 72.1078936,47.3935368 C72.7883212,47.7526802 72.8954653,47.781666 73.5452803,47.7824054 L74.2474473,47.7831449 L74.668999,47.3732024 C75.2302297,46.8273518 75.4533911,46.3652792 76.1250934,44.3583061 C76.7798626,42.4017624 77.1711714,41.4722193 77.2651535,41.6499054 C77.3002027,41.7161587 77.3574349,41.9958868 77.3922623,42.271474 C77.6328003,44.1738911 78.8288356,48.21845 79.3760911,48.9805851 C79.7077275,49.442288 80.2035183,49.7419069 80.6361614,49.7419069 C81.1512515,49.7419069 81.8401827,49.0346378 82.5462687,47.7810745 C82.6315994,47.6295643 82.9491126,46.9529078 83.2518371,46.2773605 C83.5545615,45.6018131 84.0348982,44.5778442 84.3192847,44.0018987 C85.0230785,42.5764908 85.3291304,41.8486654 85.6980343,40.7227285 C85.915428,40.0593078 86.1569273,39.5498375 86.4860496,39.06011 C86.74707,38.6718329 86.9880517,38.3540979 87.0215481,38.3540979 C87.0550445,38.3540979 87.1335724,38.5693473 87.1960546,38.8323642 C87.4971524,40.1002725 88.3047627,41.9503376 89.0259332,43.024736 C89.6833644,44.0039691 90.2728416,44.6583686 92.4301418,46.803616 C94.0690244,48.4334036 94.8330821,49.1170108 95.9375754,49.9419979 C96.7142034,50.5220842 97.6160917,51.1333747 97.9418126,51.300413 L98.5339518,51.6040987 L100.859177,51.6067607 L103.184329,51.6094966 L103.656458,51.2630715 C104.556424,50.6028305 104.793191,50.124934 104.41009,49.7419069 C104.117422,49.4492387 103.832518,49.5163054 103.267146,50.0109871 C102.63456,50.5646017 102.428331,50.6046051 100.546101,50.5391652 C98.7936412,50.4781618 98.545413,50.3815177 96.7742455,49.0705743 C95.6751501,48.2571224 95.0051485,47.6476805 93.018214,45.654239 C89.889149,42.5148959 89.3231859,41.677856 88.4607834,38.9142935 C88.1982102,38.0728171 88.0268832,37.6880893 87.7812431,37.3883225 C87.4771137,37.0172004 87.4209167,36.987549 87.0208826,36.987549 C86.7832284,36.987549 86.5250178,37.0387918 86.4470075,37.1014219 C86.2344201,37.2720834 85.1017543,38.8937372 84.9626667,39.2265567 C84.8960436,39.3860527 84.7523715,39.7982135 84.6434528,40.1424203 C84.3194326,41.1660195 84.1015212,41.6824405 83.2261047,43.5013755 C82.7678772,44.4533974 82.3382657,45.375768 82.2714209,45.5511618 C82.0846397,46.0408154 81.374265,47.4476635 81.1028925,47.8652961 C80.8649425,48.2316119 80.6467354,48.4578049 80.5259118,48.4635725 C80.1287615,48.4824281 78.9566099,44.5784357 78.4891394,41.6793349 C78.3521222,40.8294289 78.3202526,40.7484608 78.0144964,40.4722081 C77.64892,40.1419027 77.2780197,40.0900683 76.7803802,40.2995501 C76.315128,40.4954263 75.899418,41.3249979 75.1628673,43.5276993 C74.4652848,45.6135701 74.2611269,46.1061074 73.9557404,46.4394445 C73.6971602,46.7216127 73.4452349,46.6975811 72.6930821,46.3187688 C71.9512074,45.9452065 71.3198783,45.3899651 70.8328128,44.68277 C70.556634,44.2817746 70.4131837,44.1637609 70.058403,44.045969 C69.8189741,43.9664058 69.5739255,43.8422548 69.5140313,43.7699381 C69.4540632,43.6976953 69.1447577,43.558238 68.826727,43.4599671 C68.5086962,43.3617702 68.1139121,43.2078939 67.9493879,43.1180526 C67.6923605,42.9777079 67.4133718,42.9547855 65.9648936,42.9547855 L64.2795005,42.9547855 L63.6418122,43.2969958 C62.3682842,43.980529 61.1188617,45.0714907 60.3347653,46.1846354 C60.1036181,46.5126485 59.6850243,47.0680378 59.4043349,47.4187516 C58.7606572,48.2234042 58.4265067,48.7103958 57.9665045,49.5146787 C57.5405902,50.2592892 57.3550661,50.4480668 56.9744792,50.5241546 C56.6071281,50.5976544 56.4324737,50.4049578 55.9029647,49.3419468 C55.1945125,47.9197184 54.9046541,45.7973196 54.9622561,42.4536707 L54.9928687,40.6771793 L55.7954509,38.8095896 C57.3648267,35.1575226 58.9279912,29.8934884 59.758598,25.4630926 C60.3503674,22.3067425 60.6471025,19.8234256 61.0430697,14.7130459 C61.3899384,10.2365094 61.5603041,8.39487385 61.7342191,7.24268701 C62.0129859,5.39520991 62.0419717,5.01861591 62.0447076,3.2017514 C62.046852,1.79512514 62.0125422,1.21215498 61.9027362,0.787571689 C61.7198741,0.0806723042 61.6498496,0 61.2186854,0 C60.8879363,0 60.8463801,0.0329787788 60.5007684,0.569438511 M60.9167742,3.8491263 C60.8819469,4.5129906 60.7543205,5.75701521 60.6330532,6.61357614 C60.3698145,8.47295814 60.2244417,9.9934573 59.8587174,14.7130459 C59.249941,22.5695375 58.6716293,26.0212917 56.9880108,31.8481095 C56.454361,33.695143 55.6794336,35.9992948 55.2136638,37.1241965 L55.025108,37.5796882 L55.0719882,36.3498607 C55.1344704,34.7107563 55.3685753,32.9219163 56.2225482,27.5585021 C57.08325,22.1531619 57.557893,19.6459614 58.3008768,16.5806356 C59.0014171,13.6907038 59.3730568,11.696301 60.1314209,6.75650882 C60.4792509,4.49095545 60.841204,2.64199948 60.9368869,2.64199948 C60.9605488,2.64199948 60.9515277,3.18518806 60.9167742,3.8491263 M2.10222785,43.4102771 C2.10222785,43.435344 2.08174551,43.4558263 2.05667868,43.4558263 C2.03161185,43.4558263 2.01112952,43.435344 2.01112952,43.4102771 C2.01112952,43.3852103 2.03161185,43.364728 2.05667868,43.364728 C2.08174551,43.364728 2.10222785,43.3852103 2.10222785,43.4102771 M119.859169,16.9370431 C119.669874,17.1461551 119.393103,18.4566549 118.895464,21.5001673 C118.694707,22.7277765 118.506965,23.8756746 118.478275,24.0510685 C118.339779,24.8974991 117.223011,28.9592868 116.921765,29.7123269 C116.486386,30.8004048 114.793895,34.2236168 114.058379,35.503504 C112.861604,37.5861213 111.969772,38.7010406 110.339911,40.1521808 C108.855274,41.4740679 107.640383,41.9260102 106.368778,41.629571 C105.603685,41.4512194 104.338291,40.8927984 103.772328,40.4838172 C103.546874,40.3209198 102.890922,39.7115518 102.314754,39.1297647 C101.02385,37.8263635 100.585365,37.555065 99.6409592,37.47528 C98.821296,37.405995 98.6705993,37.4858539 98.6705993,37.9897046 C98.6705993,38.3949147 98.7750813,38.4992489 99.2628123,38.5813262 C100.093937,38.7213751 100.243081,38.8215684 101.660946,40.1930715 C103.010932,41.4989868 103.101143,41.5676803 104.085034,42.0388479 C105.737449,42.8301908 106.62965,43.015567 107.873157,42.825902 C109.330879,42.6035541 110.903212,41.5227227 112.70514,39.5043622 C113.933415,38.1285704 114.808831,36.7319265 116.481136,33.4801154 C116.867639,32.7285542 117.161564,32.2160521 117.134279,32.3413123 C117.10692,32.4665725 117.011163,33.2660491 116.921322,34.1178037 C116.786892,35.3933282 116.757759,36.4942723 116.75628,40.3583352 C116.754209,45.6589714 116.750217,45.6131264 117.452753,48.375358 C118.168674,51.1902372 118.611521,52.1743506 119.466307,52.8500459 C119.921133,53.2095589 119.948788,53.2183582 120.433931,53.1577246 C121.155693,53.0675136 121.283542,52.998894 121.734227,52.4594766 C122.23793,51.8565417 122.764481,50.7030978 123.598711,48.375358 C124.121861,46.9155664 124.948623,45.0055331 125.044084,45.0359978 C125.180509,45.0795505 126.41714,46.8966369 126.676089,47.4340579 C126.800832,47.6930078 126.97068,48.1439889 127.053571,48.4362134 C127.224898,49.0400357 127.498045,49.5464743 128.077392,50.334046 C128.559059,50.9888892 128.59433,51.0141039 129.030449,51.0158786 C129.497254,51.0178011 129.706958,50.7851011 129.781788,50.1820922 C129.814915,49.9149346 129.826007,48.3434884 129.806412,46.6899649 L129.770771,43.6835721 L129.387374,41.5426874 C129.176561,40.365138 128.986083,39.3402817 128.964048,39.2650812 C128.896168,39.0329728 128.642172,36.9583414 128.677295,36.9231443 C128.695559,36.9048803 129.037474,37.3526078 129.437138,37.9181274 C129.836876,38.4835729 130.667335,39.5406685 131.282766,40.2672368 C131.898198,40.9938052 132.912998,42.2031503 133.537894,42.9547855 C135.636187,45.4784015 135.792577,45.6522425 136.432558,46.1716213 C136.783272,46.4563036 137.377703,46.8896862 137.753484,47.1345869 C138.129264,47.3795615 138.825442,47.9121023 139.300529,48.3179039 C139.775541,48.7237795 140.489318,49.2512181 140.886542,49.4899815 C141.483561,49.8487552 141.685353,49.9241035 142.04982,49.9241035 C142.509379,49.9241035 142.855212,49.7089281 142.855212,49.4229888 C142.855212,49.2288872 142.914885,49.2480386 143.389602,49.5941679 C143.922882,49.9828886 144.889101,50.4706935 145.125868,50.4706935 C145.346441,50.4706935 145.760081,50.2999581 145.975478,50.1201276 C146.252618,49.8886846 146.193907,48.818649 145.855468,47.9324367 C145.513183,47.0360203 144.96615,46.2889696 143.639604,44.9059313 C143.082958,44.3255491 142.314686,43.4412594 141.932472,42.9408102 L141.237403,42.0308621 L141.841374,42.1570096 C142.692463,42.3347696 147.302097,42.4158117 148.877684,42.280717 C152.825747,41.9422039 157.343396,40.6388027 161.116361,38.7496954 C164.369503,37.1207951 169.475002,33.6540304 170.100268,32.6494347 C170.322616,32.2921399 170.327053,31.8682221 170.110398,31.6721981 C169.803607,31.3945404 169.551534,31.487931 168.964349,32.0966335 C168.02327,33.0720955 165.982135,34.5324047 163.171027,36.2412378 C158.917652,38.8268924 153.931202,40.5662641 149.389595,41.0485233 C147.819406,41.2152658 144.190113,41.2392235 142.855212,41.0916324 C142.329105,41.0335128 141.611705,40.9018935 141.260917,40.7992599 C140.510761,40.5796479 138.513918,39.585774 137.69115,39.0225467 C137.047176,38.5816219 136.67561,38.5209883 136.386935,38.8095896 C136.133605,39.0629938 136.157193,39.4119329 136.445794,39.6793864 C136.578375,39.8022804 136.720346,39.9028435 136.761237,39.9028435 C136.802127,39.9028435 137.093391,40.1337689 137.408464,40.416085 C137.723463,40.6983271 138.309243,41.1583293 138.71009,41.4382792 C139.637637,42.0860239 140.273994,42.7221594 141.138763,43.8657688 C141.517649,44.3668096 142.274534,45.2482895 142.820681,45.8244568 C144.177099,47.2555584 144.463408,47.6318566 144.725168,48.3272947 C144.849171,48.6566389 144.950548,48.9672014 144.950548,49.0174829 C144.950548,49.162486 144.419856,48.8570996 143.619196,48.2513548 C143.062771,47.8303208 142.81824,47.5745504 142.630202,47.2166641 C142.245179,46.4838845 142.017433,46.2799485 141.584124,46.2799485 C141.067629,46.2799485 140.850975,46.5164196 140.850975,47.0802384 C140.850975,47.4878147 140.883436,47.5481526 141.352016,48.0109647 C141.627603,48.2830766 141.853131,48.538773 141.853131,48.5790722 C141.853131,48.7421914 141.065411,48.2335344 140.232216,47.5324026 C139.745742,47.1230517 138.937836,46.5052542 138.436795,46.1594946 C137.050799,45.2030361 136.681821,44.8519526 135.229794,43.1077745 C134.492282,42.2219319 133.332627,40.8411859 132.652717,40.039491 C131.301104,38.4457878 130.863137,37.8836697 130.062108,36.714254 C129.770327,36.2883398 129.281709,35.6836302 128.976248,35.3704797 C128.447922,34.8289918 128.399489,34.8011152 127.985406,34.8011152 C127.397556,34.8011152 127.185264,35.0129631 127.186595,35.5982255 C127.187187,35.8362495 127.247746,36.2292589 127.32132,36.4716456 C127.39482,36.7140322 127.518453,37.4109492 127.595946,38.0203911 C127.673513,38.6298331 127.797516,39.4359646 127.871459,39.8117452 C127.945403,40.1875258 128.151039,41.3559062 128.328356,42.4081215 C128.620137,44.1395814 128.656073,44.5483408 128.706651,46.7127395 C128.737411,48.0280456 128.739777,49.1041446 128.711901,49.1041446 C128.608158,49.1041446 128.275191,48.4415374 128.171448,48.0284893 C127.940005,47.1073017 127.402954,46.1362764 126.33033,44.699777 C125.580322,43.6952552 124.86307,43.4623333 124.253332,44.0251909 C123.914597,44.3379716 123.348117,45.6180807 122.350989,48.3239673 C121.452059,50.7634356 120.942588,51.7562744 120.502847,51.9253091 C120.026281,52.1083931 119.368628,50.9599034 118.860563,49.0571905 C118.686869,48.4065621 118.462599,47.5667863 118.36211,47.1910057 C117.92222,45.5446548 117.802875,43.851128 117.8519,39.9483927 C117.907727,35.5099371 118.07166,33.7004669 118.810207,29.3730004 C119.014735,28.1745989 119.261632,26.6816067 119.358794,26.0553057 C119.455955,25.4289307 119.616634,24.564236 119.715793,24.1336633 C119.815025,23.7030906 119.959214,22.8012023 120.036337,22.1294261 C120.113386,21.4576498 120.318653,20.1658578 120.492495,19.2587195 C120.666262,18.3515813 120.808455,17.4868126 120.808455,17.3369292 C120.808455,16.82598 120.193911,16.567104 119.859169,16.9370431"></path>
</svg>
