<?xml version="1.0" encoding="UTF-8" standalone="no"?>
<!DOCTYPE svg PUBLIC "-//W3C//DTD SVG 1.0//EN" "http://www.w3.org/TR/2001/REC-SVG-20010904/DTD/svg10.dtd">
<svg xmlns="http://www.w3.org/2000/svg" width="100%" height="100%">
<defs>
<font horiz-adv-x="480"><font-face font-family="Zizou Sans Web" units-per-em="1000" panose-1="0 0 0 0 0 0 0 0 0 0" ascent="854" descent="-146" alphabetic="0"/>
<missing-glyph horiz-adv-x="496"/>
<glyph unicode=" " glyph-name="space" horiz-adv-x="184"/>
<glyph unicode="!" glyph-name="exclam" horiz-adv-x="249" d="M164 195H84L51 655H197L164 195ZM124 -9Q93 -9 70 13T47 67Q47 99 70 122T124 145Q140 145 154 139T179 122T196 97T202 67Q202 52 196 38T180 14T155 -3T124 -9Z"/>
<glyph unicode="&quot;" glyph-name="quotedbl" horiz-adv-x="358" d="M54 423L36 639H157L139 423H54ZM218 423L201 639H322L304 423H218Z"/>
<glyph unicode="#" glyph-name="numbersign" horiz-adv-x="498" d="M264 181H186L157 0H70L99 181H27V280H115L130 376H57V475H146L173 639H260L233 475H311L338 639H425L398 475H471V376H382L367 280H440V181H351L322 0H235L264 181ZM202 280H280L295 376H217L202 280Z"/>
<glyph unicode="$" glyph-name="dollar" horiz-adv-x="502" d="M124 -107L145 -4Q106 5 78 20T31 53V144Q53 127 87 111T163 86L202 273Q178 279 155 286T114 304Q72 327 53 364T34 458Q34 509 52 546T101 607T170 642T252 653H265Q272 653 279 652L293 718H364L348 641Q375 633 396 622T432 597V505Q417 516 389 526T328 544L292 370Q321 364 349 356T400 332Q437 308 453 274T470 188Q470 135 452 97T404 34T331 -3T241 -15H227Q220 -15 214 -14L195 -107H124ZM315 241Q306 246 295 249T269 257L233 79Q288 80 319 102T351 176Q351 199 344 214T315 241ZM188 398Q196 393 205 390T224 384L259 552H258Q235 552 215 549T179 535T155 509T146 465Q146 442 155 426T188 398Z"/>
<glyph unicode="%" glyph-name="percent" horiz-adv-x="695" d="M669 152Q669 111 657 80T625 29T576 -2T516 -13Q485 -13 457 -3T408 28T375 80T363 152V160Q363 197 374 226T406 276T455 308T516 319Q583 319 626 277T669 160V152ZM462 138Q462 90 476 72T516 53Q542 53 556 71T571 138V175Q571 214 558 231T516 248Q489 248 476 231T462 175V138ZM178 387Q204 387 218 405T233 471V509Q233 547 220 564T178 582Q151 582 138 565T124 509V471Q124 423 138 405T178 387ZM178 321Q147 321 120 331T71 362T38 413T26 485V493Q26 530 37 560T69 610T117 642T178 653Q212 653 240 642T288 611T320 560T332 493V485Q332 444 320 414T287 363T238 332T178 321ZM170 0H87L527 639H610L170 0Z"/>
<glyph unicode="&amp;" glyph-name="ampersand" horiz-adv-x="618" d="M236 -11Q185 -11 146 2T79 38T38 93T24 164Q24 235 65 277T175 349Q149 378 133 411T117 488Q117 522 129 552T165 604T222 639T298 652Q377 652 422 610T467 501Q467 442 430 405T333 338L432 214Q461 274 484 362H593Q573 296 549 240T493 138L604 0H451L412 49Q337 -11 236 -11ZM254 75Q313 75 359 115L222 287Q183 264 168 237T152 172Q152 130 178 103T254 75ZM238 491Q238 459 252 433T294 379Q329 403 344 432T360 493Q360 523 345 543T301 564Q275 564 257 546T238 491Z"/>
<glyph unicode="'" glyph-name="quotesingle" horiz-adv-x="198" d="M54 423L36 639H162L144 423H54Z"/>
<glyph unicode="(" glyph-name="parenleft" horiz-adv-x="316" d="M162 266Q162 204 173 151T202 53T244 -28T296 -93V-98H196Q177 -81 151 -49T100 29T59 137T42 275V308Q42 380 59 439T100 545T150 624T196 673H296V668Q269 641 245 603T202 520T173 423T162 317V266Z"/>
<glyph unicode=")" glyph-name="parenright" horiz-adv-x="316" d="M155 309Q155 370 144 423T115 522T72 603T21 668V673H121Q140 656 166 624T217 546T258 438T275 300V267Q275 195 258 136T217 30T167 -49T121 -98H21V-93Q48 -66 72 -28T114 55T144 152T155 258V309Z"/>
<glyph unicode="*" glyph-name="asterisk" horiz-adv-x="350" d="M29 459L126 494L29 527L73 601L148 538L128 639H222L203 539L278 601L321 527L223 494L321 459L278 384L202 449L222 347H128L148 450L73 384L29 459Z"/>
<glyph unicode="+" glyph-name="plus" horiz-adv-x="469" d="M286 365H427V265H286V114H183V265H42V365H183V515H286V365Z"/>
<glyph unicode="," glyph-name="comma" horiz-adv-x="228" d="M21 -90Q59 1 59 88Q59 114 54 142H181Q182 134 182 126T183 108Q183 47 164 1T105 -90H21Z"/>
<glyph unicode="-" glyph-name="hyphen" horiz-adv-x="285" d="M38 320H247V218H38V320Z"/>
<glyph unicode="." glyph-name="period" horiz-adv-x="228" d="M113 -9Q82 -9 59 14T36 69Q36 102 59 125T113 149Q146 149 169 126T192 69Q192 37 169 14T113 -9Z"/>
<glyph unicode="/" glyph-name="slash" horiz-adv-x="348" d="M104 -98H-1L227 673H332L104 -98Z"/>
<glyph unicode="0" glyph-name="zero" horiz-adv-x="614" d="M307 -15Q253 -15 204 3T117 62T57 163T34 311V338Q34 415 54 474T111 572T197 632T307 653Q367 653 417 633T503 573T559 474T579 338V311Q579 225 557 164T498 62T411 4T307 -15ZM307 83Q338 83 363 94T407 129T436 192T446 287V372Q446 460 410 505T307 550Q240 550 204 505T168 372V287Q168 231 178 192T206 129T250 94T307 83Z"/>
<glyph unicode="1" glyph-name="one" horiz-adv-x="373" d="M168 528L29 381H26V509L149 639H297V0H168V528Z"/>
<glyph unicode="2" glyph-name="two" horiz-adv-x="490" d="M25 133Q100 179 154 219T245 296T298 370T315 444Q315 501 284 523T203 545Q151 545 110 528T38 489V577Q51 591 68 604T109 629T162 646T230 653Q276 653 316 642T386 607T432 544T449 449Q449 345 363 261T110 100V99H452V0H25V133Z"/>
<glyph unicode="3" glyph-name="three" horiz-adv-x="503" d="M235 653Q280 653 319 643T387 611T432 558T449 484Q449 421 411 381T295 331V328Q380 320 425 282T470 172Q470 84 408 37T232 -10Q190 -10 158 -4T100 13T57 37T27 64V152Q59 125 103 108T212 91Q273 91 304 116T336 190Q336 237 307 260T210 284H129V373H208Q267 373 293 395T319 461Q319 545 207 545Q153 545 117 531T50 497V583Q75 610 119 631T235 653Z"/>
<glyph unicode="4" glyph-name="four" horiz-adv-x="552" d="M438 639V221H534V124H438V0H309V124H26V247L269 639H438ZM112 221H309V536L112 221Z"/>
<glyph unicode="5" glyph-name="five" horiz-adv-x="503" d="M246 399Q303 399 344 385T414 343T455 279T469 195Q469 150 453 112T406 47T331 5T229 -10Q186 -10 155 -4T101 11T63 32T36 56V142Q65 122 103 106T207 90Q273 90 304 120T336 204Q336 261 302 289T194 317Q146 317 115 309T61 291H53V639H432V531H156V386Q177 392 199 395T246 399Z"/>
<glyph unicode="6" glyph-name="six" horiz-adv-x="566" d="M478 631Q425 605 377 574T288 505T218 424T176 332Q196 367 233 391T327 415Q377 415 416 400T481 358T522 294T536 211V206Q536 155 520 115T472 45T395 1T293 -15Q235 -15 187 2T105 53T53 133T34 239V258Q34 335 62 397T130 507T215 588T295 639H478V631ZM288 331Q234 331 202 303T168 224V198Q168 142 200 108T290 74Q348 74 376 108T405 197V212Q405 237 399 258T378 296T342 321T288 331Z"/>
<glyph unicode="7" glyph-name="seven" horiz-adv-x="488" d="M22 639H458V501L230 0H97L340 533H22V639Z"/>
<glyph unicode="8" glyph-name="eight" horiz-adv-x="545" d="M273 -14Q222 -14 178 -2T100 35T49 94T30 174V182Q30 241 67 281T171 338Q116 355 84 389T51 479V484Q51 521 67 552T113 605T183 640T273 652Q321 652 361 640T431 606T477 553T493 485V479Q493 424 460 390T373 338Q439 321 476 282T514 183V175Q514 130 496 95T445 36T368 -1T273 -14ZM273 75Q321 75 351 99T382 180V199Q382 249 353 276T273 303Q220 303 192 276T163 199V180Q163 124 193 100T273 75ZM273 371Q318 371 344 393T370 462V477Q370 514 345 538T273 562Q225 562 200 538T175 477V462Q175 415 201 393T273 371Z"/>
<glyph unicode="9" glyph-name="nine" horiz-adv-x="566" d="M106 8Q152 30 197 61T281 129T347 210T389 301Q369 267 332 244T234 221Q186 221 148 236T84 278T44 342T30 426V431Q30 482 47 523T96 594T173 638T274 654Q332 654 379 638T461 590T513 510T532 399V382Q532 309 508 248T447 138T370 55T294 0H106V8ZM278 304Q332 304 364 333T399 410V440Q399 496 367 530T276 565Q218 565 190 532T162 441V428Q162 402 168 380T188 340T224 314T278 304Z"/>
<glyph unicode=":" glyph-name="colon" horiz-adv-x="228" d="M115 -9Q83 -9 60 14T37 69Q37 102 60 125T115 149Q147 149 170 126T193 69Q193 53 187 39T171 15T146 -2T115 -9ZM115 297Q83 297 60 320T37 375Q37 408 60 431T115 455Q147 455 170 432T193 375Q193 359 187 345T171 321T146 304T115 297Z"/>
<glyph unicode=";" glyph-name="semicolon" horiz-adv-x="228" d="M23 -90Q60 2 60 88Q60 114 55 142H182Q185 125 185 108Q185 47 166 1T107 -90H23ZM121 297Q89 297 66 320T43 375Q43 408 66 431T121 455Q153 455 176 432T199 375Q199 359 193 345T177 321T152 304T121 297Z"/>
<glyph unicode="&lt;" glyph-name="less" horiz-adv-x="472" d="M426 531V429L142 315L426 202V99L46 252V378L426 531Z"/>
<glyph unicode="=" glyph-name="equal" horiz-adv-x="512" d="M460 265V170H52V265H460ZM460 448V354H52V448H460Z"/>
<glyph unicode="&gt;" glyph-name="greater" horiz-adv-x="472" d="M46 99V201L329 314L46 428V531L426 378V252L46 99Z"/>
<glyph unicode="?" glyph-name="question" horiz-adv-x="402" d="M166 -9Q135 -9 112 13T88 67Q88 99 111 122T165 145Q181 145 195 139T220 122T237 97T243 67Q243 36 221 14T166 -9ZM111 195V237Q111 268 119 291T141 334T171 369T203 400Q222 419 235 438T249 484Q249 559 160 559Q85 559 25 522V605Q45 629 87 646T190 664Q228 664 262 654T321 623T360 570T375 492Q375 466 370 445T354 407T331 375T301 345Q284 329 268 316T238 288T216 256T207 214V195H111Z"/>
<glyph unicode="@" glyph-name="at" horiz-adv-x="860" d="M399 116Q416 116 433 123T464 145T488 181T503 231L505 244Q510 278 505 301T489 340T462 361T427 368Q409 368 392 359T361 331T339 279T330 201Q330 163 346 140T399 116ZM505 128Q488 82 455 57T372 32Q334 32 305 45T257 81T227 137T217 209Q217 260 230 305T269 384T331 438T412 458Q464 458 492 428T527 354Q530 374 535 390T547 420Q554 435 562 447H652L610 187Q602 145 609 125T648 104Q693 104 722 156T751 313Q751 385 728 435T665 516T570 562T452 576Q377 576 315 551T209 478T139 365T114 219Q114 70 197 -9T435 -88Q514 -88 583 -66T695 -12V-81Q678 -95 652 -109T593 -134T518 -152T432 -159Q344 -159 271 -134T144 -60T61 58T31 217Q31 319 66 399T159 536T295 622T456 652Q536 652 604 629T723 562T802 455T831 313Q831 182 779 109T635 35Q575 35 543 61T505 128Z"/>
<glyph unicode="A" glyph-name="A" horiz-adv-x="626" d="M436 157H176L127 0H6L215 639H413L620 0H486L436 157ZM207 256H405L306 571L207 256Z"/>
<glyph unicode="B" glyph-name="B" horiz-adv-x="575" d="M66 639H299Q402 639 459 598T517 471Q517 402 481 366T366 320V317Q451 311 496 277T541 177Q541 136 530 104T490 48T415 13T295 0H66V639ZM287 358Q344 358 369 381T394 450Q394 539 294 539H195V358H287ZM289 92Q327 92 351 97T390 114T409 142T414 182Q414 230 385 250T287 271H195V92H289Z"/>
<glyph unicode="C" glyph-name="C" horiz-adv-x="558" d="M336 -15Q267 -15 211 7T114 73T51 179T29 324V326Q29 401 49 461T107 564T201 630T326 653Q406 653 452 632T521 587V492Q492 513 448 529T347 545Q255 545 210 496T164 354V307Q164 193 214 140T357 86Q379 86 403 90T449 102T491 120T524 143V55Q501 29 455 7T336 -15Z"/>
<glyph unicode="D" glyph-name="D" horiz-adv-x="631" d="M66 639H315Q455 639 527 560T600 328V326Q600 159 521 80T296 0H66V639ZM285 95Q336 95 371 109T429 151T461 217T471 308V355Q471 397 463 430T436 486T385 522T305 534H195V95H285Z"/>
<glyph unicode="E" glyph-name="E" horiz-adv-x="537" d="M66 639H486V532H195V363H466V266H195V95H486V0H66V639Z"/>
<glyph unicode="F" glyph-name="F" horiz-adv-x="529" d="M66 639H487V532H195V340H465V239H195V0H66V639Z"/>
<glyph unicode="G" glyph-name="G" horiz-adv-x="608" d="M334 -15Q266 -15 210 7T115 73T53 179T31 323V325Q31 400 53 460T115 563T213 629T341 653Q414 653 460 634T533 591V497Q507 514 462 529T358 544Q267 544 216 493T165 348V308Q165 192 211 139T345 85Q368 85 390 88T433 97V319H559V69Q527 35 470 10T334 -15Z"/>
<glyph unicode="H" glyph-name="H" horiz-adv-x="660" d="M66 639H195V377H464V639H594V0H464V273H195V0H66V639Z"/>
<glyph unicode="I" glyph-name="I" horiz-adv-x="269" d="M70 639H199V0H70V639Z"/>
<glyph unicode="J" glyph-name="J" horiz-adv-x="380" d="M139 -10Q93 -10 64 0T20 23V106Q35 101 56 97T108 92Q192 92 192 181V639H321V178Q321 91 278 41T139 -10Z"/>
<glyph unicode="K" glyph-name="K" horiz-adv-x="596" d="M195 345L441 639H580L322 341L585 0H434L195 319V0H66V639H195V345Z"/>
<glyph unicode="L" glyph-name="L" horiz-adv-x="504" d="M66 639H195V101H475V0H66V639Z"/>
<glyph unicode="M" glyph-name="M" horiz-adv-x="814" d="M552 639H748V0H619V528L461 0H340L183 522V0H66V639H259L405 146L552 639Z"/>
<glyph unicode="N" glyph-name="N" horiz-adv-x="667" d="M66 639H253L488 146V639H601V0H432L180 520V0H66V639Z"/>
<glyph unicode="O" glyph-name="O" horiz-adv-x="660" d="M330 -15Q266 -15 211 6T116 69T54 174T31 321V323Q31 398 50 459T108 563T202 629T330 653Q402 653 457 630T551 563T608 459T628 323V321Q628 237 606 174T544 69T450 6T330 -15ZM330 83Q414 83 454 135T495 303V352Q495 397 486 433T457 496T406 536T330 550Q286 550 255 536T203 496T174 434T165 352V303Q165 187 205 135T330 83Z"/>
<glyph unicode="P" glyph-name="P" horiz-adv-x="562" d="M66 639H306Q424 639 480 584T536 426Q536 323 477 268T297 213H195V0H66V639ZM283 308Q354 308 381 338T409 424Q409 478 384 507T295 537H195V308H283Z"/>
<glyph unicode="Q" glyph-name="Q" horiz-adv-x="660" d="M330 -15Q266 -15 211 6T116 69T54 174T31 321V323Q31 398 50 459T108 563T202 629T330 653Q402 653 457 630T551 563T608 459T628 323V321Q628 227 601 161T526 52L624 -81H494L434 0Q386 -15 330 -15ZM330 81Q352 81 372 84L285 204H414L459 142Q495 196 495 303V352Q495 397 486 433T457 496T406 536T330 550Q286 550 255 536T203 496T174 434T165 352V303Q165 187 205 134T330 81Z"/>
<glyph unicode="R" glyph-name="R" horiz-adv-x="577" d="M66 639H304Q416 639 474 591T533 451Q533 370 487 325T354 271L565 0H416L195 286V0H66V639ZM288 337Q353 337 378 362T403 440Q403 491 378 514T293 538H195V337H288Z"/>
<glyph unicode="S" glyph-name="S" horiz-adv-x="511" d="M245 -14Q166 -14 114 6T33 53V149Q64 125 115 105T231 84Q291 84 323 105T356 176Q356 199 349 213T320 238Q304 247 278 253T223 266T164 281T112 301Q70 324 52 362T33 458Q33 509 52 546T102 606T175 641T261 652Q326 652 371 637T442 597V500Q430 508 411 516T369 531T320 542T268 546Q244 546 223 543T186 532T161 507T151 465Q151 444 159 429T191 402Q213 391 241 385T300 373T359 359T410 336Q448 311 464 276T481 187Q481 135 463 97T413 35T338 -2T245 -14Z"/>
<glyph unicode="T" glyph-name="T" horiz-adv-x="566" d="M218 532H23V639H543V532H347V0H218V532Z"/>
<glyph unicode="U" glyph-name="U" horiz-adv-x="655" d="M59 639H188V238Q188 155 220 120T328 85Q403 85 435 119T467 237V639H596V262Q596 185 577 132T523 47T438 0T328 -15Q268 -15 219 -1T134 47T79 133T59 263V639Z"/>
<glyph unicode="V" glyph-name="V" horiz-adv-x="618" d="M490 639H613L399 0H219L6 639H142L315 96L490 639Z"/>
<glyph unicode="W" glyph-name="W" horiz-adv-x="899" d="M758 639H879L735 0H573L451 508L329 0H164L20 639H151L258 124L385 639H522L650 124L758 639Z"/>
<glyph unicode="X" glyph-name="X" horiz-adv-x="605" d="M213 332L27 639H170L308 405L443 639H573L391 336L591 0H448L297 258L145 0H13L213 332Z"/>
<glyph unicode="Y" glyph-name="Y" horiz-adv-x="563" d="M217 235L3 639H142L288 352L432 639H560L346 236V0H217V235Z"/>
<glyph unicode="Z" glyph-name="Z" horiz-adv-x="548" d="M513 639V512L155 95H511V0H32V122L381 534H55V639H513Z"/>
<glyph unicode="[" glyph-name="bracketleft" horiz-adv-x="368" d="M70 673H336V582H183V-11H336V-98H70V673Z"/>
<glyph unicode="\" glyph-name="backslash" horiz-adv-x="348" d="M120 673L348 -98H244L16 673H120Z"/>
<glyph unicode="]" glyph-name="bracketright" horiz-adv-x="368" d="M298 -98H32V-11H185V582H32V673H298V-98Z"/>
<glyph unicode="^" glyph-name="asciicircum" horiz-adv-x="426" d="M298 423L213 557L128 423H35L140 639H286L391 423H298Z"/>
<glyph unicode="_" glyph-name="underscore" horiz-adv-x="367" d="M-8 -59H375V-139H-8V-59Z"/>
<glyph unicode="`" glyph-name="grave" horiz-adv-x="400" d="M44 681H197L247 539H167L44 681Z"/>
<glyph unicode="a" glyph-name="a" d="M165 -13Q102 -13 63 22T24 118V119Q24 158 40 183T82 223T143 248T216 267Q269 280 290 292T311 329V332Q311 358 290 375T212 393Q185 393 161 388T116 376T79 360T54 345V426Q63 437 78 449T116 472T170 490T240 497Q345 497 391 445T437 302V133Q437 92 437 67T440 26Q442 8 444 0H335Q329 11 325 25Q321 37 318 53T313 88Q299 38 261 13T165 -13ZM220 63Q238 63 254 70T283 93T303 129T311 180V245Q298 234 280 225T240 208Q193 191 173 175T153 130V125Q153 63 220 63Z"/>
<glyph unicode="b" glyph-name="b" horiz-adv-x="569" d="M337 -11Q268 -11 227 23T168 119Q166 87 163 65T155 28Q150 11 144 0H48V673H175V372Q182 396 196 419T231 459T280 486T344 497Q391 497 427 479T489 429T527 351T540 251V250Q540 186 525 138T482 56T418 6T337 -11ZM299 76Q351 76 381 116T412 237V270Q412 333 383 368T299 404Q273 404 251 395T212 367T185 323T175 262V243Q175 199 185 168T211 116T250 86T299 76Z"/>
<glyph unicode="c" glyph-name="c" horiz-adv-x="458" d="M267 -12Q213 -12 169 6T94 57T45 137T28 244V245Q28 309 48 356T102 434T177 481T265 497Q334 497 371 483T425 448V363Q401 379 369 388T286 397Q259 397 236 390T194 366T166 324T156 262V234Q156 155 190 118T293 81Q337 81 373 94T432 120V48Q415 25 375 7T267 -12Z"/>
<glyph unicode="d" glyph-name="d" horiz-adv-x="569" d="M228 -12Q181 -12 144 7T82 60T43 143T29 248V249Q29 310 45 356T88 433T153 480T233 496Q268 496 295 487T341 462T374 426T394 382V673H521V0H421Q415 14 410 32Q405 47 402 67T397 111Q388 85 374 63T340 24T292 -2T228 -12ZM270 77Q296 77 318 87T358 118T384 166T394 231V249Q394 331 358 368T270 405Q219 405 189 371T158 266V232Q158 160 187 119T270 77Z"/>
<glyph unicode="e" glyph-name="e" horiz-adv-x="500" d="M157 216Q159 178 169 153T199 113T246 92T310 85Q358 85 396 95T456 118V48Q440 26 395 8T281 -11Q162 -11 95 54T28 243V244Q28 302 45 349T94 429T169 479T264 497Q318 497 358 481T424 438T462 373T475 293Q475 270 472 251T463 216H157ZM266 414Q218 414 189 381T157 280H361V290Q361 356 336 385T266 414Z"/>
<glyph unicode="f" glyph-name="f" horiz-adv-x="356" d="M82 485V517Q82 562 96 593T132 643T182 671T238 680Q276 680 299 672T335 653V588Q326 590 312 591T284 592Q242 592 226 577T209 525V485H335V399H209V0H82V399H16V485H82Z"/>
<glyph unicode="g" glyph-name="g" horiz-adv-x="566" d="M260 -155Q217 -155 185 -150T131 -136T94 -117T70 -96V-5Q92 -23 130 -39T239 -55Q314 -55 354 -20T394 84V135Q380 88 339 59T229 30Q132 30 81 93T29 263V264Q29 318 44 361T87 434T152 480T234 496Q303 496 342 469T402 385Q404 405 408 423T418 456Q423 472 429 485H521V94Q521 -26 453 -90T260 -155ZM269 109Q294 109 317 118T357 145T384 189T394 251V264Q394 335 359 370T271 405Q220 405 189 372T158 275V251Q158 183 186 146T269 109Z"/>
<glyph unicode="h" glyph-name="h" horiz-adv-x="542" d="M48 673H175V364Q189 427 234 462T343 497Q415 497 457 455T499 326V0H373V320Q373 400 292 400Q241 400 208 365T175 262V0H48V673Z"/>
<glyph unicode="i" glyph-name="i" horiz-adv-x="231" d="M115 538Q85 538 64 558T43 609Q43 639 64 660T115 681Q146 681 167 660T188 609Q188 579 167 559T115 538ZM52 485H179V0H52V485Z"/>
<glyph unicode="j" glyph-name="j" horiz-adv-x="231" d="M179 -6Q179 -45 169 -73T140 -119T96 -145T42 -153Q4 -153 -17 -146T-50 -130V-64Q-46 -65 -42 -65Q-38 -66 -32 -66H-21Q17 -66 34 -54T52 -8V485H179V-6ZM115 538Q85 538 64 558T43 609Q43 639 64 660T115 681Q146 681 167 660T188 609Q188 579 167 559T115 538Z"/>
<glyph unicode="k" glyph-name="k" horiz-adv-x="490" d="M48 673H175V266L353 485H481L296 266L486 0H344L175 244V0H48V673Z"/>
<glyph unicode="l" glyph-name="l" horiz-adv-x="229" d="M52 673H177V0H52V673Z"/>
<glyph unicode="m" glyph-name="m" horiz-adv-x="828" d="M48 485H149Q156 469 161 451Q166 435 169 414T173 370V363Q188 426 231 461T334 497Q394 497 429 463T469 357Q486 425 533 461T639 497Q705 497 745 455T785 326V0H658V320Q658 362 643 381T589 400Q538 400 510 365T480 262V0H353V320Q353 362 338 381T284 400Q235 400 206 365T175 262V0H48V485Z"/>
<glyph unicode="n" glyph-name="n" horiz-adv-x="542" d="M48 485H149Q156 469 161 451Q166 435 169 414T173 370V360Q187 424 232 460T343 497Q415 497 457 455T499 326V0H373V320Q373 400 292 400Q241 400 208 365T175 262V0H48V485Z"/>
<glyph unicode="o" glyph-name="o" horiz-adv-x="543" d="M271 -11Q223 -11 180 4T102 50T48 131T28 248V250Q28 308 46 354T96 431T173 480T271 497Q324 497 369 480T446 432T497 355T515 251V249Q515 181 495 132T441 51T363 4T271 -11ZM271 72Q295 72 316 80T352 107T377 157T386 234V270Q386 339 355 375T271 412Q219 412 188 376T157 270V234Q157 188 166 157T190 107T226 80T271 72Z"/>
<glyph unicode="p" glyph-name="p" horiz-adv-x="569" d="M48 485H149Q156 468 161 450Q166 434 169 413T173 368V363Q179 391 193 415T229 458T280 486T344 497Q391 497 427 479T489 429T527 351T540 251V250Q540 186 525 138T482 56T418 6T337 -11Q271 -11 230 20T175 106V-146H48V485ZM300 77Q351 77 381 115T412 238V271Q412 333 383 368T300 404Q248 404 212 368T175 263V244Q175 199 185 168T212 116T251 87T300 77Z"/>
<glyph unicode="q" glyph-name="q" horiz-adv-x="569" d="M394 110Q380 58 340 23T228 -12Q181 -12 145 7T82 60T43 143T29 248V249Q29 310 45 356T88 433T153 480T233 496Q302 496 341 465T402 378Q404 399 408 418T417 453Q422 471 429 485H521V-146H394V110ZM270 78Q296 78 318 88T358 119T384 167T394 232V250Q394 291 385 320T358 368T319 396T270 405Q219 405 189 372T158 266V232Q158 161 187 120T270 78Z"/>
<glyph unicode="r" glyph-name="r" horiz-adv-x="367" d="M48 485H149Q156 468 161 448Q166 431 169 408T173 359V332Q181 378 195 408T227 457T265 484T306 492Q326 492 336 486T352 469V376Q309 377 276 369T221 340T187 285T175 199V0H48V485Z"/>
<glyph unicode="s" glyph-name="s" horiz-adv-x="423" d="M203 -13Q140 -13 97 2T27 40V121Q58 101 96 89T188 77Q239 77 261 91T284 135Q284 166 253 179Q240 184 221 187T180 194T136 203T96 218Q60 237 44 266T28 340Q28 382 44 412T87 461T149 488T222 497Q271 497 310 486T372 455V374Q346 387 310 397T228 407Q188 407 163 394T138 351Q138 336 144 326T168 309Q186 302 208 299T252 291T296 282T335 267Q370 249 385 221T400 149Q400 108 386 78T345 28T283 -3T203 -13Z"/>
<glyph unicode="t" glyph-name="t" horiz-adv-x="381" d="M238 -13Q209 -13 181 -6T131 18T96 65T82 139V399H16V467Q47 469 66 478T98 506T118 552T133 619H208V485H353V399H208V161Q208 114 227 97T285 79Q305 79 322 83T356 93V33Q344 16 316 2T238 -13Z"/>
<glyph unicode="u" glyph-name="u" horiz-adv-x="541" d="M207 -12Q130 -12 88 32T45 172V485H171V174Q171 123 191 101T252 78Q303 78 334 115T366 222V485H492V0H392Q385 17 381 35Q376 51 373 71T370 113V119Q354 57 311 23T207 -12Z"/>
<glyph unicode="v" glyph-name="v" horiz-adv-x="512" d="M8 485H139L267 99L385 485H504L338 0H180L8 485Z"/>
<glyph unicode="w" glyph-name="w" horiz-adv-x="730" d="M367 351L289 0H130L13 485H138L222 100L308 485H427L522 100L600 485H717L605 0H449L367 351Z"/>
<glyph unicode="x" glyph-name="x" horiz-adv-x="518" d="M169 246L23 485H164L265 306L363 485H491L348 249L506 0H365L252 189L140 0H12L169 246Z"/>
<glyph unicode="y" glyph-name="y" horiz-adv-x="510" d="M148 -156Q103 -156 79 -148T39 -125V-48Q58 -54 79 -58T130 -62Q165 -62 185 -48T214 -7L220 11H181L8 485H138L264 113L384 485H502L332 1Q318 -40 301 -69T261 -118T212 -147T148 -156Z"/>
<glyph unicode="z" glyph-name="z" horiz-adv-x="457" d="M426 485V369L145 88H426V0H31V112L308 392H48V485H426Z"/>
<glyph unicode="{" glyph-name="braceleft" horiz-adv-x="308" d="M99 288Q136 283 161 272T202 245T223 210T230 172Q230 152 227 134T219 98T212 63T208 29Q208 6 212 -10T225 -40T247 -66T279 -93V-98H182Q165 -93 149 -83T119 -58T97 -23T88 22Q88 44 93 64T106 104T118 141T124 176Q124 199 103 216T30 238V341Q81 345 102 362T124 403Q124 419 119 436T106 472T94 511T88 553Q88 578 96 598T118 633T148 658T182 673H279V668Q261 654 248 642T225 616T212 585T208 546Q208 529 211 513T219 479T226 444T230 406Q230 386 224 368T202 335T162 308T99 291V288Z"/>
<glyph unicode="|" glyph-name="bar" horiz-adv-x="248" d="M176 -98H72V673H176V-98Z"/>
<glyph unicode="}" glyph-name="braceright" horiz-adv-x="308" d="M210 291Q172 296 147 307T107 334T86 368T79 406Q79 426 82 444T89 479T96 512T100 546Q100 568 96 585T83 615T61 641T30 668V673H127Q144 668 160 658T190 633T212 598T220 553Q220 531 215 511T203 473T191 437T185 403Q185 380 206 363T279 341V238Q228 234 207 217T185 176Q185 159 190 142T202 105T214 65T220 22Q220 -3 212 -23T191 -58T161 -83T127 -98H30V-93Q48 -79 61 -67T83 -41T96 -11T100 29Q100 63 90 97T79 172Q79 191 85 210T107 244T147 271T210 288V291Z"/>
<glyph unicode="~" glyph-name="asciitilde" horiz-adv-x="371" d="M49 208Q41 235 42 261T53 306T81 338T126 350Q147 350 163 344T192 331T215 318T236 312Q251 312 256 321T263 353H319Q327 326 326 301T316 256T290 224T247 212Q228 212 213 218T184 230T158 243T133 249Q119 249 114 240T106 208H49Z"/>
<glyph unicode=" " glyph-name="uni00A0" horiz-adv-x="184"/>
<glyph unicode="¡" glyph-name="exclamdown" horiz-adv-x="249" d="M85 350H165L198 -110H52L85 350ZM125 554Q156 554 179 532T202 478Q202 446 179 423T125 400Q109 400 95 406T70 423T53 448T47 478Q47 493 53 507T69 531T94 548T125 554Z"/>
<glyph unicode="¢" glyph-name="cent" horiz-adv-x="458" d="M188 -107L205 -5Q124 13 76 78T28 244V245Q28 309 48 356T102 434T177 481T265 497H278Q285 497 292 496L305 574H376L361 486Q384 479 399 469T425 448V364Q408 374 389 381T345 393L291 81Q336 81 372 94T432 120V48Q415 26 377 8T275 -12L259 -107H188ZM151 235Q151 123 222 93L275 398Q249 397 226 389T187 365T161 323T151 262V235Z"/>
<glyph unicode="£" glyph-name="sterling" horiz-adv-x="485" d="M37 353H91V441Q91 540 146 596T298 653Q361 653 397 635T453 589V502Q430 520 399 534T319 548Q268 548 242 521T216 429V353H371V269H216Q214 202 184 163T98 100V99H448V0H24V135Q58 154 74 181T91 260V269H37V353Z"/>
<glyph unicode="¥" glyph-name="yen" horiz-adv-x="517" d="M196 125H43V196H196V247H43V318H176L10 639H146L265 393L383 639H507L339 318H474V247H321V196H474V125H321V0H196V125Z"/>
<glyph unicode="¦" glyph-name="brokenbar" horiz-adv-x="248" d="M176 261V-98H72V261H176ZM176 331H72V673H176V331Z"/>
<glyph unicode="§" glyph-name="section" horiz-adv-x="511" d="M413 528Q387 541 353 551T271 562Q231 562 207 551T183 511Q183 481 215 468Q233 461 258 456T311 444T367 431T420 411Q482 380 482 311Q482 261 453 231T372 191Q402 175 421 149T440 78Q440 39 427 10T388 -38T329 -68T253 -78Q186 -78 145 -62T77 -22V56Q109 36 144 23T236 10Q284 10 303 23T322 67Q322 96 289 109Q276 114 253 118T201 129T144 143T93 163Q60 180 45 206T29 268Q29 321 60 347T141 384Q109 400 92 427T74 500Q74 538 88 566T127 614T185 642T258 652Q314 652 353 640T413 607V528ZM308 224Q335 224 354 238T374 278Q374 298 364 309T332 326Q318 330 300 335T263 344T227 350T196 353Q169 353 149 339T129 299Q129 282 137 272T164 253Q176 248 194 243T231 233T271 227T308 224Z"/>
<glyph unicode="¨" glyph-name="dieresis" horiz-adv-x="390" d="M100 538Q72 538 52 557T32 605Q32 632 52 651T100 671Q128 671 148 652T168 605Q168 577 148 558T100 538ZM290 538Q262 538 242 557T222 605Q222 632 242 651T290 671Q318 671 338 652T358 605Q358 577 338 558T290 538Z"/>
<glyph unicode="©" glyph-name="copyright" horiz-adv-x="738" d="M369 37Q429 37 479 59T567 120T626 209T647 317Q647 374 626 425T568 516T480 577T369 600Q310 600 260 578T172 516T114 426T92 317Q92 260 113 209T172 120T259 60T369 37ZM381 136Q302 136 255 184T207 324V326Q207 408 252 457T375 506Q420 506 445 495T485 470V406Q469 416 446 423T394 431Q351 431 328 410T305 342V313Q305 254 331 231T400 207Q421 207 446 213T485 232V175Q473 161 449 149T381 136ZM369 -14Q298 -14 237 12T130 83T60 188T34 317Q34 386 59 446T130 552T236 624T369 651Q441 651 502 625T608 553T678 447T704 317Q704 249 679 189T609 83T503 12T369 -14Z"/>
<glyph unicode="ª" glyph-name="ordfeminine" horiz-adv-x="351" d="M118 303Q76 303 49 327T22 391V392Q22 418 32 434T61 461T102 478T151 491Q186 499 201 506T216 530V531Q216 548 202 559T149 570Q112 570 84 559T43 539V597Q55 612 86 629T175 647Q250 647 282 611T314 511V402Q314 374 314 357T316 329Q317 317 319 311H233Q230 318 226 327Q223 335 221 345T217 369Q197 303 118 303ZM162 357Q184 357 200 376T216 430V476Q208 468 197 463T173 452Q147 441 135 431T122 401V397Q122 357 162 357Z"/>
<glyph unicode="«" glyph-name="guillemotleft" horiz-adv-x="366" d="M204 407L114 244L204 80H106L19 243L106 407H204ZM262 244L352 80H254L167 243L254 407H352L262 244Z"/>
<glyph unicode="®" glyph-name="registered" horiz-adv-x="369" d="M185 334Q151 334 122 346T72 380T38 430T26 491Q26 523 38 551T71 601T122 635T185 648Q219 648 248 636T298 602T331 552T343 491Q343 459 331 431T298 381T248 347T185 334ZM185 367Q212 367 234 376T272 403T297 442T306 491Q306 517 297 539T273 579T235 606T185 616Q158 616 136 606T97 579T71 540T62 491Q62 465 71 443T96 403T135 377T185 367ZM170 477V418H126V572H190Q219 572 235 560T252 525Q252 487 216 480L260 418H210L170 477ZM184 500Q198 500 203 505T208 521Q208 541 186 541H170V500H184Z"/>
<glyph unicode="¯" glyph-name="macron" horiz-adv-x="400" d="M72 637H328V555H72V637Z"/>
<glyph unicode="°" glyph-name="degree" horiz-adv-x="365" d="M181 352Q149 352 122 363T75 395T44 442T33 500Q33 531 44 558T75 605T122 637T181 649Q213 649 240 637T288 605T320 558T332 500Q332 469 321 442T289 395T241 364T181 352ZM181 420Q213 420 234 441T255 500Q255 535 234 558T181 581Q151 581 131 558T110 500Q110 463 130 442T181 420Z"/>
<glyph unicode="±" glyph-name="plusminus" horiz-adv-x="476" d="M286 392H427V292H286V160H183V292H42V392H183V523H286V392ZM42 99H427V0H42V99Z"/>
<glyph unicode="´" glyph-name="acute" horiz-adv-x="400" d="M205 681H358L231 539H154L205 681Z"/>
<glyph unicode="¶" glyph-name="paragraph" horiz-adv-x="518" d="M217 -98V280H212Q124 280 77 327T29 462Q29 545 75 592T205 639H310V-98H217ZM359 -98V639H452V-98H359Z"/>
<glyph unicode="·" glyph-name="periodcentered" horiz-adv-x="228" d="M113 241Q82 241 59 264T36 319Q36 352 59 375T113 399Q146 399 169 376T192 319Q192 287 169 264T113 241Z"/>
<glyph unicode="¸" glyph-name="cedilla" horiz-adv-x="400" d="M208 0V-38Q253 -42 273 -61T293 -112Q293 -150 266 -168T194 -187Q165 -187 147 -181T120 -166V-122Q128 -125 140 -128T169 -131Q209 -131 209 -107Q209 -95 196 -87T145 -78V0H208Z"/>
<glyph unicode="º" glyph-name="ordmasculine" horiz-adv-x="388" d="M194 304Q161 304 131 314T76 345T38 399T24 478V480Q24 520 37 551T72 603T126 636T194 647Q230 647 261 636T315 604T351 551T364 481V479Q364 432 350 399T312 345T258 314T194 304ZM194 366Q208 366 220 371T242 388T257 419T263 469V493Q263 538 244 560T194 582Q163 582 144 560T125 493V469Q125 410 145 388T194 366Z"/>
<glyph unicode="»" glyph-name="guillemotright" horiz-adv-x="366" d="M162 80L252 243L162 407H260L347 244L260 80H162ZM104 243L14 407H112L199 244L112 80H14L104 243Z"/>
<glyph unicode="¼" glyph-name="onequarter" horiz-adv-x="731" d="M662 381V137H713V69H662V0H567V69H394V152L543 381H662ZM161 0H79L568 639H651L161 0ZM100 560L21 479H19V568L90 639H198V258H100V560ZM455 137H567V306L455 137Z"/>
<glyph unicode="½" glyph-name="onehalf" horiz-adv-x="761" d="M161 0H79L568 639H651L161 0ZM100 560L21 479H19V568L90 639H198V258H100V560ZM463 93Q506 118 538 139T590 180T620 219T630 258Q630 290 613 301T567 313Q538 313 514 304T471 283V342Q487 359 515 374T592 390Q621 390 646 383T690 361T719 322T730 263Q730 201 679 155T525 71V70H730V0H463V93Z"/>
<glyph unicode="¾" glyph-name="threequarters" horiz-adv-x="794" d="M725 381V137H776V69H725V0H630V69H456V152L606 381H725ZM147 648Q175 648 200 642T244 624T273 593T284 548Q284 510 260 485T182 455V453Q239 448 267 426T296 359Q296 305 255 279T141 252Q89 252 59 265T15 296V357Q34 342 61 333T127 323Q159 323 177 335T195 374Q195 423 125 423H80V484H124Q156 484 170 496T184 529Q184 549 170 560T122 571Q89 571 68 564T28 546V604Q44 622 73 635T147 648ZM225 0H142L632 639H714L225 0ZM518 137H630V306L518 137Z"/>
<glyph unicode="¿" glyph-name="questiondown" horiz-adv-x="402" d="M237 554Q268 554 291 532T314 478Q314 446 291 423T237 400Q221 400 207 406T182 423T165 448T159 478Q159 493 165 507T181 531T206 548T237 554ZM291 350V308Q291 277 282 254T260 211T230 176T199 145Q180 126 167 107T153 61Q153 -14 243 -14Q317 -14 377 23V-60Q357 -84 315 -101T212 -119Q174 -119 140 -109T81 -78T42 -25T27 53Q27 105 48 137T101 200Q118 216 134 229T164 257T186 289T195 331V350H291Z"/>
<glyph unicode="À" glyph-name="Agrave" horiz-adv-x="626" d="M436 157H176L127 0H6L215 639H413L620 0H486L436 157ZM207 256H405L306 571L207 256ZM166 800H323L361 685H280L166 800Z"/>
<glyph unicode="Á" glyph-name="Aacute" horiz-adv-x="626" d="M436 157H176L127 0H6L215 639H413L620 0H486L436 157ZM207 256H405L306 571L207 256ZM303 800H460L346 685H265L303 800Z"/>
<glyph unicode="Â" glyph-name="Acircumflex" horiz-adv-x="626" d="M436 157H176L127 0H6L215 639H413L620 0H486L436 157ZM207 256H405L306 571L207 256ZM244 800H382L462 685H381L313 733L245 685H164L244 800Z"/>
<glyph unicode="Ã" glyph-name="Atilde" horiz-adv-x="626" d="M436 157H176L127 0H6L215 639H413L620 0H486L436 157ZM207 256H405L306 571L207 256ZM172 681Q165 705 166 728T177 769T203 799T246 810Q268 810 286 805T320 793T349 782T373 776Q388 776 392 785T399 814H453Q460 790 459 767T449 726T423 696T382 685Q362 685 344 690T310 701T280 713T252 718Q238 718 233 710T226 681H172Z"/>
<glyph unicode="Ä" glyph-name="Adieresis" horiz-adv-x="626" d="M436 157H176L127 0H6L215 639H413L620 0H486L436 157ZM207 256H405L306 571L207 256ZM213 679Q185 679 165 698T145 745Q145 773 165 792T213 812Q241 812 261 793T282 745Q282 718 262 699T213 679ZM412 679Q385 679 365 698T344 745Q344 773 364 792T412 812Q441 812 461 793T481 745Q481 718 461 699T412 679Z"/>
<glyph unicode="Å" glyph-name="Aring" horiz-adv-x="626" d="M436 157H176L127 0H6L215 639H413L620 0H486L436 157ZM207 256H405L306 571L207 256ZM270 763Q270 741 282 729T313 716Q333 716 345 728T358 763Q358 784 346 797T313 811Q295 811 283 798T270 763ZM213 763Q213 784 220 802T241 833T273 855T313 863Q334 863 353 855T385 834T407 802T415 763Q415 742 407 724T386 693T353 671T313 663Q292 663 274 671T242 692T221 724T213 763Z"/>
<glyph unicode="Æ" glyph-name="AE" horiz-adv-x="838" d="M392 163H187L123 0H3L257 639H787V532H521V363H767V266H521V95H787V0H392V163ZM226 262H392V542H336L226 262Z"/>
<glyph unicode="Ç" glyph-name="Ccedilla" horiz-adv-x="558" d="M302 -187Q273 -187 255 -181T228 -166V-122Q236 -125 248 -128T277 -131Q317 -131 317 -107Q317 -95 304 -87T253 -78V-6Q150 18 90 102T29 324V326Q29 401 49 461T107 564T201 630T326 653Q406 653 452 632T521 587V492Q492 513 448 529T347 545Q255 545 210 496T164 354V307Q164 193 214 140T357 86Q379 86 403 90T449 102T491 120T524 143V55Q501 29 455 7T336 -15H326Q321 -15 316 -14V-38Q361 -42 381 -61T401 -112Q401 -150 374 -168T302 -187Z"/>
<glyph unicode="È" glyph-name="Egrave" horiz-adv-x="537" d="M134 800H291L329 685H248L134 800ZM66 639H486V532H195V363H466V266H195V95H486V0H66V639Z"/>
<glyph unicode="É" glyph-name="Eacute" horiz-adv-x="537" d="M271 800H428L314 685H233L271 800ZM66 639H486V532H195V363H466V266H195V95H486V0H66V639Z"/>
<glyph unicode="Ê" glyph-name="Ecircumflex" horiz-adv-x="537" d="M212 800H350L430 685H349L281 733L213 685H132L212 800ZM66 639H486V532H195V363H466V266H195V95H486V0H66V639Z"/>
<glyph unicode="Ë" glyph-name="Edieresis" horiz-adv-x="537" d="M66 639H486V532H195V363H466V266H195V95H486V0H66V639ZM182 679Q154 679 134 698T114 745Q114 773 134 792T182 812Q210 812 230 793T251 745Q251 718 231 699T182 679ZM381 679Q354 679 334 698T313 745Q313 773 333 792T381 812Q410 812 430 793T450 745Q450 718 430 699T381 679Z"/>
<glyph unicode="Ì" glyph-name="Igrave" horiz-adv-x="269" d="M70 639H199V0H70V639ZM244 800H401L439 685H358L244 800Z"/>
<glyph unicode="Í" glyph-name="Iacute" horiz-adv-x="269" d="M70 639H199V0H70V639ZM381 800H538L424 685H343L381 800Z"/>
<glyph unicode="Î" glyph-name="Icircumflex" horiz-adv-x="269" d="M70 639H199V0H70V639ZM322 800H460L540 685H459L391 733L323 685H242L322 800Z"/>
<glyph unicode="Ï" glyph-name="Idieresis" horiz-adv-x="269" d="M70 639H199V0H70V639ZM292 679Q264 679 244 698T224 745Q224 773 244 792T292 812Q320 812 340 793T361 745Q361 718 341 699T292 679ZM491 679Q464 679 444 698T423 745Q423 773 443 792T491 812Q520 812 540 793T560 745Q560 718 540 699T491 679Z"/>
<glyph unicode="Ð" glyph-name="Eth" horiz-adv-x="644" d="M20 364H79V639H328Q468 639 540 560T613 328V326Q613 159 534 80T309 0H79V271H20V364ZM298 95Q349 95 384 109T442 151T474 217T484 308V355Q484 397 476 430T449 486T398 522T318 534H205V364H353V271H205V95H298Z"/>
<glyph unicode="Ñ" glyph-name="Ntilde" horiz-adv-x="667" d="M211 681Q204 705 205 728T216 769T242 799T285 810Q307 810 325 805T359 793T388 782T412 776Q427 776 431 785T438 814H492Q499 790 498 767T488 726T462 696T421 685Q401 685 383 690T349 701T319 713T291 718Q277 718 272 710T265 681H211ZM66 639H253L488 146V639H601V0H432L180 520V0H66V639Z"/>
<glyph unicode="Ò" glyph-name="Ograve" horiz-adv-x="660" d="M182 800H339L377 685H296L182 800ZM330 -15Q266 -15 211 6T116 69T54 174T31 321V323Q31 398 50 459T108 563T202 629T330 653Q402 653 457 630T551 563T608 459T628 323V321Q628 237 606 174T544 69T450 6T330 -15ZM330 83Q414 83 454 135T495 303V352Q495 397 486 433T457 496T406 536T330 550Q286 550 255 536T203 496T174 434T165 352V303Q165 187 205 135T330 83Z"/>
<glyph unicode="Ó" glyph-name="Oacute" horiz-adv-x="660" d="M319 800H476L362 685H281L319 800ZM330 -15Q266 -15 211 6T116 69T54 174T31 321V323Q31 398 50 459T108 563T202 629T330 653Q402 653 457 630T551 563T608 459T628 323V321Q628 237 606 174T544 69T450 6T330 -15ZM330 83Q414 83 454 135T495 303V352Q495 397 486 433T457 496T406 536T330 550Q286 550 255 536T203 496T174 434T165 352V303Q165 187 205 135T330 83Z"/>
<glyph unicode="Ô" glyph-name="Ocircumflex" horiz-adv-x="660" d="M260 800H398L478 685H397L329 733L261 685H180L260 800ZM330 -15Q266 -15 211 6T116 69T54 174T31 321V323Q31 398 50 459T108 563T202 629T330 653Q402 653 457 630T551 563T608 459T628 323V321Q628 237 606 174T544 69T450 6T330 -15ZM330 83Q414 83 454 135T495 303V352Q495 397 486 433T457 496T406 536T330 550Q286 550 255 536T203 496T174 434T165 352V303Q165 187 205 135T330 83Z"/>
<glyph unicode="Õ" glyph-name="Otilde" horiz-adv-x="660" d="M188 681Q181 705 182 728T193 769T219 799T262 810Q284 810 302 805T336 793T365 782T389 776Q404 776 408 785T415 814H469Q476 790 475 767T465 726T439 696T398 685Q378 685 360 690T326 701T296 713T268 718Q254 718 249 710T242 681H188ZM330 -15Q266 -15 211 6T116 69T54 174T31 321V323Q31 398 50 459T108 563T202 629T330 653Q402 653 457 630T551 563T608 459T628 323V321Q628 237 606 174T544 69T450 6T330 -15ZM330 83Q414 83 454 135T495 303V352Q495 397 486 433T457 496T406 536T330 550Q286 550 255 536T203 496T174 434T165 352V303Q165 187 205 135T330 83Z"/>
<glyph unicode="Ö" glyph-name="Odieresis" horiz-adv-x="660" d="M229 679Q201 679 181 698T161 745Q161 773 181 792T229 812Q257 812 277 793T298 745Q298 718 278 699T229 679ZM428 679Q401 679 381 698T360 745Q360 773 380 792T428 812Q457 812 477 793T497 745Q497 718 477 699T428 679ZM330 -15Q266 -15 211 6T116 69T54 174T31 321V323Q31 398 50 459T108 563T202 629T330 653Q402 653 457 630T551 563T608 459T628 323V321Q628 237 606 174T544 69T450 6T330 -15ZM330 83Q414 83 454 135T495 303V352Q495 397 486 433T457 496T406 536T330 550Q286 550 255 536T203 496T174 434T165 352V303Q165 187 205 135T330 83Z"/>
<glyph unicode="×" glyph-name="multiply" horiz-adv-x="456" d="M159 304L40 424L108 493L228 372L346 491L414 422L296 304L416 184L348 115L228 235L110 117L42 186L159 304Z"/>
<glyph unicode="Ø" glyph-name="Oslash" horiz-adv-x="660" d="M554 559Q628 470 628 323V321Q628 237 606 174T544 69T450 6T330 -15Q279 -15 234 -2T151 38L107 -19H22L102 85Q68 127 50 185T31 321V323Q31 398 50 459T108 563T202 629T330 653Q434 653 504 604L544 656H629L554 559ZM330 83Q414 83 455 135T497 303V352Q497 421 481 465L212 117Q232 98 261 91T330 83ZM163 303Q163 225 176 180L440 522Q403 550 330 550Q286 550 254 536T202 496T173 434T163 352V303Z"/>
<glyph unicode="Ù" glyph-name="Ugrave" horiz-adv-x="655" d="M180 800H337L375 685H294L180 800ZM59 639H188V238Q188 155 220 120T328 85Q403 85 435 119T467 237V639H596V262Q596 185 577 132T523 47T438 0T328 -15Q268 -15 219 -1T134 47T79 133T59 263V639Z"/>
<glyph unicode="Ú" glyph-name="Uacute" horiz-adv-x="655" d="M317 800H474L360 685H279L317 800ZM59 639H188V238Q188 155 220 120T328 85Q403 85 435 119T467 237V639H596V262Q596 185 577 132T523 47T438 0T328 -15Q268 -15 219 -1T134 47T79 133T59 263V639Z"/>
<glyph unicode="Û" glyph-name="Ucircumflex" horiz-adv-x="655" d="M258 800H396L476 685H395L327 733L259 685H178L258 800ZM59 639H188V238Q188 155 220 120T328 85Q403 85 435 119T467 237V639H596V262Q596 185 577 132T523 47T438 0T328 -15Q268 -15 219 -1T134 47T79 133T59 263V639Z"/>
<glyph unicode="Ü" glyph-name="Udieresis" horiz-adv-x="655" d="M59 639H188V238Q188 155 220 120T328 85Q403 85 435 119T467 237V639H596V262Q596 185 577 132T523 47T438 0T328 -15Q268 -15 219 -1T134 47T79 133T59 263V639ZM227 679Q199 679 179 698T159 745Q159 773 179 792T227 812Q255 812 275 793T296 745Q296 718 276 699T227 679ZM426 679Q399 679 379 698T358 745Q358 773 378 792T426 812Q455 812 475 793T495 745Q495 718 475 699T426 679Z"/>
<glyph unicode="Ý" glyph-name="Yacute" horiz-adv-x="563" d="M217 235L3 639H142L288 352L432 639H560L346 236V0H217V235ZM277 800H434L320 685H239L277 800Z"/>
<glyph unicode="Þ" glyph-name="Thorn" horiz-adv-x="565" d="M66 639H195V524H314Q423 524 479 473T536 324Q536 227 476 177T305 126H195V0H66V639ZM287 219Q356 219 382 246T409 323Q409 370 385 396T299 422H195V219H287Z"/>
<glyph unicode="ß" glyph-name="germandbls" horiz-adv-x="571" d="M286 680Q326 680 362 672T425 645T467 599T483 530Q483 492 461 465T412 417T363 380T341 349Q341 335 350 328T377 313Q401 303 430 293T480 271Q512 253 531 223T550 144Q550 67 506 27T373 -13Q323 -13 289 -1T230 32V113Q257 96 288 87T358 77Q393 77 413 91T434 135Q434 164 402 181Q384 190 360 198T305 220Q268 236 251 262T234 323Q234 357 254 383T299 431T344 477T365 529Q365 560 344 576T281 593Q230 593 203 560T175 464V0H48V461Q48 516 65 557T113 625T189 666T286 680Z"/>
<glyph unicode="à" glyph-name="agrave" d="M165 -13Q102 -13 63 22T24 118V119Q24 158 40 183T82 223T143 248T216 267Q269 280 290 292T311 329V332Q311 358 290 375T212 393Q185 393 161 388T116 376T79 360T54 345V426Q63 437 78 449T116 472T170 490T240 497Q345 497 391 445T437 302V133Q437 92 437 67T440 26Q442 8 444 0H335Q329 11 325 25Q321 37 318 53T313 88Q299 38 261 13T165 -13ZM220 63Q238 63 254 70T283 93T303 129T311 180V245Q298 234 280 225T240 208Q193 191 173 175T153 130V125Q153 63 220 63ZM84 681H237L287 539H207L84 681Z"/>
<glyph unicode="á" glyph-name="aacute" d="M165 -13Q102 -13 63 22T24 118V119Q24 158 40 183T82 223T143 248T216 267Q269 280 290 292T311 329V332Q311 358 290 375T212 393Q185 393 161 388T116 376T79 360T54 345V426Q63 437 78 449T116 472T170 490T240 497Q345 497 391 445T437 302V133Q437 92 437 67T440 26Q442 8 444 0H335Q329 11 325 25Q321 37 318 53T313 88Q299 38 261 13T165 -13ZM220 63Q238 63 254 70T283 93T303 129T311 180V245Q298 234 280 225T240 208Q193 191 173 175T153 130V125Q153 63 220 63ZM240 681H393L266 539H189L240 681Z"/>
<glyph unicode="â" glyph-name="acircumflex" d="M165 -13Q102 -13 63 22T24 118V119Q24 158 40 183T82 223T143 248T216 267Q269 280 290 292T311 329V332Q311 358 290 375T212 393Q185 393 161 388T116 376T79 360T54 345V426Q63 437 78 449T116 472T170 490T240 497Q345 497 391 445T437 302V133Q437 92 437 67T440 26Q442 8 444 0H335Q329 11 325 25Q321 37 318 53T313 88Q299 38 261 13T165 -13ZM220 63Q238 63 254 70T283 93T303 129T311 180V245Q298 234 280 225T240 208Q193 191 173 175T153 130V125Q153 63 220 63ZM176 677H304L390 539H309L240 604L171 539H90L176 677Z"/>
<glyph unicode="ã" glyph-name="atilde" d="M165 -13Q102 -13 63 22T24 118V119Q24 158 40 183T82 223T143 248T216 267Q269 280 290 292T311 329V332Q311 358 290 375T212 393Q185 393 161 388T116 376T79 360T54 345V426Q63 437 78 449T116 472T170 490T240 497Q345 497 391 445T437 302V133Q437 92 437 67T440 26Q442 8 444 0H335Q329 11 325 25Q321 37 318 53T313 88Q299 38 261 13T165 -13ZM220 63Q238 63 254 70T283 93T303 129T311 180V245Q298 234 280 225T240 208Q193 191 173 175T153 130V125Q153 63 220 63ZM105 551Q98 575 99 598T109 639T135 668T178 679Q199 679 216 674T247 662T272 651T295 645Q309 645 313 654T320 683H374Q380 659 380 636T371 595T346 566T305 555Q286 555 270 560T238 572T210 583T185 589Q171 589 166 580T158 551H105Z"/>
<glyph unicode="ä" glyph-name="adieresis" d="M165 -13Q102 -13 63 22T24 118V119Q24 158 40 183T82 223T143 248T216 267Q269 280 290 292T311 329V332Q311 358 290 375T212 393Q185 393 161 388T116 376T79 360T54 345V426Q63 437 78 449T116 472T170 490T240 497Q345 497 391 445T437 302V133Q437 92 437 67T440 26Q442 8 444 0H335Q329 11 325 25Q321 37 318 53T313 88Q299 38 261 13T165 -13ZM220 63Q238 63 254 70T283 93T303 129T311 180V245Q298 234 280 225T240 208Q193 191 173 175T153 130V125Q153 63 220 63ZM145 538Q117 538 97 557T77 605Q77 632 97 651T145 671Q173 671 193 652T213 605Q213 577 193 558T145 538ZM335 538Q307 538 287 557T267 605Q267 632 287 651T335 671Q363 671 383 652T403 605Q403 577 383 558T335 538Z"/>
<glyph unicode="å" glyph-name="aring" d="M165 -13Q102 -13 63 22T24 118V119Q24 158 40 183T82 223T143 248T216 267Q269 280 290 292T311 329V332Q311 358 290 375T212 393Q185 393 161 388T116 376T79 360T54 345V426Q63 437 78 449T116 472T170 490T240 497Q345 497 391 445T437 302V133Q437 92 437 67T440 26Q442 8 444 0H335Q329 11 325 25Q321 37 318 53T313 88Q299 38 261 13T165 -13ZM220 63Q238 63 254 70T283 93T303 129T311 180V245Q298 234 280 225T240 208Q193 191 173 175T153 130V125Q153 63 220 63ZM140 636Q140 657 147 675T168 707T200 729T240 737Q261 737 280 729T312 707T334 675T342 636Q342 615 334 597T313 566T280 544T240 536Q219 536 201 544T169 565T148 597T140 636ZM196 636Q196 613 209 601T240 588Q260 588 272 600T285 636Q285 658 273 671T240 685Q222 685 209 672T196 636Z"/>
<glyph unicode="æ" glyph-name="ae" horiz-adv-x="779" d="M176 -13Q105 -13 65 22T24 118V119Q24 158 40 183T82 223T143 248T216 267Q269 280 290 292T311 329V332Q311 358 289 375T210 393Q183 393 159 388T115 376T79 361T54 345V426Q63 437 78 449T115 472T167 490T235 497Q295 497 332 478T390 424Q417 459 456 478T547 497Q601 497 640 481T705 438T743 373T756 293Q756 270 753 251T744 216H438Q440 178 450 153T480 113T527 92T591 85Q639 85 677 95T737 118V48Q721 26 676 8T562 -11Q481 -11 424 18T338 108Q330 72 314 49T277 12T229 -7T176 -13ZM548 414Q499 414 470 381T438 280H643V290Q643 356 617 385T548 414ZM220 63Q238 63 254 69T283 90T303 124T311 174V245Q298 234 280 225T240 208Q193 191 173 175T153 130V125Q153 63 220 63Z"/>
<glyph unicode="ç" glyph-name="ccedilla" horiz-adv-x="458" d="M242 -187Q212 -187 194 -181T167 -166V-122Q175 -125 187 -128T217 -131Q257 -131 257 -107Q257 -95 244 -87T193 -78V-2Q117 19 73 83T28 244V245Q28 309 48 356T102 434T177 481T265 497Q334 497 371 483T425 448V363Q401 379 369 388T286 397Q259 397 236 390T194 366T166 324T156 262V234Q156 155 190 118T293 81Q337 81 373 94T432 120V48Q415 25 375 7T267 -12H255V-38Q300 -42 320 -61T341 -112Q341 -150 314 -168T242 -187Z"/>
<glyph unicode="è" glyph-name="egrave" horiz-adv-x="500" d="M157 216Q159 178 169 153T199 113T246 92T310 85Q358 85 396 95T456 118V48Q440 26 395 8T281 -11Q162 -11 95 54T28 243V244Q28 302 45 349T94 429T169 479T264 497Q318 497 358 481T424 438T462 373T475 293Q475 270 472 251T463 216H157ZM266 414Q218 414 189 381T157 280H361V290Q361 356 336 385T266 414ZM103 681H256L306 539H226L103 681Z"/>
<glyph unicode="é" glyph-name="eacute" horiz-adv-x="500" d="M261 681H414L287 539H210L261 681ZM157 216Q159 178 169 153T199 113T246 92T310 85Q358 85 396 95T456 118V48Q440 26 395 8T281 -11Q162 -11 95 54T28 243V244Q28 302 45 349T94 429T169 479T264 497Q318 497 358 481T424 438T462 373T475 293Q475 270 472 251T463 216H157ZM266 414Q218 414 189 381T157 280H361V290Q361 356 336 385T266 414Z"/>
<glyph unicode="ê" glyph-name="ecircumflex" horiz-adv-x="500" d="M195 677H323L409 539H328L259 604L190 539H109L195 677ZM157 216Q159 178 169 153T199 113T246 92T310 85Q358 85 396 95T456 118V48Q440 26 395 8T281 -11Q162 -11 95 54T28 243V244Q28 302 45 349T94 429T169 479T264 497Q318 497 358 481T424 438T462 373T475 293Q475 270 472 251T463 216H157ZM266 414Q218 414 189 381T157 280H361V290Q361 356 336 385T266 414Z"/>
<glyph unicode="ë" glyph-name="edieresis" horiz-adv-x="500" d="M164 538Q136 538 116 557T96 605Q96 632 116 651T164 671Q192 671 212 652T232 605Q232 577 212 558T164 538ZM354 538Q326 538 306 557T286 605Q286 632 306 651T354 671Q382 671 402 652T422 605Q422 577 402 558T354 538ZM157 216Q159 178 169 153T199 113T246 92T310 85Q358 85 396 95T456 118V48Q440 26 395 8T281 -11Q162 -11 95 54T28 243V244Q28 302 45 349T94 429T169 479T264 497Q318 497 358 481T424 438T462 373T475 293Q475 270 472 251T463 216H157ZM266 414Q218 414 189 381T157 280H361V290Q361 356 336 385T266 414Z"/>
<glyph unicode="ì" glyph-name="igrave" horiz-adv-x="230" d="M52 485H179V0H52V485ZM217 681H370L420 539H340L217 681Z"/>
<glyph unicode="í" glyph-name="iacute" horiz-adv-x="230" d="M378 681H531L404 539H327L378 681ZM52 485H179V0H52V485Z"/>
<glyph unicode="î" glyph-name="icircumflex" horiz-adv-x="230" d="M309 677H437L523 539H442L373 604L304 539H223L309 677ZM52 485H179V0H52V485Z"/>
<glyph unicode="ï" glyph-name="idieresis" horiz-adv-x="230" d="M29 538Q0 538 -20 557T-40 605Q-40 632 -20 651T29 671Q56 671 76 652T97 605Q97 577 77 558T29 538ZM203 538Q175 538 155 557T135 605Q135 632 155 651T203 671Q231 671 251 652T271 605Q271 577 251 558T203 538ZM52 485H179V0H52V485Z"/>
<glyph unicode="ð" glyph-name="eth" horiz-adv-x="544" d="M350 427Q330 462 302 494T242 554L91 506L70 560L186 597Q156 618 126 635T66 668V673H244Q258 665 273 656T306 635L409 668L430 614L360 592Q390 565 418 531T467 457T502 369T515 269V249Q515 181 495 132T441 51T363 4T271 -11Q223 -11 180 4T102 50T48 131T28 248V250Q28 308 43 352T85 426T147 471T222 486Q266 486 295 471T349 426L350 427ZM271 72Q295 72 316 80T352 107T377 157T386 234V270Q386 339 355 375T271 412Q219 412 188 376T157 270V234Q157 188 166 157T190 107T226 80T271 72Z"/>
<glyph unicode="ñ" glyph-name="ntilde" horiz-adv-x="542" d="M48 485H149Q156 469 161 451Q166 435 169 414T173 370V360Q187 424 232 460T343 497Q415 497 457 455T499 326V0H373V320Q373 400 292 400Q241 400 208 365T175 262V0H48V485ZM141 551Q134 575 135 598T145 639T171 668T214 679Q235 679 252 674T283 662T308 651T331 645Q345 645 349 654T356 683H410Q416 659 416 636T407 595T382 566T341 555Q322 555 306 560T274 572T246 583T221 589Q207 589 202 580T194 551H141Z"/>
<glyph unicode="ò" glyph-name="ograve" horiz-adv-x="543" d="M271 -11Q223 -11 180 4T102 50T48 131T28 248V250Q28 308 46 354T96 431T173 480T271 497Q324 497 369 480T446 432T497 355T515 251V249Q515 181 495 132T441 51T363 4T271 -11ZM271 72Q295 72 316 80T352 107T377 157T386 234V270Q386 339 355 375T271 412Q219 412 188 376T157 270V234Q157 188 166 157T190 107T226 80T271 72ZM118 681H271L321 539H241L118 681Z"/>
<glyph unicode="ó" glyph-name="oacute" horiz-adv-x="543" d="M274 681H427L300 539H223L274 681ZM271 -11Q223 -11 180 4T102 50T48 131T28 248V250Q28 308 46 354T96 431T173 480T271 497Q324 497 369 480T446 432T497 355T515 251V249Q515 181 495 132T441 51T363 4T271 -11ZM271 72Q295 72 316 80T352 107T377 157T386 234V270Q386 339 355 375T271 412Q219 412 188 376T157 270V234Q157 188 166 157T190 107T226 80T271 72Z"/>
<glyph unicode="ô" glyph-name="ocircumflex" horiz-adv-x="543" d="M207 677H335L421 539H340L271 604L202 539H121L207 677ZM271 -11Q223 -11 180 4T102 50T48 131T28 248V250Q28 308 46 354T96 431T173 480T271 497Q324 497 369 480T446 432T497 355T515 251V249Q515 181 495 132T441 51T363 4T271 -11ZM271 72Q295 72 316 80T352 107T377 157T386 234V270Q386 339 355 375T271 412Q219 412 188 376T157 270V234Q157 188 166 157T190 107T226 80T271 72Z"/>
<glyph unicode="õ" glyph-name="otilde" horiz-adv-x="543" d="M271 -11Q223 -11 180 4T102 50T48 131T28 248V250Q28 308 46 354T96 431T173 480T271 497Q324 497 369 480T446 432T497 355T515 251V249Q515 181 495 132T441 51T363 4T271 -11ZM271 72Q295 72 316 80T352 107T377 157T386 234V270Q386 339 355 375T271 412Q219 412 188 376T157 270V234Q157 188 166 157T190 107T226 80T271 72ZM136 551Q129 575 130 598T140 639T166 668T209 679Q230 679 247 674T278 662T303 651T326 645Q340 645 344 654T351 683H405Q411 659 411 636T402 595T377 566T336 555Q317 555 301 560T269 572T241 583T216 589Q202 589 197 580T189 551H136Z"/>
<glyph unicode="ö" glyph-name="odieresis" horiz-adv-x="543" d="M176 538Q148 538 128 557T108 605Q108 632 128 651T176 671Q204 671 224 652T244 605Q244 577 224 558T176 538ZM366 538Q338 538 318 557T298 605Q298 632 318 651T366 671Q394 671 414 652T434 605Q434 577 414 558T366 538ZM271 -11Q223 -11 180 4T102 50T48 131T28 248V250Q28 308 46 354T96 431T173 480T271 497Q324 497 369 480T446 432T497 355T515 251V249Q515 181 495 132T441 51T363 4T271 -11ZM271 72Q295 72 316 80T352 107T377 157T386 234V270Q386 339 355 375T271 412Q219 412 188 376T157 270V234Q157 188 166 157T190 107T226 80T271 72Z"/>
<glyph unicode="÷" glyph-name="divide" horiz-adv-x="476" d="M430 363V264H46V363H430ZM238 79Q210 79 189 99T168 149Q168 178 189 198T238 219Q267 219 287 199T307 149Q307 120 287 100T238 79ZM238 407Q210 407 189 427T168 476Q168 505 189 526T238 547Q267 547 287 526T307 476Q307 447 287 427T238 407Z"/>
<glyph unicode="ø" glyph-name="oslash" horiz-adv-x="543" d="M453 425Q482 393 498 350T515 251V249Q515 181 495 132T441 51T363 4T271 -11Q234 -11 199 -3T135 25L100 -19H28L91 61Q62 93 45 139T28 248V250Q28 308 46 354T96 431T173 480T271 497Q349 497 408 461L440 501H513L453 425ZM388 270Q388 308 381 335L191 95Q216 71 271 71Q296 71 317 79T354 107T379 157T388 234V270ZM155 234Q155 181 162 150L351 388Q324 412 271 412Q219 412 187 376T155 270V234Z"/>
<glyph unicode="ù" glyph-name="ugrave" horiz-adv-x="541" d="M207 -12Q130 -12 88 32T45 172V485H171V174Q171 123 191 101T252 78Q303 78 334 115T366 222V485H492V0H392Q385 17 381 35Q376 51 373 71T370 113V119Q354 57 311 23T207 -12ZM113 681H266L316 539H236L113 681Z"/>
<glyph unicode="ú" glyph-name="uacute" horiz-adv-x="541" d="M274 681H427L300 539H223L274 681ZM207 -12Q130 -12 88 32T45 172V485H171V174Q171 123 191 101T252 78Q303 78 334 115T366 222V485H492V0H392Q385 17 381 35Q376 51 373 71T370 113V119Q354 57 311 23T207 -12Z"/>
<glyph unicode="û" glyph-name="ucircumflex" horiz-adv-x="541" d="M205 677H333L419 539H338L269 604L200 539H119L205 677ZM207 -12Q130 -12 88 32T45 172V485H171V174Q171 123 191 101T252 78Q303 78 334 115T366 222V485H492V0H392Q385 17 381 35Q376 51 373 71T370 113V119Q354 57 311 23T207 -12Z"/>
<glyph unicode="ü" glyph-name="udieresis" horiz-adv-x="541" d="M174 538Q146 538 126 557T106 605Q106 632 126 651T174 671Q202 671 222 652T242 605Q242 577 222 558T174 538ZM364 538Q336 538 316 557T296 605Q296 632 316 651T364 671Q392 671 412 652T432 605Q432 577 412 558T364 538ZM207 -12Q130 -12 88 32T45 172V485H171V174Q171 123 191 101T252 78Q303 78 334 115T366 222V485H492V0H392Q385 17 381 35Q376 51 373 71T370 113V119Q354 57 311 23T207 -12Z"/>
<glyph unicode="ý" glyph-name="yacute" horiz-adv-x="510" d="M148 -156Q103 -156 79 -148T39 -125V-48Q58 -54 79 -58T130 -62Q165 -62 185 -48T214 -7L220 11H181L8 485H138L264 113L384 485H502L332 1Q318 -40 301 -69T261 -118T212 -147T148 -156ZM264 681H417L290 539H213L264 681Z"/>
<glyph unicode="þ" glyph-name="thorn" horiz-adv-x="569" d="M337 -11Q271 -11 230 21T175 106V-146H48V673H175V372Q182 396 196 419T231 459T281 486T344 497Q391 497 427 479T489 429T527 351T540 251V250Q540 186 525 138T482 56T418 6T337 -11ZM300 77Q351 77 381 115T412 238V271Q412 333 383 368T300 404Q248 404 212 368T175 263V244Q175 199 185 168T212 116T251 87T300 77Z"/>
<glyph unicode="ÿ" glyph-name="ydieresis" horiz-adv-x="510" d="M148 -156Q103 -156 79 -148T39 -125V-48Q58 -54 79 -58T130 -62Q165 -62 185 -48T214 -7L220 11H181L8 485H138L264 113L384 485H502L332 1Q318 -40 301 -69T261 -118T212 -147T148 -156ZM164 538Q136 538 116 557T96 605Q96 632 116 651T164 671Q192 671 212 652T232 605Q232 577 212 558T164 538ZM354 538Q326 538 306 557T286 605Q286 632 306 651T354 671Q382 671 402 652T422 605Q422 577 402 558T354 538Z"/>
<glyph unicode="ı" glyph-name="dotlessi" horiz-adv-x="230" d="M52 485H179V0H52V485Z"/>
<glyph unicode="Ł" glyph-name="Lslash" horiz-adv-x="518" d="M80 196L8 159V257L80 294V639H209V360L401 459V361L209 262V101H489V0H80V196Z"/>
<glyph unicode="ł" glyph-name="lslash" horiz-adv-x="259" d="M17 329L66 362V673H192V447L250 486V390L192 351V0H66V266L17 233V329Z"/>
<glyph unicode="Œ" glyph-name="OE" horiz-adv-x="846" d="M331 0Q186 0 109 79T31 326V328Q31 480 104 559T317 639H795V532H532V363H775V266H532V95H795V0H331ZM161 308Q161 257 170 218T200 151T256 109T342 94H402V533H327Q279 533 247 521T196 486T169 430T161 355V308Z"/>
<glyph unicode="œ" glyph-name="oe" horiz-adv-x="858" d="M645 -11Q569 -11 521 18T449 104Q422 44 374 17T267 -11Q220 -11 177 4T101 50T48 131T28 248V250Q28 308 46 354T96 431T171 480T267 497Q332 497 378 469T450 384Q473 439 518 468T628 497Q680 497 718 481T782 438T820 373T833 293Q833 270 830 251T821 216H513Q517 142 556 114T668 85Q716 85 754 95T814 118V48Q798 26 754 8T645 -11ZM271 72Q295 72 316 80T352 107T377 157T386 234V270Q386 339 355 375T271 412Q219 412 188 376T157 270V234Q157 188 166 157T190 107T226 80T271 72ZM624 414Q575 414 545 381T513 280H719V290Q719 356 693 385T624 414Z"/>
<glyph unicode="Š" glyph-name="Scaron" horiz-adv-x="511" d="M100 800H181L249 752L317 800H398L318 685H180L100 800ZM245 -14Q166 -14 114 6T33 53V149Q64 125 115 105T231 84Q291 84 323 105T356 176Q356 199 349 213T320 238Q304 247 278 253T223 266T164 281T112 301Q70 324 52 362T33 458Q33 509 52 546T102 606T175 641T261 652Q326 652 371 637T442 597V500Q430 508 411 516T369 531T320 542T268 546Q244 546 223 543T186 532T161 507T151 465Q151 444 159 429T191 402Q213 391 241 385T300 373T359 359T410 336Q448 311 464 276T481 187Q481 135 463 97T413 35T338 -2T245 -14Z"/>
<glyph unicode="š" glyph-name="scaron" horiz-adv-x="423" d="M63 677H144L213 612L282 677H363L277 539H149L63 677ZM203 -13Q140 -13 97 2T27 40V121Q58 101 96 89T188 77Q239 77 261 91T284 135Q284 166 253 179Q240 184 221 187T180 194T136 203T96 218Q60 237 44 266T28 340Q28 382 44 412T87 461T149 488T222 497Q271 497 310 486T372 455V374Q346 387 310 397T228 407Q188 407 163 394T138 351Q138 336 144 326T168 309Q186 302 208 299T252 291T296 282T335 267Q370 249 385 221T400 149Q400 108 386 78T345 28T283 -3T203 -13Z"/>
<glyph unicode="Ÿ" glyph-name="Ydieresis" horiz-adv-x="563" d="M217 235L3 639H142L288 352L432 639H560L346 236V0H217V235ZM187 679Q159 679 139 698T119 745Q119 773 139 792T187 812Q215 812 235 793T256 745Q256 718 236 699T187 679ZM386 679Q359 679 339 698T318 745Q318 773 338 792T386 812Q415 812 435 793T455 745Q455 718 435 699T386 679Z"/>
<glyph unicode="Ž" glyph-name="Zcaron" horiz-adv-x="548" d="M136 800H217L285 752L353 800H434L354 685H216L136 800ZM513 639V512L155 95H511V0H32V122L381 534H55V639H513Z"/>
<glyph unicode="ž" glyph-name="zcaron" horiz-adv-x="457" d="M86 677H167L236 612L305 677H386L300 539H172L86 677ZM426 485V369L145 88H426V0H31V112L308 392H48V485H426Z"/>
<glyph unicode="ƒ" glyph-name="florin" horiz-adv-x="406" d="M107 408L117 502Q126 595 173 637T288 680Q324 680 346 672T381 653V579Q372 581 359 581T332 582Q288 582 269 565T245 504L235 408H360V317H225L177 -146H49L97 317H22V408H107Z"/>
<glyph unicode="ˆ" glyph-name="circumflex" horiz-adv-x="400" d="M136 677H264L350 539H269L200 604L131 539H50L136 677Z"/>
<glyph unicode="ˇ" glyph-name="caron" horiz-adv-x="400" d="M50 677H131L200 612L269 677H350L264 539H136L50 677Z"/>
<glyph unicode="˘" glyph-name="breve" horiz-adv-x="400" d="M324 677Q326 652 320 627T299 582T259 550T199 537Q164 537 140 549T100 581T79 626T75 677H146Q145 653 157 636T199 618Q229 618 241 635T253 677H324Z"/>
<glyph unicode="˙" glyph-name="dotaccent" horiz-adv-x="400" d="M200 539Q170 539 150 560T129 610Q129 639 149 660T200 681Q230 681 250 660T271 610Q271 581 251 560T200 539Z"/>
<glyph unicode="˚" glyph-name="ring" horiz-adv-x="390" d="M95 636Q95 657 102 675T123 707T155 729T195 737Q216 737 235 729T267 707T289 675T297 636Q297 615 289 597T268 566T235 544T195 536Q174 536 156 544T124 565T103 597T95 636ZM151 636Q151 613 164 601T195 588Q215 588 227 600T240 636Q240 658 228 671T195 685Q177 685 164 672T151 636Z"/>
<glyph unicode="˛" glyph-name="ogonek" horiz-adv-x="400" d="M210 -155Q165 -155 142 -136T118 -85Q118 -52 145 -31T209 0H269Q234 -19 225 -35T216 -62Q216 -88 244 -88Q253 -88 260 -86T273 -82V-135Q258 -155 210 -155Z"/>
<glyph unicode="˜" glyph-name="tilde" horiz-adv-x="400" d="M65 551Q58 575 59 598T69 639T95 668T138 679Q159 679 176 674T207 662T232 651T255 645Q269 645 273 654T280 683H334Q340 659 340 636T331 595T306 566T265 555Q246 555 230 560T198 572T170 583T145 589Q131 589 126 580T118 551H65Z"/>
<glyph unicode="˝" glyph-name="hungarumlaut" horiz-adv-x="400" d="M120 681H242L158 539H71L120 681ZM281 681H403L319 539H232L281 681Z"/>
</font>
</defs>
</svg>
