<?xml version="1.0" encoding="UTF-8" standalone="no"?>
<!DOCTYPE svg PUBLIC "-//W3C//DTD SVG 1.1//EN" "http://www.w3.org/Graphics/SVG/1.1/DTD/svg11.dtd">
<svg version="1.1" xmlns="http://www.w3.org/2000/svg"><defs><font horiz-adv-x="0" id="font"><font-face ascent="854" bbox="-185 -161 848 815" cap-height="639" descent="-146" font-family="FC Zizou Slab Web" font-stretch="normal" font-style="normal" font-weight="300" units-per-em="1000" x-height="472"/><missing-glyph horiz-adv-x="500"/><glyph glyph-name=".null" horiz-adv-x="0"/><glyph d="M18 30H71L285 639H349L563 30H616V0H414V30H523L454 228H178L109 30H216V0H18ZM190 262H442L316 625Z" glyph-name="A" horiz-adv-x="634" unicode="A"/><glyph d="M762 604H468V344H736V310H468V33H772V156H808V0H362V30H431V228H193L105 30H214V0H18V30H66L322 607H247V639H798V483H762ZM208 262H431V604H360Z" glyph-name="AE" horiz-adv-x="846" unicode="Æ"/><glyph d="M18 30H71L285 639H349L563 30H616V0H414V30H523L454 228H178L109 30H216V0H18ZM190 262H442L316 625ZM362 781H419L329 688H293Z" glyph-name="Aacute" horiz-adv-x="634" unicode="Á"/><glyph d="M18 30H71L285 639H349L563 30H616V0H414V30H523L454 228H178L109 30H216V0H18ZM190 262H442L316 625ZM401 681 317 752 233 681H199L288 778H346L435 681Z" glyph-name="Acircumflex" horiz-adv-x="634" unicode="Â"/><glyph d="M18 30H71L285 639H349L563 30H616V0H414V30H523L454 228H178L109 30H216V0H18ZM190 262H442L316 625ZM243 690Q231 690 222 698Q213 706 213 719Q213 732 222 740.5Q231 749 243 749Q256 749 265 740.5Q274 732 274 719Q274 706 265 698Q256 690 243 690ZM391 690Q378 690 369 698Q360 706 360 719Q360 732 369 740.5Q378 749 391 749Q403 749 412 740.5Q421 732 421 719Q421 706 412 698Q403 690 391 690Z" glyph-name="Adieresis" horiz-adv-x="634" unicode="Ä"/><glyph d="M18 30H71L285 639H349L563 30H616V0H414V30H523L454 228H178L109 30H216V0H18ZM190 262H442L316 625ZM218 781H275L344 688H308Z" glyph-name="Agrave" horiz-adv-x="634" unicode="À"/><glyph d="M18 30H71L285 639H349L563 30H616V0H414V30H523L454 228H178L109 30H216V0H18ZM190 262H442L316 625ZM318 692Q337 692 350.5 705Q364 718 364 741Q364 763 350.5 776.5Q337 790 318 790Q300 790 286.5 776.5Q273 763 273 741Q273 718 286.5 705Q300 692 318 692ZM318 668Q286 668 265.5 689Q245 710 245 741Q245 772 265.5 793.5Q286 815 318 815Q350 815 371 793.5Q392 772 392 741Q392 710 371 689Q350 668 318 668Z" glyph-name="Aring" horiz-adv-x="634" unicode="Å"/><glyph d="M18 30H71L285 639H349L563 30H616V0H414V30H523L454 228H178L109 30H216V0H18ZM190 262H442L316 625ZM214 688Q206 720 220 739.5Q234 759 263 759Q278 759 293 754.5Q308 750 322 744.5Q336 739 348.5 734.5Q361 730 371 730Q385 730 391.5 738.5Q398 747 396 767H420Q428 735 415 715.5Q402 696 375 696Q361 696 346 700.5Q331 705 316 710.5Q301 716 287.5 720.5Q274 725 264 725Q251 725 243.5 716.5Q236 708 238 688Z" glyph-name="Atilde" horiz-adv-x="634" unicode="Ã"/><glyph d="M24 639H296Q334 639 366.5 629Q399 619 422.5 599Q446 579 459 548.5Q472 518 472 477Q472 414 438.5 372.5Q405 331 330 323V322Q414 317 454.5 276.5Q495 236 495 167Q495 129 484 98.5Q473 68 448.5 46Q424 24 385.5 12Q347 0 293 0H24V30H93V607H24ZM282 33Q331 33 364.5 41.5Q398 50 418.5 67Q439 84 447.5 108.5Q456 133 456 166Q456 236 413 270Q370 304 267 304H130V33ZM267 338Q358 338 396 374.5Q434 411 434 477Q434 548 395 576Q356 604 287 604H130V338Z" glyph-name="B" horiz-adv-x="529" unicode="B"/><glyph d="M481 572Q452 591 413.5 603.5Q375 616 322 616Q256 616 209.5 595.5Q163 575 133.5 538.5Q104 502 90.5 450.5Q77 399 77 337V326Q77 257 91.5 201Q106 145 136 105Q166 65 212.5 43Q259 21 323 21Q380 21 421 34.5Q462 48 491 68V156H527V58Q517 49 499.5 37.5Q482 26 456.5 15Q431 4 398.5 -3.5Q366 -11 326 -11Q255 -11 201 13Q147 37 111 81Q75 125 56.5 188Q38 251 38 328V330Q38 400 54.5 458.5Q71 517 106 559.5Q141 602 194.5 626Q248 650 322 650Q363 650 395 643.5Q427 637 450.5 626.5Q474 616 490.5 603.5Q507 591 517 579V483H481Z" glyph-name="C" horiz-adv-x="569" unicode="C"/><glyph d="M481 572Q452 591 413.5 603.5Q375 616 322 616Q256 616 209.5 595.5Q163 575 133.5 538.5Q104 502 90.5 450.5Q77 399 77 337V326Q77 257 91.5 201Q106 145 136 105Q166 65 212.5 43Q259 21 323 21Q380 21 421 34.5Q462 48 491 68V156H527V58Q517 49 499.5 37.5Q482 26 456.5 15Q431 4 398.5 -3.5Q366 -11 326 -11Q317 -11 309 -10.5Q301 -10 293 -9V-43Q329 -44 349 -59.5Q369 -75 369 -103Q369 -133 349.5 -147Q330 -161 299 -161Q273 -161 257.5 -153.5Q242 -146 235 -138V-119Q246 -126 259 -130.5Q272 -135 292 -135Q334 -135 334 -102Q334 -83 317.5 -73.5Q301 -64 265 -62V-6Q153 14 95.5 102Q38 190 38 328V330Q38 400 54.5 458.5Q71 517 106 559.5Q141 602 194.5 626Q248 650 322 650Q363 650 395 643.5Q427 637 450.5 626.5Q474 616 490.5 603.5Q507 591 517 579V483H481Z" glyph-name="Ccedilla" horiz-adv-x="569" unicode="Ç"/><glyph d="M24 639H303Q377 639 428 619Q479 599 510.5 560Q542 521 556 464.5Q570 408 570 336V334Q570 255 553 193Q536 131 500 88Q464 45 408.5 22.5Q353 0 275 0H24V30H93V607H24ZM265 33Q340 33 390.5 52.5Q441 72 472.5 109.5Q504 147 517.5 203Q531 259 531 332V345Q531 406 521.5 454.5Q512 503 485.5 536Q459 569 413.5 586.5Q368 604 296 604H130V33Z" glyph-name="D" horiz-adv-x="608" unicode="D"/><glyph d="M437 604H130V344H411V310H130V33H447V156H483V0H24V30H93V607H24V639H473V483H437Z" glyph-name="E" horiz-adv-x="521" unicode="E"/><glyph d="M316 781H373L283 688H247ZM437 604H130V344H411V310H130V33H447V156H483V0H24V30H93V607H24V639H473V483H437Z" glyph-name="Eacute" horiz-adv-x="521" unicode="É"/><glyph d="M355 681 271 752 187 681H153L242 778H300L389 681ZM437 604H130V344H411V310H130V33H447V156H483V0H24V30H93V607H24V639H473V483H437Z" glyph-name="Ecircumflex" horiz-adv-x="521" unicode="Ê"/><glyph d="M437 604H130V344H411V310H130V33H447V156H483V0H24V30H93V607H24V639H473V483H437ZM197 690Q185 690 176 698Q167 706 167 719Q167 732 176 740.5Q185 749 197 749Q210 749 219 740.5Q228 732 228 719Q228 706 219 698Q210 690 197 690ZM345 690Q332 690 323 698Q314 706 314 719Q314 732 323 740.5Q332 749 345 749Q357 749 366 740.5Q375 732 375 719Q375 706 366 698Q357 690 345 690Z" glyph-name="Edieresis" horiz-adv-x="521" unicode="Ë"/><glyph d="M172 781H229L298 688H262ZM437 604H130V344H411V310H130V33H447V156H483V0H24V30H93V607H24V639H473V483H437Z" glyph-name="Egrave" horiz-adv-x="521" unicode="È"/><glyph d="M22 343H93V607H24V639H303Q377 639 428 619Q479 599 510.5 560Q542 521 556 464.5Q570 408 570 336V334Q570 255 553 193Q536 131 500 88Q464 45 408.5 22.5Q353 0 275 0H24V30H93V310H22ZM265 33Q340 33 390.5 52.5Q441 72 472.5 109.5Q504 147 517.5 203Q531 259 531 332V345Q531 406 521.5 454.5Q512 503 485.5 536Q459 569 413.5 586.5Q368 604 296 604H130V343H342V310H130V33Z" glyph-name="Eth" horiz-adv-x="608" unicode="Ð"/><glyph d="M348 -11Q233 -11 167 59.5Q101 130 91 265H19V294H90V308V350V357H19V386H91Q95 446 114 495Q133 544 165.5 578.5Q198 613 243 631.5Q288 650 344 650Q377 650 404 643.5Q431 637 451 627Q471 617 485.5 604.5Q500 592 508 580V483H472V577Q447 595 416 605.5Q385 616 344 616Q244 616 190 555.5Q136 495 129 386H383V357H129V306V294H383V265H130Q138 146 190.5 83.5Q243 21 345 21Q403 21 446 44Q489 67 514 97V65Q505 51 489.5 37.5Q474 24 452.5 13.5Q431 3 404.5 -4Q378 -11 348 -11Z" glyph-name="Euro" horiz-adv-x="553" unicode="€"/><glyph d="M437 604H130V325H424V291H130V30H233V0H24V30H93V607H24V639H473V483H437Z" glyph-name="F" horiz-adv-x="503" unicode="F"/><glyph d="M340 314H535V63Q512 36 462 12.5Q412 -11 340 -11Q270 -11 214 11Q158 33 119 75Q80 117 59 179Q38 241 38 321V323Q38 403 60.5 464Q83 525 121.5 566.5Q160 608 211.5 629Q263 650 322 650Q399 650 444 631Q489 612 517 585V483H481V576Q450 594 412 605Q374 616 322 616Q267 616 222 597Q177 578 144.5 542Q112 506 94.5 453.5Q77 401 77 334V318Q77 172 145.5 96.5Q214 21 341 21Q389 21 428.5 34.5Q468 48 498 68V282H340Z" glyph-name="G" horiz-adv-x="586" unicode="G"/><glyph d="M400 30H492V310H130V30H222V0H24V30H93V607H24V639H222V607H130V344H492V607H400V639H598V607H529V30H598V0H400Z" glyph-name="H" horiz-adv-x="622" unicode="H"/><glyph d="M24 639H210V607H136V30H210V0H24V30H99V607H24Z" glyph-name="I" horiz-adv-x="234" unicode="I"/><glyph d="M24 639H210V607H136V30H210V0H24V30H99V607H24ZM163 781H220L130 688H94Z" glyph-name="Iacute" horiz-adv-x="234" unicode="Í"/><glyph d="M24 639H210V607H136V30H210V0H24V30H99V607H24ZM202 681 118 752 34 681H0L89 778H147L236 681Z" glyph-name="Icircumflex" horiz-adv-x="234" unicode="Î"/><glyph d="M24 639H210V607H136V30H210V0H24V30H99V607H24ZM44 690Q32 690 23 698Q14 706 14 719Q14 732 23 740.5Q32 749 44 749Q57 749 66 740.5Q75 732 75 719Q75 706 66 698Q57 690 44 690ZM192 690Q179 690 170 698Q161 706 161 719Q161 732 170 740.5Q179 749 192 749Q204 749 213 740.5Q222 732 222 719Q222 706 213 698Q204 690 192 690Z" glyph-name="Idieresis" horiz-adv-x="234" unicode="Ï"/><glyph d="M24 639H210V607H136V30H210V0H24V30H99V607H24ZM19 781H76L145 688H109Z" glyph-name="Igrave" horiz-adv-x="234" unicode="Ì"/><glyph d="M129 639H322V607H253V130Q253 64 220 28.5Q187 -7 127 -7Q83 -7 56.5 5.5Q30 18 18 32V58Q35 46 56.5 35.5Q78 25 120 25Q216 25 216 140V607H129Z" glyph-name="J" horiz-adv-x="346" unicode="J"/><glyph d="M344 639H523V607H475L182 333L473 30H529V0H338V30H427L136 333L430 607H344ZM24 639H222V607H130V30H222V0H24V30H93V607H24Z" glyph-name="K" horiz-adv-x="551" unicode="K"/><glyph d="M24 30H93V607H24V639H217V607H130V33H427V166H463V0H24Z" glyph-name="L" horiz-adv-x="494" unicode="L"/><glyph d="M24 30H93V226L19 186V220L93 260V607H24V639H217V607H130V280L348 399V365L130 246V33H427V166H463V0H24Z" glyph-name="Lslash" horiz-adv-x="494" unicode="Ł"/><glyph d="M559 30H649V617L419 0H358L128 617V30H218V0H24V30H93V607H24V639H157L389 15L622 639H755V607H686V30H755V0H559Z" glyph-name="M" horiz-adv-x="779" unicode="M"/><glyph d="M421 639H621V607H552V0H488L128 617V30H227V0H24V30H93V607H24V639H157L517 23V607H421Z" glyph-name="N" horiz-adv-x="645" unicode="N"/><glyph d="M221 688Q213 720 227 739.5Q241 759 270 759Q285 759 300 754.5Q315 750 329 744.5Q343 739 355.5 734.5Q368 730 378 730Q392 730 398.5 738.5Q405 747 403 767H427Q435 735 422 715.5Q409 696 382 696Q368 696 353 700.5Q338 705 323 710.5Q308 716 294.5 720.5Q281 725 271 725Q258 725 250.5 716.5Q243 708 245 688ZM421 639H621V607H552V0H488L128 617V30H227V0H24V30H93V607H24V639H157L517 23V607H421Z" glyph-name="Ntilde" horiz-adv-x="645" unicode="Ñ"/><glyph d="M315 21Q432 21 493 101Q554 181 554 330V346Q554 407 540.5 457Q527 507 497.5 542Q468 577 423 596.5Q378 616 315 616Q252 616 207 596.5Q162 577 133 542Q104 507 90.5 457Q77 407 77 346V330Q77 181 138 101Q199 21 315 21ZM315 -11Q253 -11 202.5 11Q152 33 115 75.5Q78 118 58 182Q38 246 38 330V332Q38 482 107.5 566Q177 650 315 650Q453 650 523 566Q593 482 593 332V330Q593 246 573 182Q553 118 516.5 75.5Q480 33 429 11Q378 -11 315 -11Z" glyph-name="O" horiz-adv-x="631" unicode="O"/><glyph d="M336 0Q258 0 202 22.5Q146 45 109.5 88Q73 131 55.5 193Q38 255 38 334V336Q38 481 111 560Q184 639 332 639H789V483H753V604H459V344H727V310H459V33H763V156H799V0ZM77 332Q77 259 91 203Q105 147 137 109.5Q169 72 220 52.5Q271 33 346 33H422V604H339Q267 604 217 586.5Q167 569 136 536Q105 503 91 454.5Q77 406 77 345Z" glyph-name="OE" horiz-adv-x="837" unicode="Œ"/><glyph d="M360 781H417L327 688H291ZM315 21Q432 21 493 101Q554 181 554 330V346Q554 407 540.5 457Q527 507 497.5 542Q468 577 423 596.5Q378 616 315 616Q252 616 207 596.5Q162 577 133 542Q104 507 90.5 457Q77 407 77 346V330Q77 181 138 101Q199 21 315 21ZM315 -11Q253 -11 202.5 11Q152 33 115 75.5Q78 118 58 182Q38 246 38 330V332Q38 482 107.5 566Q177 650 315 650Q453 650 523 566Q593 482 593 332V330Q593 246 573 182Q553 118 516.5 75.5Q480 33 429 11Q378 -11 315 -11Z" glyph-name="Oacute" horiz-adv-x="631" unicode="Ó"/><glyph d="M399 681 315 752 231 681H197L286 778H344L433 681ZM315 21Q432 21 493 101Q554 181 554 330V346Q554 407 540.5 457Q527 507 497.5 542Q468 577 423 596.5Q378 616 315 616Q252 616 207 596.5Q162 577 133 542Q104 507 90.5 457Q77 407 77 346V330Q77 181 138 101Q199 21 315 21ZM315 -11Q253 -11 202.5 11Q152 33 115 75.5Q78 118 58 182Q38 246 38 330V332Q38 482 107.5 566Q177 650 315 650Q453 650 523 566Q593 482 593 332V330Q593 246 573 182Q553 118 516.5 75.5Q480 33 429 11Q378 -11 315 -11Z" glyph-name="Ocircumflex" horiz-adv-x="631" unicode="Ô"/><glyph d="M241 690Q229 690 220 698Q211 706 211 719Q211 732 220 740.5Q229 749 241 749Q254 749 263 740.5Q272 732 272 719Q272 706 263 698Q254 690 241 690ZM389 690Q376 690 367 698Q358 706 358 719Q358 732 367 740.5Q376 749 389 749Q401 749 410 740.5Q419 732 419 719Q419 706 410 698Q401 690 389 690ZM315 21Q432 21 493 101Q554 181 554 330V346Q554 407 540.5 457Q527 507 497.5 542Q468 577 423 596.5Q378 616 315 616Q252 616 207 596.5Q162 577 133 542Q104 507 90.5 457Q77 407 77 346V330Q77 181 138 101Q199 21 315 21ZM315 -11Q253 -11 202.5 11Q152 33 115 75.5Q78 118 58 182Q38 246 38 330V332Q38 482 107.5 566Q177 650 315 650Q453 650 523 566Q593 482 593 332V330Q593 246 573 182Q553 118 516.5 75.5Q480 33 429 11Q378 -11 315 -11Z" glyph-name="Odieresis" horiz-adv-x="631" unicode="Ö"/><glyph d="M216 781H273L342 688H306ZM315 21Q432 21 493 101Q554 181 554 330V346Q554 407 540.5 457Q527 507 497.5 542Q468 577 423 596.5Q378 616 315 616Q252 616 207 596.5Q162 577 133 542Q104 507 90.5 457Q77 407 77 346V330Q77 181 138 101Q199 21 315 21ZM315 -11Q253 -11 202.5 11Q152 33 115 75.5Q78 118 58 182Q38 246 38 330V332Q38 482 107.5 566Q177 650 315 650Q453 650 523 566Q593 482 593 332V330Q593 246 573 182Q553 118 516.5 75.5Q480 33 429 11Q378 -11 315 -11Z" glyph-name="Ograve" horiz-adv-x="631" unicode="Ò"/><glyph d="M315 -11Q202 -11 132 55L75 -19H36L111 78Q76 121 57 184Q38 247 38 330V332Q38 482 107.5 566Q177 650 315 650Q375 650 421 634Q467 618 501 588L554 656H593L523 565Q593 483 593 332V330Q593 246 573.5 182Q554 118 518 75.5Q482 33 430.5 11Q379 -11 315 -11ZM77 330Q77 185 132 106L481 561Q452 587 411 601.5Q370 616 315 616Q252 616 207 596.5Q162 577 133 542Q104 507 90.5 457Q77 407 77 346ZM315 21Q434 21 494 101Q554 181 554 330V346Q554 406 541.5 454.5Q529 503 502 538L152 82Q210 21 315 21Z" glyph-name="Oslash" horiz-adv-x="631" unicode="Ø"/><glyph d="M212 688Q204 720 218 739.5Q232 759 261 759Q276 759 291 754.5Q306 750 320 744.5Q334 739 346.5 734.5Q359 730 369 730Q383 730 389.5 738.5Q396 747 394 767H418Q426 735 413 715.5Q400 696 373 696Q359 696 344 700.5Q329 705 314 710.5Q299 716 285.5 720.5Q272 725 262 725Q249 725 241.5 716.5Q234 708 236 688ZM315 21Q432 21 493 101Q554 181 554 330V346Q554 407 540.5 457Q527 507 497.5 542Q468 577 423 596.5Q378 616 315 616Q252 616 207 596.5Q162 577 133 542Q104 507 90.5 457Q77 407 77 346V330Q77 181 138 101Q199 21 315 21ZM315 -11Q253 -11 202.5 11Q152 33 115 75.5Q78 118 58 182Q38 246 38 330V332Q38 482 107.5 566Q177 650 315 650Q453 650 523 566Q593 482 593 332V330Q593 246 573 182Q553 118 516.5 75.5Q480 33 429 11Q378 -11 315 -11Z" glyph-name="Otilde" horiz-adv-x="631" unicode="Õ"/><glyph d="M26 639H299Q386 639 432 589.5Q478 540 478 456Q478 366 422 321Q366 276 273 276H132V30H227V0H24V30H95V607H26ZM268 310Q359 310 399.5 348Q440 386 440 457Q440 530 406 567Q372 604 290 604H132V310Z" glyph-name="P" horiz-adv-x="507" unicode="P"/><glyph d="M319 -11Q257 -11 206.5 11Q156 33 119 75.5Q82 118 62 182Q42 246 42 330V332Q42 482 111.5 566Q181 650 319 650Q457 650 527 566Q597 482 597 332V330Q597 223 565.5 149.5Q534 76 477 36L548 -61H626V-90H527L448 18Q392 -11 319 -11ZM319 21Q381 21 429 44L318 199H360L458 62Q558 136 558 330V346Q558 407 544.5 457Q531 507 501.5 542Q472 577 427 596.5Q382 616 319 616Q256 616 211 596.5Q166 577 137 542Q108 507 94.5 457Q81 407 81 346V330Q81 181 141 101Q201 21 319 21Z" glyph-name="Q" horiz-adv-x="639" unicode="Q"/><glyph d="M24 639H283Q332 639 367.5 626.5Q403 614 426 591.5Q449 569 460 538.5Q471 508 471 472Q471 426 457.5 393.5Q444 361 419 340Q394 319 359 309.5Q324 300 282 300H197L453 30H512V0H434L130 320V30H220V0H24V30H93V607H24ZM271 332Q358 332 395.5 367.5Q433 403 433 471Q433 502 425 526.5Q417 551 398 568Q379 585 349 594.5Q319 604 274 604H130V332Z" glyph-name="R" horiz-adv-x="531" unicode="R"/><glyph d="M375 579Q349 595 315 605.5Q281 616 239 616Q207 616 178.5 610Q150 604 128.5 588.5Q107 573 94 546.5Q81 520 81 478Q81 438 92.5 411.5Q104 385 139 369Q160 359 187 354.5Q214 350 243 346.5Q272 343 302.5 337Q333 331 362 318Q400 301 420.5 268.5Q441 236 441 170Q441 123 424 89Q407 55 379 32.5Q351 10 313.5 -0.5Q276 -11 236 -11Q193 -11 159.5 -3.5Q126 4 101 14.5Q76 25 58.5 37Q41 49 31 58V154H67V70Q96 49 135.5 35Q175 21 236 21Q267 21 297 29.5Q327 38 351 56Q375 74 389.5 103Q404 132 404 173Q404 214 392.5 241Q381 268 349 284Q325 296 295.5 301.5Q266 307 236 311Q206 315 177.5 320Q149 325 126 335Q87 352 65 387.5Q43 423 43 480Q43 523 59 555Q75 587 102 608Q129 629 163.5 639.5Q198 650 236 650Q305 650 346.5 631.5Q388 613 411 593V483H375Z" glyph-name="S" horiz-adv-x="477" unicode="S"/><glyph d="M155 778 239 707 323 778H357L268 681H210L121 778ZM375 579Q349 595 315 605.5Q281 616 239 616Q207 616 178.5 610Q150 604 128.5 588.5Q107 573 94 546.5Q81 520 81 478Q81 438 92.5 411.5Q104 385 139 369Q160 359 187 354.5Q214 350 243 346.5Q272 343 302.5 337Q333 331 362 318Q400 301 420.5 268.5Q441 236 441 170Q441 123 424 89Q407 55 379 32.5Q351 10 313.5 -0.5Q276 -11 236 -11Q193 -11 159.5 -3.5Q126 4 101 14.5Q76 25 58.5 37Q41 49 31 58V154H67V70Q96 49 135.5 35Q175 21 236 21Q267 21 297 29.5Q327 38 351 56Q375 74 389.5 103Q404 132 404 173Q404 214 392.5 241Q381 268 349 284Q325 296 295.5 301.5Q266 307 236 311Q206 315 177.5 320Q149 325 126 335Q87 352 65 387.5Q43 423 43 480Q43 523 59 555Q75 587 102 608Q129 629 163.5 639.5Q198 650 236 650Q305 650 346.5 631.5Q388 613 411 593V483H375Z" glyph-name="Scaron" horiz-adv-x="477" unicode="Š"/><glyph d="M475 604H290V30H383V0H160V30H253V604H68V483H32V639H511V483H475Z" glyph-name="T" horiz-adv-x="543" unicode="T"/><glyph d="M26 639H227V607H132V497H302Q393 497 437.5 453.5Q482 410 482 325Q482 238 426.5 196Q371 154 276 154H132V30H227V0H24V30H95V607H26ZM272 188Q363 188 403.5 222.5Q444 257 444 325Q444 395 410 428.5Q376 462 294 462H132V188Z" glyph-name="Thorn" horiz-adv-x="509" unicode="Þ"/><glyph d="M431 639H620V607H557V227Q557 153 536.5 106.5Q516 60 482.5 34Q449 8 406.5 -1.5Q364 -11 321 -11Q278 -11 236 -1.5Q194 8 160.5 34.5Q127 61 106 107.5Q85 154 85 228V607H22V639H211V607H122V220Q122 160 138 121Q154 82 181.5 60Q209 38 245 29.5Q281 21 321 21Q361 21 397 29.5Q433 38 460.5 60Q488 82 504 120.5Q520 159 520 219V607H431Z" glyph-name="U" horiz-adv-x="642" unicode="U"/><glyph d="M367 781H424L334 688H298ZM431 639H620V607H557V227Q557 153 536.5 106.5Q516 60 482.5 34Q449 8 406.5 -1.5Q364 -11 321 -11Q278 -11 236 -1.5Q194 8 160.5 34.5Q127 61 106 107.5Q85 154 85 228V607H22V639H211V607H122V220Q122 160 138 121Q154 82 181.5 60Q209 38 245 29.5Q281 21 321 21Q361 21 397 29.5Q433 38 460.5 60Q488 82 504 120.5Q520 159 520 219V607H431Z" glyph-name="Uacute" horiz-adv-x="642" unicode="Ú"/><glyph d="M406 681 322 752 238 681H204L293 778H351L440 681ZM431 639H620V607H557V227Q557 153 536.5 106.5Q516 60 482.5 34Q449 8 406.5 -1.5Q364 -11 321 -11Q278 -11 236 -1.5Q194 8 160.5 34.5Q127 61 106 107.5Q85 154 85 228V607H22V639H211V607H122V220Q122 160 138 121Q154 82 181.5 60Q209 38 245 29.5Q281 21 321 21Q361 21 397 29.5Q433 38 460.5 60Q488 82 504 120.5Q520 159 520 219V607H431Z" glyph-name="Ucircumflex" horiz-adv-x="642" unicode="Û"/><glyph d="M431 639H620V607H557V227Q557 153 536.5 106.5Q516 60 482.5 34Q449 8 406.5 -1.5Q364 -11 321 -11Q278 -11 236 -1.5Q194 8 160.5 34.5Q127 61 106 107.5Q85 154 85 228V607H22V639H211V607H122V220Q122 160 138 121Q154 82 181.5 60Q209 38 245 29.5Q281 21 321 21Q361 21 397 29.5Q433 38 460.5 60Q488 82 504 120.5Q520 159 520 219V607H431ZM248 690Q236 690 227 698Q218 706 218 719Q218 732 227 740.5Q236 749 248 749Q261 749 270 740.5Q279 732 279 719Q279 706 270 698Q261 690 248 690ZM396 690Q383 690 374 698Q365 706 365 719Q365 732 374 740.5Q383 749 396 749Q408 749 417 740.5Q426 732 426 719Q426 706 417 698Q408 690 396 690Z" glyph-name="Udieresis" horiz-adv-x="642" unicode="Ü"/><glyph d="M223 781H280L349 688H313ZM431 639H620V607H557V227Q557 153 536.5 106.5Q516 60 482.5 34Q449 8 406.5 -1.5Q364 -11 321 -11Q278 -11 236 -1.5Q194 8 160.5 34.5Q127 61 106 107.5Q85 154 85 228V607H22V639H211V607H122V220Q122 160 138 121Q154 82 181.5 60Q209 38 245 29.5Q281 21 321 21Q361 21 397 29.5Q433 38 460.5 60Q488 82 504 120.5Q520 159 520 219V607H431Z" glyph-name="Ugrave" horiz-adv-x="642" unicode="Ù"/><glyph d="M413 639H601V606H552L339 0H278L65 606H16V639H199V606H103L309 18L515 606H413Z" glyph-name="V" horiz-adv-x="617" unicode="V"/><glyph d="M422 586 262 0H202L61 606H16V639H200V606H98L234 21L403 639H444L613 21L747 606H640V639H829V606H783L644 0H583Z" glyph-name="W" horiz-adv-x="845" unicode="W"/><glyph d="M383 30H485L299 313L112 30H217V0H22V30H74L273 333L89 607H38V639H216V607H131L302 353L474 607H384V639H565V607H512L328 333L527 30H578V0H383Z" glyph-name="X" horiz-adv-x="600" unicode="X"/><glyph d="M14 639H202V606H103L284 276L462 606H362V639H551V606H499L301 242V30H394V0H171V30H264V242L65 606H14Z" glyph-name="Y" horiz-adv-x="565" unicode="Y"/><glyph d="M14 639H202V606H103L284 276L462 606H362V639H551V606H499L301 242V30H394V0H171V30H264V242L65 606H14ZM328 781H385L295 688H259Z" glyph-name="Yacute" horiz-adv-x="565" unicode="Ý"/><glyph d="M14 639H202V606H103L284 276L462 606H362V639H551V606H499L301 242V30H394V0H171V30H264V242L65 606H14ZM209 690Q197 690 188 698Q179 706 179 719Q179 732 188 740.5Q197 749 209 749Q222 749 231 740.5Q240 732 240 719Q240 706 231 698Q222 690 209 690ZM357 690Q344 690 335 698Q326 706 326 719Q326 732 335 740.5Q344 749 357 749Q369 749 378 740.5Q387 732 387 719Q387 706 378 698Q369 690 357 690Z" glyph-name="Ydieresis" horiz-adv-x="565" unicode="Ÿ"/><glyph d="M53 639H486V584L63 33H455V156H491V0H33V53L456 604H89V483H53Z" glyph-name="Z" horiz-adv-x="526" unicode="Z"/><glyph d="M185 778 269 707 353 778H387L298 681H240L151 778ZM53 639H486V584L63 33H455V156H491V0H33V53L456 604H89V483H53Z" glyph-name="Zcaron" horiz-adv-x="526" unicode="Ž"/><glyph d="M54 422Q73 444 110.5 462.5Q148 481 211 481Q281 481 325.5 447Q370 413 370 340V89Q370 52 380.5 38Q391 24 413 24Q428 24 440 27V5Q435 2 427.5 -0.5Q420 -3 407 -3Q374 -3 355 18Q336 39 336 85V115Q325 60 286 26Q247 -8 176 -8Q110 -8 69.5 24Q29 56 29 116V117Q29 148 41 169Q53 190 75 204.5Q97 219 127.5 229Q158 239 195 247Q235 256 262 264.5Q289 273 305.5 284Q322 295 329 309.5Q336 324 336 344V345Q336 376 326 396.5Q316 417 299 429Q282 441 259 446Q236 451 210 451Q168 451 138 440Q108 429 87 415V344H54ZM178 19Q208 19 236.5 28Q265 37 287 58.5Q309 80 322.5 115Q336 150 336 202V282Q322 264 291 250Q260 236 197 220Q160 211 135 201.5Q110 192 94.5 180.5Q79 169 72 153.5Q65 138 65 117V114Q65 72 93.5 45.5Q122 19 178 19Z" glyph-name="a" horiz-adv-x="452" unicode="a"/><glyph d="M54 422Q73 444 110.5 462.5Q148 481 211 481Q281 481 325.5 447Q370 413 370 340V89Q370 52 380.5 38Q391 24 413 24Q428 24 440 27V5Q435 2 427.5 -0.5Q420 -3 407 -3Q374 -3 355 18Q336 39 336 85V115Q325 60 286 26Q247 -8 176 -8Q110 -8 69.5 24Q29 56 29 116V117Q29 148 41 169Q53 190 75 204.5Q97 219 127.5 229Q158 239 195 247Q235 256 262 264.5Q289 273 305.5 284Q322 295 329 309.5Q336 324 336 344V345Q336 376 326 396.5Q316 417 299 429Q282 441 259 446Q236 451 210 451Q168 451 138 440Q108 429 87 415V344H54ZM178 19Q208 19 236.5 28Q265 37 287 58.5Q309 80 322.5 115Q336 150 336 202V282Q322 264 291 250Q260 236 197 220Q160 211 135 201.5Q110 192 94.5 180.5Q79 169 72 153.5Q65 138 65 117V114Q65 72 93.5 45.5Q122 19 178 19ZM269 660H322L216 547H182Z" glyph-name="aacute" horiz-adv-x="452" unicode="á"/><glyph d="M54 422Q73 444 110.5 462.5Q148 481 211 481Q281 481 325.5 447Q370 413 370 340V89Q370 52 380.5 38Q391 24 413 24Q428 24 440 27V5Q435 2 427.5 -0.5Q420 -3 407 -3Q374 -3 355 18Q336 39 336 85V115Q325 60 286 26Q247 -8 176 -8Q110 -8 69.5 24Q29 56 29 116V117Q29 148 41 169Q53 190 75 204.5Q97 219 127.5 229Q158 239 195 247Q235 256 262 264.5Q289 273 305.5 284Q322 295 329 309.5Q336 324 336 344V345Q336 376 326 396.5Q316 417 299 429Q282 441 259 446Q236 451 210 451Q168 451 138 440Q108 429 87 415V344H54ZM178 19Q208 19 236.5 28Q265 37 287 58.5Q309 80 322.5 115Q336 150 336 202V282Q322 264 291 250Q260 236 197 220Q160 211 135 201.5Q110 192 94.5 180.5Q79 169 72 153.5Q65 138 65 117V114Q65 72 93.5 45.5Q122 19 178 19ZM184 660H238L321 547H288L211 636L134 547H101Z" glyph-name="acircumflex" horiz-adv-x="452" unicode="â"/><glyph d="M258 660H311L205 547H171Z" glyph-name="acute" horiz-adv-x="400" unicode="´"/><glyph d="M235 781H292L202 688H166Z" glyph-name="acute.uc" horiz-adv-x="400"/><glyph d="M54 422Q73 444 110.5 462.5Q148 481 211 481Q281 481 325.5 447Q370 413 370 340V89Q370 52 380.5 38Q391 24 413 24Q428 24 440 27V5Q435 2 427.5 -0.5Q420 -3 407 -3Q374 -3 355 18Q336 39 336 85V115Q325 60 286 26Q247 -8 176 -8Q110 -8 69.5 24Q29 56 29 116V117Q29 148 41 169Q53 190 75 204.5Q97 219 127.5 229Q158 239 195 247Q235 256 262 264.5Q289 273 305.5 284Q322 295 329 309.5Q336 324 336 344V345Q336 376 326 396.5Q316 417 299 429Q282 441 259 446Q236 451 210 451Q168 451 138 440Q108 429 87 415V344H54ZM178 19Q208 19 236.5 28Q265 37 287 58.5Q309 80 322.5 115Q336 150 336 202V282Q322 264 291 250Q260 236 197 220Q160 211 135 201.5Q110 192 94.5 180.5Q79 169 72 153.5Q65 138 65 117V114Q65 72 93.5 45.5Q122 19 178 19ZM143 572Q131 572 122 580Q113 588 113 601Q113 614 122 622.5Q131 631 143 631Q156 631 165 622.5Q174 614 174 601Q174 588 165 580Q156 572 143 572ZM279 572Q266 572 257 580Q248 588 248 601Q248 614 257 622.5Q266 631 279 631Q291 631 300 622.5Q309 614 309 601Q309 588 300 580Q291 572 279 572Z" glyph-name="adieresis" horiz-adv-x="452" unicode="ä"/><glyph d="M173 -8Q142 -8 116 0.5Q90 9 70.5 24.5Q51 40 40 63Q29 86 29 116V117Q29 148 41 169Q53 190 75 204.5Q97 219 127.5 229Q158 239 195 247Q235 256 262 264.5Q289 273 305.5 284Q322 295 329 309.5Q336 324 336 344V345Q336 376 326 396.5Q316 417 299 429Q282 441 259.5 446Q237 451 212 451Q170 451 140 441Q110 431 87 416V344H54V422Q76 446 113.5 463.5Q151 481 213 481Q278 481 318 450Q358 419 363 356Q386 414 431.5 447.5Q477 481 542 481Q585 481 617.5 467Q650 453 672 427.5Q694 402 704.5 366.5Q715 331 715 288Q715 274 714 259.5Q713 245 711 232H369Q369 134 414 77.5Q459 21 558 21Q609 21 646 36Q683 51 709 74V45Q703 37 689 28Q675 19 655.5 11Q636 3 611 -2.5Q586 -8 557 -8Q474 -8 422 29.5Q370 67 349 137Q337 68 292 30Q247 -8 173 -8ZM542 453Q505 453 473.5 439Q442 425 419 399.5Q396 374 382.5 337.5Q369 301 369 257H681V261Q681 360 648 406.5Q615 453 542 453ZM175 19Q206 19 235.5 28.5Q265 38 287 59.5Q309 81 322.5 116Q336 151 336 203V282Q322 264 291.5 250Q261 236 197 220Q161 211 135.5 201.5Q110 192 94.5 180.5Q79 169 72 154Q65 139 65 118V115Q65 73 93 46Q121 19 175 19Z" glyph-name="ae" horiz-adv-x="749" unicode="æ"/><glyph d="M54 422Q73 444 110.5 462.5Q148 481 211 481Q281 481 325.5 447Q370 413 370 340V89Q370 52 380.5 38Q391 24 413 24Q428 24 440 27V5Q435 2 427.5 -0.5Q420 -3 407 -3Q374 -3 355 18Q336 39 336 85V115Q325 60 286 26Q247 -8 176 -8Q110 -8 69.5 24Q29 56 29 116V117Q29 148 41 169Q53 190 75 204.5Q97 219 127.5 229Q158 239 195 247Q235 256 262 264.5Q289 273 305.5 284Q322 295 329 309.5Q336 324 336 344V345Q336 376 326 396.5Q316 417 299 429Q282 441 259 446Q236 451 210 451Q168 451 138 440Q108 429 87 415V344H54ZM178 19Q208 19 236.5 28Q265 37 287 58.5Q309 80 322.5 115Q336 150 336 202V282Q322 264 291 250Q260 236 197 220Q160 211 135 201.5Q110 192 94.5 180.5Q79 169 72 153.5Q65 138 65 117V114Q65 72 93.5 45.5Q122 19 178 19ZM100 660H153L240 547H206Z" glyph-name="agrave" horiz-adv-x="452" unicode="à"/><glyph d="M219 -9Q174 -9 138.5 4.5Q103 18 79 41.5Q55 65 42.5 96.5Q30 128 30 165Q30 202 43.5 231Q57 260 80 282.5Q103 305 133.5 322.5Q164 340 197 354Q166 386 144 426.5Q122 467 122 514Q122 543 133 568Q144 593 163 611Q182 629 207.5 639.5Q233 650 262 650Q287 650 311 641.5Q335 633 354 616.5Q373 600 384 575Q395 550 395 517Q395 456 355 415Q315 374 249 345L401 138Q424 178 442 230Q460 282 477 347H512Q492 275 470.5 215.5Q449 156 421 111L481 30H536V0H460L400 81Q366 37 322.5 14Q279 -9 219 -9ZM220 19Q272 19 311 41Q350 63 381 107L217 332Q188 320 161.5 305Q135 290 114.5 270Q94 250 81.5 224.5Q69 199 69 165Q69 134 78 107.5Q87 81 106 61.5Q125 42 153.5 30.5Q182 19 220 19ZM157 513Q157 474 177 436.5Q197 399 230 368Q293 394 327.5 431Q362 468 362 517Q362 569 333 594Q304 619 262 619Q214 619 185.5 590Q157 561 157 513Z" glyph-name="ampersand" horiz-adv-x="558" unicode="&amp;"/><glyph d="M57 218Q59 252 75 272.5Q91 293 126 293Q144 293 171 288.5Q198 284 227 278.5Q256 273 283.5 268.5Q311 264 331 264Q351 264 358.5 274.5Q366 285 368 307H400Q398 273 383 252.5Q368 232 334 232Q313 232 284.5 236.5Q256 241 227 247Q198 253 172 257.5Q146 262 129 262Q112 262 101.5 251Q91 240 89 218ZM57 326Q59 360 73.5 381Q88 402 123 402Q141 402 168.5 397.5Q196 393 225.5 387Q255 381 283 376.5Q311 372 331 372Q351 372 358.5 382Q366 392 368 415H400Q398 380 383 360Q368 340 334 340Q313 340 284 344.5Q255 349 225.5 354.5Q196 360 169.5 364.5Q143 369 126 369Q92 369 89 326Z" glyph-name="approxequal" horiz-adv-x="454" unicode="≈"/><glyph d="M54 422Q73 444 110.5 462.5Q148 481 211 481Q281 481 325.5 447Q370 413 370 340V89Q370 52 380.5 38Q391 24 413 24Q428 24 440 27V5Q435 2 427.5 -0.5Q420 -3 407 -3Q374 -3 355 18Q336 39 336 85V115Q325 60 286 26Q247 -8 176 -8Q110 -8 69.5 24Q29 56 29 116V117Q29 148 41 169Q53 190 75 204.5Q97 219 127.5 229Q158 239 195 247Q235 256 262 264.5Q289 273 305.5 284Q322 295 329 309.5Q336 324 336 344V345Q336 376 326 396.5Q316 417 299 429Q282 441 259 446Q236 451 210 451Q168 451 138 440Q108 429 87 415V344H54ZM178 19Q208 19 236.5 28Q265 37 287 58.5Q309 80 322.5 115Q336 150 336 202V282Q322 264 291 250Q260 236 197 220Q160 211 135 201.5Q110 192 94.5 180.5Q79 169 72 153.5Q65 138 65 117V114Q65 72 93.5 45.5Q122 19 178 19ZM212 569Q231 569 244.5 582Q258 595 258 618Q258 640 244.5 653.5Q231 667 212 667Q194 667 180.5 653.5Q167 640 167 618Q167 595 180.5 582Q194 569 212 569ZM212 545Q180 545 159.5 566Q139 587 139 618Q139 649 159.5 670.5Q180 692 212 692Q244 692 265 670.5Q286 649 286 618Q286 587 265 566Q244 545 212 545Z" glyph-name="aring" horiz-adv-x="452" unicode="å"/><glyph d="M261 445 162 617 63 445H27L136 639H188L297 445Z" glyph-name="asciicircum" horiz-adv-x="324" unicode="^"/><glyph d="M35 237Q27 267 40 287Q53 307 80 307Q94 307 107.5 301.5Q121 296 133.5 290Q146 284 156.5 278.5Q167 273 175 273Q188 273 193.5 281.5Q199 290 197 310H220Q228 280 216.5 260Q205 240 179 240Q166 240 152 245.5Q138 251 124.5 257Q111 263 99.5 268.5Q88 274 81 274Q69 274 62.5 265.5Q56 257 58 237Z" glyph-name="asciitilde" horiz-adv-x="255" unicode="~"/><glyph d="M36 482 123 524 36 566 54 595 133 543 127 639H162L156 543L235 595L253 566L165 524L253 482L235 453L156 505L162 409H127L133 505L54 453Z" glyph-name="asterisk" horiz-adv-x="289" unicode="*"/><glyph d="M385 62Q409 62 434.5 71Q460 80 483 101Q506 122 523.5 156.5Q541 191 549 242L551 255Q557 293 550 324.5Q543 356 525 378.5Q507 401 480 413Q453 425 419 425Q390 425 361.5 413.5Q333 402 310 376.5Q287 351 273 310Q259 269 259 210Q259 138 290.5 100Q322 62 385 62ZM442 640Q516 640 581.5 618Q647 596 695.5 553.5Q744 511 772.5 448.5Q801 386 801 304Q801 241 789 190Q777 139 755.5 104Q734 69 703 50Q672 31 634 31Q605 31 585.5 40.5Q566 50 555 67Q544 84 540.5 107Q537 130 540 157Q532 128 516.5 105Q501 82 480 66.5Q459 51 434 42.5Q409 34 383 34Q314 34 268.5 78Q223 122 223 215Q223 281 242 326.5Q261 372 290 400.5Q319 429 353.5 441.5Q388 454 419 454Q485 454 522 421.5Q559 389 563 330Q567 354 571.5 375.5Q576 397 581 413Q586 431 592 447H616L573 173Q563 110 579 83.5Q595 57 634 57Q696 57 733 122.5Q770 188 770 304Q770 379 744.5 436.5Q719 494 674.5 533Q630 572 570 591.5Q510 611 442 611Q364 611 295.5 583Q227 555 176 503.5Q125 452 95 379Q65 306 65 217Q65 141 88.5 79Q112 17 156 -27.5Q200 -72 263.5 -96.5Q327 -121 408 -121Q493 -121 558.5 -98Q624 -75 668 -41V-69Q632 -100 565 -124.5Q498 -149 403 -149Q321 -149 253 -123.5Q185 -98 136 -50.5Q87 -3 59.5 65Q32 133 32 218Q32 316 65.5 394.5Q99 473 156 527.5Q213 582 287 611Q361 640 442 640Z" glyph-name="at" horiz-adv-x="832" unicode="@"/><glyph d="M54 422Q73 444 110.5 462.5Q148 481 211 481Q281 481 325.5 447Q370 413 370 340V89Q370 52 380.5 38Q391 24 413 24Q428 24 440 27V5Q435 2 427.5 -0.5Q420 -3 407 -3Q374 -3 355 18Q336 39 336 85V115Q325 60 286 26Q247 -8 176 -8Q110 -8 69.5 24Q29 56 29 116V117Q29 148 41 169Q53 190 75 204.5Q97 219 127.5 229Q158 239 195 247Q235 256 262 264.5Q289 273 305.5 284Q322 295 329 309.5Q336 324 336 344V345Q336 376 326 396.5Q316 417 299 429Q282 441 259 446Q236 451 210 451Q168 451 138 440Q108 429 87 415V344H54ZM178 19Q208 19 236.5 28Q265 37 287 58.5Q309 80 322.5 115Q336 150 336 202V282Q322 264 291 250Q260 236 197 220Q160 211 135 201.5Q110 192 94.5 180.5Q79 169 72 153.5Q65 138 65 117V114Q65 72 93.5 45.5Q122 19 178 19ZM116 558Q108 588 121 608Q134 628 162 628Q175 628 189 623.5Q203 619 216 613Q229 607 240.5 602.5Q252 598 260 598Q274 598 279.5 606.5Q285 615 283 635H306Q314 605 302 585Q290 565 264 565Q252 565 237.5 569.5Q223 574 209.5 580Q196 586 183.5 590.5Q171 595 163 595Q150 595 143.5 586.5Q137 578 139 558Z" glyph-name="atilde" horiz-adv-x="452" unicode="ã"/><glyph d="M22 673H124V331Q130 368 148.5 396Q167 424 193 443Q219 462 251 471.5Q283 481 316 481Q361 481 398 465Q435 449 462 419Q489 389 503.5 345.5Q518 302 518 247V245Q518 181 502.5 133.5Q487 86 460 54.5Q433 23 395.5 7.5Q358 -8 314 -8Q279 -8 247.5 3Q216 14 190.5 33.5Q165 53 147.5 80.5Q130 108 124 140Q124 111 122.5 86.5Q121 62 119 42Q116 19 114 0H22V30H89V641H22ZM314 21Q391 21 436.5 75Q482 129 482 242V262Q482 352 436 402Q390 452 309 452Q271 452 237.5 437.5Q204 423 178.5 397Q153 371 138.5 333.5Q124 296 124 250V246Q124 185 141.5 142Q159 99 186.5 72Q214 45 247.5 33Q281 21 314 21Z" glyph-name="b" horiz-adv-x="551" unicode="b"/><glyph d="M51 673 297 -98H262L16 673Z" glyph-name="backslash" horiz-adv-x="296" unicode="\"/><glyph d="M113 -98H79V673H113Z" glyph-name="bar" horiz-adv-x="192" unicode="|"/><glyph d="M66 288Q163 273 163 190Q163 170 158 150Q153 130 147.5 110.5Q142 91 137 71.5Q132 52 132 34Q132 -8 153.5 -39Q175 -70 215 -93V-98H178Q165 -92 150 -81Q135 -70 122.5 -54Q110 -38 102 -17.5Q94 3 94 28Q94 48 99.5 70Q105 92 111.5 113.5Q118 135 123.5 155.5Q129 176 129 194Q129 209 125.5 222Q122 235 112 245Q102 255 82.5 261Q63 267 32 269V310Q63 312 82.5 318Q102 324 112 334Q122 344 125.5 357Q129 370 129 385Q129 403 123.5 423Q118 443 111.5 464Q105 485 99.5 506Q94 527 94 547Q94 572 102 592.5Q110 613 122.5 629Q135 645 150 656Q165 667 178 673H215V668Q175 645 153.5 614Q132 583 132 541Q132 523 137 504Q142 485 147.5 466.5Q153 448 158 428.5Q163 409 163 389Q163 306 66 291Z" glyph-name="braceleft" horiz-adv-x="271" unicode="{"/><glyph d="M205 291Q108 306 108 389Q108 409 113 428.5Q118 448 123.5 466.5Q129 485 134 504Q139 523 139 541Q139 583 117.5 614Q96 645 56 668V673H93Q106 667 121 656Q136 645 148.5 629Q161 613 169 592.5Q177 572 177 547Q177 527 171.5 506Q166 485 159.5 464Q153 443 147.5 423Q142 403 142 385Q142 370 145.5 357Q149 344 159 334Q169 324 188 318Q207 312 239 310V269Q207 267 188 261Q169 255 159 245Q149 235 145.5 222Q142 209 142 194Q142 176 147.5 155.5Q153 135 159.5 113.5Q166 92 171.5 70Q177 48 177 28Q177 3 169 -17.5Q161 -38 148.5 -54Q136 -70 121 -81Q106 -92 93 -98H56V-93Q96 -70 117.5 -39Q139 -8 139 34Q139 52 134 71.5Q129 91 123.5 110.5Q118 130 113 150Q108 170 108 190Q108 273 205 288Z" glyph-name="braceright" horiz-adv-x="271" unicode="}"/><glyph d="M82 673H285V641H118V-68H285V-98H82Z" glyph-name="bracketleft" horiz-adv-x="310" unicode="["/><glyph d="M25 -98V-68H192V641H25V673H228V-98Z" glyph-name="bracketright" horiz-adv-x="310" unicode="]"/><glyph d="M291 650Q292 631 287.5 613Q283 595 271.5 580.5Q260 566 242 557.5Q224 549 199 549Q174 549 156.5 557.5Q139 566 128 580.5Q117 595 112.5 613Q108 631 109 650H137Q136 623 150.5 602.5Q165 582 199 582Q234 582 249 602.5Q264 623 263 650Z" glyph-name="breve" horiz-adv-x="400" unicode="˘"/><glyph d="M293 775Q294 757 288.5 740.5Q283 724 271 711Q259 698 241 690Q223 682 199 682Q175 682 157.5 690Q140 698 128.5 711Q117 724 111.5 740.5Q106 757 107 775H135Q134 752 149 733.5Q164 715 199 715Q234 715 250 733.5Q266 752 265 775Z" glyph-name="breve.uc" horiz-adv-x="400"/><glyph d="M113 275V-98H79V275ZM113 325H79V673H113Z" glyph-name="brokenbar" horiz-adv-x="192" unicode="¦"/><glyph d="M132 194Q114 194 97 201.5Q80 209 67 221.5Q54 234 46 251Q38 268 38 287Q38 306 46 323.5Q54 341 67 354Q80 367 97 374.5Q114 382 132 382Q152 382 169.5 374.5Q187 367 199.5 354Q212 341 219.5 323.5Q227 306 227 287Q227 268 219.5 251Q212 234 199.5 221.5Q187 209 169.5 201.5Q152 194 132 194Z" glyph-name="bullet" horiz-adv-x="265" unicode="•"/><glyph d="M357 427Q336 439 310 446Q284 453 249 453Q214 453 181.5 442Q149 431 123.5 408Q98 385 82.5 349Q67 313 67 262V240Q67 131 115 76Q163 21 247 21Q304 21 338.5 36.5Q373 52 399 76V48Q392 39 380 29.5Q368 20 350 11.5Q332 3 307.5 -2.5Q283 -8 252 -8Q152 -8 91.5 56Q31 120 31 240V244Q31 311 51 356.5Q71 402 102.5 430Q134 458 172.5 469.5Q211 481 249 481Q309 481 342.5 466Q376 451 390 435V348H357Z" glyph-name="c" horiz-adv-x="443" unicode="c"/><glyph d="M123 665 200 576 277 665H310L227 552H173L90 665Z" glyph-name="caron" horiz-adv-x="400" unicode="ˇ"/><glyph d="M116 778 200 707 284 778H318L229 681H171L82 778Z" glyph-name="caron.uc" horiz-adv-x="400"/><glyph d="M357 427Q336 439 310 446Q284 453 249 453Q214 453 181.5 442Q149 431 123.5 408Q98 385 82.5 349Q67 313 67 262V240Q67 131 115 76Q163 21 247 21Q304 21 338.5 36.5Q373 52 399 76V48Q392 39 380 29.5Q368 20 350 11.5Q332 3 307.5 -2.5Q283 -8 252 -8Q232 -8 214 -5V-43Q250 -44 270 -59.5Q290 -75 290 -103Q290 -133 270.5 -147Q251 -161 220 -161Q194 -161 178.5 -153.5Q163 -146 156 -138V-119Q167 -126 180 -130.5Q193 -135 213 -135Q255 -135 255 -102Q255 -83 238.5 -73.5Q222 -64 186 -62V0Q114 19 72.5 80Q31 141 31 240V244Q31 311 51 356.5Q71 402 102.5 430Q134 458 172.5 469.5Q211 481 249 481Q309 481 342.5 466Q376 451 390 435V348H357Z" glyph-name="ccedilla" horiz-adv-x="443" unicode="ç"/><glyph d="M182 0V-43Q218 -44 238 -59.5Q258 -75 258 -103Q258 -133 238.5 -147Q219 -161 188 -161Q162 -161 146.5 -153.5Q131 -146 124 -138V-119Q135 -126 148 -130.5Q161 -135 181 -135Q223 -135 223 -102Q223 -83 206.5 -73.5Q190 -64 154 -62V0Z" glyph-name="cedilla" horiz-adv-x="400" unicode="¸"/><glyph d="M357 427Q343 435 327 441Q311 447 291 450L218 23Q225 22 232 21.5Q239 21 247 21Q304 21 338.5 36.5Q373 52 399 76V48Q392 39 380 29.5Q368 20 350 11.5Q332 3 307.5 -2.5Q283 -8 252 -8Q232 -8 213 -5L196 -107H165L183 1Q112 21 71.5 81.5Q31 142 31 240V244Q31 311 51 356.5Q71 402 102.5 430Q134 458 172.5 469.5Q211 481 249 481H265L281 574H312L295 478Q333 472 356 459.5Q379 447 390 435V348H357ZM67 240Q67 152 99 99Q131 46 188 29L260 453H249Q214 453 181.5 442Q149 431 123.5 408Q98 385 82.5 349Q67 313 67 262Z" glyph-name="cent" horiz-adv-x="427" unicode="¢"/><glyph d="M173 660H227L310 547H277L200 636L123 547H90Z" glyph-name="circumflex" horiz-adv-x="400" unicode="ˆ"/><glyph d="M284 681 200 752 116 681H82L171 778H229L318 681Z" glyph-name="circumflex.uc" horiz-adv-x="400"/><glyph d="M72 -6Q59 -6 49.5 3Q40 12 40 26Q40 40 49.5 49Q59 58 72 58Q85 58 94.5 49Q104 40 104 26Q104 12 94.5 3Q85 -6 72 -6ZM72 288Q59 288 49.5 297Q40 306 40 320Q40 334 49.5 343Q59 352 72 352Q85 352 94.5 343Q104 334 104 320Q104 306 94.5 297Q85 288 72 288Z" glyph-name="colon" horiz-adv-x="138" unicode=":"/><glyph d="M30 -87Q42 -58 46 -31Q50 -4 50 13Q50 24 49 35Q48 46 46 56H86Q88 45 89 37Q90 29 90 15Q90 -5 81 -33Q72 -61 52 -87Z" glyph-name="comma" horiz-adv-x="138" unicode=","/><glyph d="M372 -14Q301 -14 239.5 12Q178 38 133 83Q88 128 62.5 188.5Q37 249 37 317Q37 386 62.5 446.5Q88 507 133 552.5Q178 598 239.5 624.5Q301 651 372 651Q444 651 505.5 624.5Q567 598 611.5 552.5Q656 507 681.5 446.5Q707 386 707 317Q707 249 681.5 188.5Q656 128 611.5 83Q567 38 505.5 12Q444 -14 372 -14ZM372 13Q436 13 491.5 37.5Q547 62 587.5 103.5Q628 145 651 200Q674 255 674 317Q674 379 651 435Q628 491 587.5 533Q547 575 491.5 599.5Q436 624 372 624Q308 624 253 599.5Q198 575 157.5 533Q117 491 93.5 435Q70 379 70 317Q70 255 93.5 200Q117 145 157.5 103.5Q198 62 253 37.5Q308 13 372 13ZM379 132Q299 132 255 184Q211 236 211 328V329Q211 371 221.5 405Q232 439 252.5 464Q273 489 303.5 502.5Q334 516 375 516Q420 516 447 503Q474 490 487 476V411H454V466Q438 474 419 478.5Q400 483 377 483Q309 483 279.5 443.5Q250 404 250 338V324Q250 248 281 205Q312 162 379 162Q402 162 422.5 167.5Q443 173 460 182V238H493V174Q480 160 450 146Q420 132 379 132Z" glyph-name="copyright" horiz-adv-x="744" unicode="©"/><glyph d="M346 673H462V30H527V0H438Q435 19 432 42Q430 62 428.5 86.5Q427 111 427 140Q421 108 403.5 80.5Q386 53 361.5 33.5Q337 14 306 3Q275 -8 241 -8Q196 -8 158 7.5Q120 23 92 54.5Q64 86 48.5 133.5Q33 181 33 245V247Q33 302 48 345.5Q63 389 90.5 419Q118 449 155.5 465Q193 481 238 481Q271 481 302.5 471.5Q334 462 359.5 443Q385 424 403 396Q421 368 427 331V641H346ZM241 21Q272 21 305 33Q338 45 365 72Q392 99 409.5 142Q427 185 427 246V250Q427 296 413 333.5Q399 371 374 397Q349 423 316 437.5Q283 452 245 452Q164 452 116.5 402Q69 352 69 262V242Q69 129 115.5 75Q162 21 241 21Z" glyph-name="d" horiz-adv-x="549" unicode="d"/><glyph d="M144 392H33V422H144V639H176V422H287V392H176V-98H144Z" glyph-name="dagger" horiz-adv-x="320" unicode="†"/><glyph d="M176 392V149H287V119H176V-98H144V119H33V149H144V392H33V422H144V639H176V422H287V392Z" glyph-name="daggerdbl" horiz-adv-x="320" unicode="‡"/><glyph d="M27 541Q27 563 35 583Q43 603 57.5 617.5Q72 632 92 640.5Q112 649 135 649Q158 649 178 640.5Q198 632 212.5 617.5Q227 603 235.5 583Q244 563 244 541Q244 519 235.5 499.5Q227 480 212.5 465.5Q198 451 178 442.5Q158 434 135 434Q112 434 92 442.5Q72 451 57.5 465.5Q43 480 35 499.5Q27 519 27 541ZM60 541Q60 508 81 485.5Q102 463 135 463Q168 463 189.5 485.5Q211 508 211 541Q211 576 189.5 598Q168 620 135 620Q102 620 81 598Q60 576 60 541Z" glyph-name="degree" horiz-adv-x="271" unicode="°"/><glyph d="M132 572Q120 572 111 580Q102 588 102 601Q102 614 111 622.5Q120 631 132 631Q145 631 154 622.5Q163 614 163 601Q163 588 154 580Q145 572 132 572ZM268 572Q255 572 246 580Q237 588 237 601Q237 614 246 622.5Q255 631 268 631Q280 631 289 622.5Q298 614 298 601Q298 588 289 580Q280 572 268 572Z" glyph-name="dieresis" horiz-adv-x="400" unicode="¨"/><glyph d="M126 690Q114 690 105 698Q96 706 96 719Q96 732 105 740.5Q114 749 126 749Q139 749 148 740.5Q157 732 157 719Q157 706 148 698Q139 690 126 690ZM274 690Q261 690 252 698Q243 706 243 719Q243 732 252 740.5Q261 749 274 749Q286 749 295 740.5Q304 732 304 719Q304 706 295 698Q286 690 274 690Z" glyph-name="dieresis.uc" horiz-adv-x="400"/><glyph d="M375 330V299H39V330ZM208 163Q195 163 185.5 172Q176 181 176 195Q176 209 185.5 218Q195 227 208 227Q221 227 230.5 218Q240 209 240 195Q240 181 230.5 172Q221 163 208 163ZM208 402Q195 402 185.5 411Q176 420 176 434Q176 448 185.5 457Q195 466 208 466Q221 466 230.5 457Q240 448 240 434Q240 420 230.5 411Q221 402 208 402Z" glyph-name="divide" horiz-adv-x="414" unicode="÷"/><glyph d="M149 -107 164 -5Q116 5 83 24Q50 43 33 60V156H69V71Q89 57 113 45Q137 33 169 26L212 314Q189 317 166.5 322Q144 327 126 336Q88 355 65.5 389Q43 423 43 480Q43 523 60 555Q77 587 104 608Q131 629 164.5 639.5Q198 650 232 650Q240 650 247.5 649.5Q255 649 262 648L273 718H306L295 644Q334 636 360 621.5Q386 607 403 592V483H367V580Q350 590 331.5 597.5Q313 605 290 610L249 344Q276 340 302.5 334.5Q329 329 354 318Q392 300 412.5 268Q433 236 433 170Q433 123 416.5 89Q400 55 372 32.5Q344 10 307 -0.5Q270 -11 229 -11Q220 -11 212 -10.5Q204 -10 196 -9L182 -107ZM341 285Q321 296 296 301Q271 306 244 310L201 22Q207 21 213.5 21Q220 21 228 21Q262 21 292.5 29.5Q323 38 346 56Q369 74 382.5 103Q396 132 396 173Q396 214 384.5 241Q373 268 341 285ZM139 369Q155 361 175 356Q195 351 217 348L257 615Q251 616 245.5 616Q240 616 235 616Q204 616 176 609Q148 602 127 586Q106 570 93.5 543.5Q81 517 81 478Q81 438 93 412Q105 386 139 369Z" glyph-name="dollar" horiz-adv-x="465" unicode="$"/><glyph d="M200 572Q187 572 178 580.5Q169 589 169 602Q169 615 178 624Q187 633 200 633Q213 633 222 624Q231 615 231 602Q231 589 222 580.5Q213 572 200 572Z" glyph-name="dotaccent" horiz-adv-x="400" unicode="˙"/><glyph d="M200 690Q187 690 178 698.5Q169 707 169 720Q169 733 178 742Q187 751 200 751Q213 751 222 742Q231 733 231 720Q231 707 222 698.5Q213 690 200 690Z" glyph-name="dotaccent.uc" horiz-adv-x="400"/><glyph d="M22 472H127V30H197V0H22V30H92V438H22Z" glyph-name="dotlessi" horiz-adv-x="219" unicode="ı"/><glyph d="M258 -8Q148 -8 89.5 57Q31 122 31 240V241Q31 293 46.5 337.5Q62 382 90 413.5Q118 445 157 463Q196 481 242 481Q286 481 319 467Q352 453 374.5 427.5Q397 402 408 366.5Q419 331 419 288Q419 274 418.5 259.5Q418 245 416 232H68Q68 134 113.5 77.5Q159 21 259 21Q310 21 348.5 36Q387 51 413 74V45Q407 37 393 28Q379 19 359 11Q339 3 313.5 -2.5Q288 -8 258 -8ZM242 453Q205 453 173 439Q141 425 118 399.5Q95 374 81.5 337.5Q68 301 68 257H385V261Q385 360 350.5 406.5Q316 453 242 453Z" glyph-name="e" horiz-adv-x="453" unicode="e"/><glyph d="M295 660H348L242 547H208ZM258 -8Q148 -8 89.5 57Q31 122 31 240V241Q31 293 46.5 337.5Q62 382 90 413.5Q118 445 157 463Q196 481 242 481Q286 481 319 467Q352 453 374.5 427.5Q397 402 408 366.5Q419 331 419 288Q419 274 418.5 259.5Q418 245 416 232H68Q68 134 113.5 77.5Q159 21 259 21Q310 21 348.5 36Q387 51 413 74V45Q407 37 393 28Q379 19 359 11Q339 3 313.5 -2.5Q288 -8 258 -8ZM242 453Q205 453 173 439Q141 425 118 399.5Q95 374 81.5 337.5Q68 301 68 257H385V261Q385 360 350.5 406.5Q316 453 242 453Z" glyph-name="eacute" horiz-adv-x="453" unicode="é"/><glyph d="M210 660H264L347 547H314L237 636L160 547H127ZM258 -8Q148 -8 89.5 57Q31 122 31 240V241Q31 293 46.5 337.5Q62 382 90 413.5Q118 445 157 463Q196 481 242 481Q286 481 319 467Q352 453 374.5 427.5Q397 402 408 366.5Q419 331 419 288Q419 274 418.5 259.5Q418 245 416 232H68Q68 134 113.5 77.5Q159 21 259 21Q310 21 348.5 36Q387 51 413 74V45Q407 37 393 28Q379 19 359 11Q339 3 313.5 -2.5Q288 -8 258 -8ZM242 453Q205 453 173 439Q141 425 118 399.5Q95 374 81.5 337.5Q68 301 68 257H385V261Q385 360 350.5 406.5Q316 453 242 453Z" glyph-name="ecircumflex" horiz-adv-x="453" unicode="ê"/><glyph d="M169 572Q157 572 148 580Q139 588 139 601Q139 614 148 622.5Q157 631 169 631Q182 631 191 622.5Q200 614 200 601Q200 588 191 580Q182 572 169 572ZM305 572Q292 572 283 580Q274 588 274 601Q274 614 283 622.5Q292 631 305 631Q317 631 326 622.5Q335 614 335 601Q335 588 326 580Q317 572 305 572ZM258 -8Q148 -8 89.5 57Q31 122 31 240V241Q31 293 46.5 337.5Q62 382 90 413.5Q118 445 157 463Q196 481 242 481Q286 481 319 467Q352 453 374.5 427.5Q397 402 408 366.5Q419 331 419 288Q419 274 418.5 259.5Q418 245 416 232H68Q68 134 113.5 77.5Q159 21 259 21Q310 21 348.5 36Q387 51 413 74V45Q407 37 393 28Q379 19 359 11Q339 3 313.5 -2.5Q288 -8 258 -8ZM242 453Q205 453 173 439Q141 425 118 399.5Q95 374 81.5 337.5Q68 301 68 257H385V261Q385 360 350.5 406.5Q316 453 242 453Z" glyph-name="edieresis" horiz-adv-x="453" unicode="ë"/><glyph d="M258 -8Q148 -8 89.5 57Q31 122 31 240V241Q31 293 46.5 337.5Q62 382 90 413.5Q118 445 157 463Q196 481 242 481Q286 481 319 467Q352 453 374.5 427.5Q397 402 408 366.5Q419 331 419 288Q419 274 418.5 259.5Q418 245 416 232H68Q68 134 113.5 77.5Q159 21 259 21Q310 21 348.5 36Q387 51 413 74V45Q407 37 393 28Q379 19 359 11Q339 3 313.5 -2.5Q288 -8 258 -8ZM242 453Q205 453 173 439Q141 425 118 399.5Q95 374 81.5 337.5Q68 301 68 257H385V261Q385 360 350.5 406.5Q316 453 242 453ZM126 660H179L266 547H232Z" glyph-name="egrave" horiz-adv-x="453" unicode="è"/><glyph d="M245 -11Q197 -11 157.5 2.5Q118 16 90.5 40Q63 64 48 97Q33 130 33 168V173Q33 239 74.5 282.5Q116 326 188 339Q130 350 94.5 386.5Q59 423 59 486V490Q59 525 72 554.5Q85 584 109.5 605Q134 626 168.5 638Q203 650 246 650Q288 650 322.5 638Q357 626 381 605Q405 584 418 554.5Q431 525 431 491V486Q431 423 395 386.5Q359 350 301 339Q373 326 415.5 283Q458 240 458 174V169Q458 130 443 97Q428 64 400 40Q372 16 332.5 2.5Q293 -11 245 -11ZM245 21Q326 21 372.5 61Q419 101 419 170V181Q419 211 407 237.5Q395 264 372.5 283Q350 302 317.5 313Q285 324 245 324Q162 324 117 283Q72 242 72 181V170Q72 101 118 61Q164 21 245 21ZM245 355Q316 355 355 389Q394 423 394 483V493Q394 549 356 582.5Q318 616 246 616Q174 616 135 582.5Q96 549 96 493V483Q96 423 134.5 389Q173 355 245 355Z" glyph-name="eight" horiz-adv-x="491" unicode="8"/><glyph d="M349 -6Q336 -6 326.5 3Q317 12 317 26Q317 40 326.5 49Q336 58 349 58Q362 58 371.5 49Q381 40 381 26Q381 12 371.5 3Q362 -6 349 -6ZM209 -6Q196 -6 186.5 3Q177 12 177 26Q177 40 186.5 49Q196 58 209 58Q222 58 231.5 49Q241 40 241 26Q241 12 231.5 3Q222 -6 209 -6ZM69 -6Q56 -6 46.5 3Q37 12 37 26Q37 40 46.5 49Q56 58 69 58Q82 58 91.5 49Q101 40 101 26Q101 12 91.5 3Q82 -6 69 -6Z" glyph-name="ellipsis" horiz-adv-x="418" unicode="…"/><glyph d="M34 284H822V254H34Z" glyph-name="emdash" horiz-adv-x="856" unicode="—"/><glyph d="M34 284H466V254H34Z" glyph-name="endash" horiz-adv-x="500" unicode="–"/><glyph d="M404 264V233H42V264ZM404 385V354H42V385Z" glyph-name="equal" horiz-adv-x="446" unicode="="/><glyph d="M83 556 216 613Q186 630 155 643.5Q124 657 95 668V673H150Q174 664 199 652.5Q224 641 249 627L353 672L364 650L275 612Q313 587 348 554.5Q383 522 409.5 479Q436 436 452 383Q468 330 468 265V248Q468 186 451 138Q434 90 404.5 57.5Q375 25 335.5 8.5Q296 -8 250 -8Q204 -8 164 8.5Q124 25 94.5 57Q65 89 48 136Q31 183 31 245V247Q31 300 46 343.5Q61 387 89 417.5Q117 448 155.5 464.5Q194 481 242 481Q268 481 293 476.5Q318 472 340.5 461Q363 450 382.5 431.5Q402 413 417 384L418 385Q392 461 346 512Q300 563 243 598L94 534ZM250 20Q289 20 322.5 33Q356 46 380 73Q404 100 418 142Q432 184 432 241V261Q432 307 418 343Q404 379 379.5 403.5Q355 428 321.5 440.5Q288 453 248 453Q166 453 116.5 402Q67 351 67 261V241Q67 184 81 142Q95 100 119.5 73Q144 46 177.5 33Q211 20 250 20Z" glyph-name="eth" horiz-adv-x="503" unicode="ð"/><glyph d="M108 131H78L71 660H115ZM94 -4Q81 -4 71.5 5Q62 14 62 28Q62 42 71.5 51Q81 60 94 60Q107 60 116.5 51Q126 42 126 28Q126 14 116.5 5Q107 -4 94 -4Z" glyph-name="exclam" horiz-adv-x="188" unicode="!"/><glyph d="M80 414H110L117 -115H73ZM94 549Q107 549 116.5 540Q126 531 126 517Q126 503 116.5 494Q107 485 94 485Q81 485 71.5 494Q62 503 62 517Q62 531 71.5 540Q81 549 94 549Z" glyph-name="exclamdown" horiz-adv-x="188" unicode="¡"/><glyph d="M19 472H89V537Q89 573 98 599.5Q107 626 122.5 643Q138 660 158 668Q178 676 201 676Q230 676 244 668Q258 660 264 651V633Q252 638 240 641.5Q228 645 210 645Q165 645 144.5 619.5Q124 594 124 541V472H264V442H124V30H209V0H22V30H89V442H19Z" glyph-name="f" horiz-adv-x="282" unicode="f"/><glyph d="M207 -8Q138 -8 95.5 13Q53 34 30 58V90Q61 61 103 42.5Q145 24 207 24Q290 24 334 69Q378 114 378 200Q378 275 338 316Q298 357 216 357Q159 357 123.5 344Q88 331 59 312H51V639H393V503H357V604H83V355Q116 374 151 381.5Q186 389 223 389Q314 389 365.5 339Q417 289 417 195Q417 99 361.5 45.5Q306 -8 207 -8Z" glyph-name="five" horiz-adv-x="455" unicode="5"/><glyph d="M115 380 138 561Q145 618 176.5 647Q208 676 253 676Q285 676 301 666.5Q317 657 322 649V629Q311 635 298 640Q285 645 260 645Q184 645 175 564L152 380H286V350H149L88 -146H51L112 350H32V380Z" glyph-name="florin" horiz-adv-x="346" unicode="ƒ"/><glyph d="M359 639V217H448V184H359V30H448V0H220V30H322V184H19V233L299 639ZM47 217H322V618Z" glyph-name="four" horiz-adv-x="472" unicode="4"/><glyph d="M-150 0H-185L278 639H313Z" glyph-name="fraction" horiz-adv-x="128" unicode="⁄"/><glyph d="M243 -152Q178 -152 131.5 -131.5Q85 -111 66 -88V-60Q93 -86 139.5 -104Q186 -122 240 -122Q333 -122 380 -76Q427 -30 427 50V160Q421 127 403.5 99.5Q386 72 361.5 52.5Q337 33 306 22.5Q275 12 241 12Q196 12 158 27Q120 42 92 72.5Q64 103 48.5 148.5Q33 194 33 255V257Q33 310 48 352Q63 394 90.5 422.5Q118 451 155.5 466Q193 481 238 481Q271 481 302 472Q333 463 358.5 445.5Q384 428 402 401.5Q420 375 427 341Q427 366 428.5 389Q430 412 432 431Q435 452 438 472H523V438H462V62Q462 -45 402 -98.5Q342 -152 243 -152ZM241 41Q272 41 305 52.5Q338 64 365 90Q392 116 409.5 156.5Q427 197 427 256V260Q427 304 413 339.5Q399 375 374 400Q349 425 316 438.5Q283 452 245 452Q164 452 116.5 404.5Q69 357 69 272V252Q69 145 115.5 93Q162 41 241 41Z" glyph-name="g" horiz-adv-x="545" unicode="g"/><glyph d="M19 472H89V512Q89 595 137 636.5Q185 678 267 678Q295 678 321.5 671.5Q348 665 368.5 650Q389 635 401.5 611Q414 587 414 552Q414 516 389.5 485.5Q365 455 335 428Q305 401 280.5 376Q256 351 256 325Q256 309 264 298Q272 287 291 279Q306 273 322.5 268.5Q339 264 355.5 260Q372 256 388 251.5Q404 247 418 240Q450 223 468.5 196Q487 169 487 123Q487 64 446 28Q405 -8 338 -8Q290 -8 258.5 6Q227 20 210 34V113H243V42Q263 31 286 25.5Q309 20 338 20Q389 20 420.5 47.5Q452 75 452 123Q452 158 440.5 177.5Q429 197 406 210Q378 225 345 231Q312 237 281 250Q224 273 224 325Q224 356 248 383.5Q272 411 301.5 438Q331 465 355 493.5Q379 522 379 555Q379 606 346.5 628.5Q314 651 265 651Q193 651 158.5 615.5Q124 580 124 511V0H22V30H89V442H19Z" glyph-name="germandbls" horiz-adv-x="507" unicode="ß"/><glyph d="M89 660H142L229 547H195Z" glyph-name="grave" horiz-adv-x="400" unicode="`"/><glyph d="M111 781H168L237 688H201Z" glyph-name="grave.uc" horiz-adv-x="400"/><glyph d="M40 139V172L345 304L40 437V471L372 327V283Z" glyph-name="greater" horiz-adv-x="412" unicode="&gt;"/><glyph d="M372 283 40 139V172L345 304L40 437V471L372 327ZM40 0V31H372V0Z" glyph-name="greaterequal" horiz-adv-x="412" unicode="≥"/><glyph d="M153 396 55 245 153 95H116L19 245L116 396ZM157 245 255 95H218L121 245L218 396H255Z" glyph-name="guillemotleft" horiz-adv-x="276" unicode="«"/><glyph d="M123 95 221 246 123 396H160L257 246L160 95ZM119 246 21 396H58L155 246L58 95H21Z" glyph-name="guillemotright" horiz-adv-x="276" unicode="»"/><glyph d="M164 396 59 245 164 95H126L21 245L126 396Z" glyph-name="guilsinglleft" horiz-adv-x="183" unicode="‹"/><glyph d="M124 246 19 396H57L162 246L57 95H19Z" glyph-name="guilsinglright" horiz-adv-x="183" unicode="›"/><glyph d="M347 30H422V336Q422 393 395 422Q368 451 303 451Q265 451 233 437.5Q201 424 177.5 400Q154 376 139.5 342Q125 308 124 266V30H199V0H22V30H89V641H22V673H124V335Q130 373 148.5 400.5Q167 428 193 446Q219 464 249 472.5Q279 481 309 481Q387 481 422 442Q457 403 457 328V30H518V0H347Z" glyph-name="h" horiz-adv-x="540" unicode="h"/><glyph d="M191 660H238L164 547H135ZM291 660H338L264 547H235Z" glyph-name="hungarumlaut" horiz-adv-x="400" unicode="˝"/><glyph d="M179 781H226L164 688H135ZM279 781H326L264 688H235Z" glyph-name="hungarumlaut.uc" horiz-adv-x="400"/><glyph d="M38 285H184V253H38Z" glyph-name="hyphen" horiz-adv-x="222" unicode="-"/><glyph d="M22 472H127V30H197V0H22V30H92V438H22ZM103 572Q90 572 81 580.5Q72 589 72 602Q72 615 81 624Q90 633 103 633Q116 633 125 624Q134 615 134 602Q134 589 125 580.5Q116 572 103 572Z" glyph-name="i" horiz-adv-x="219" unicode="i"/><glyph d="M148 660H201L95 547H61ZM22 472H127V30H197V0H22V30H92V438H22Z" glyph-name="iacute" horiz-adv-x="219" unicode="í"/><glyph d="M63 660H117L200 547H167L90 636L13 547H-20ZM22 472H127V30H197V0H22V30H92V438H22Z" glyph-name="icircumflex" horiz-adv-x="219" unicode="î"/><glyph d="M31 572Q19 572 10 580Q1 588 1 601Q1 614 10 622.5Q19 631 31 631Q44 631 53 622.5Q62 614 62 601Q62 588 53 580Q44 572 31 572ZM151 572Q138 572 129 580Q120 588 120 601Q120 614 129 622.5Q138 631 151 631Q163 631 172 622.5Q181 614 181 601Q181 588 172 580Q163 572 151 572ZM22 472H127V30H197V0H22V30H92V438H22Z" glyph-name="idieresis" horiz-adv-x="219" unicode="ï"/><glyph d="M22 472H127V30H197V0H22V30H92V438H22ZM-21 660H32L119 547H85Z" glyph-name="igrave" horiz-adv-x="219" unicode="ì"/><glyph d="M18 472H123V-56Q123 -105 98.5 -128Q74 -151 34 -151Q13 -151 -1 -146Q-15 -141 -21 -134V-112Q0 -121 23 -121Q58 -121 73 -104.5Q88 -88 88 -58V438H18ZM99 572Q86 572 77 580.5Q68 589 68 602Q68 615 77 624Q86 633 99 633Q112 633 121 624Q130 615 130 602Q130 589 121 580.5Q112 572 99 572Z" glyph-name="j" horiz-adv-x="190" unicode="j"/><glyph d="M22 673H124V30H199V0H22V30H89V641H22ZM133 244 350 472H417V438H361L176 244L372 30H433V0H355Z" glyph-name="k" horiz-adv-x="453" unicode="k"/><glyph d="M22 673H127V30H197V0H22V30H92V641H22Z" glyph-name="l" horiz-adv-x="219" unicode="l"/><glyph d="M372 471V438L66 305L372 173V139L40 283V327Z" glyph-name="less" horiz-adv-x="412" unicode="&lt;"/><glyph d="M372 471V437L66 304L372 172V139L40 283V327ZM40 31H372V0H40Z" glyph-name="lessequal" horiz-adv-x="412" unicode="≤"/><glyph d="M22 673H127V413L197 480V442L127 375V30H197V0H22V30H92V342L22 275V313L92 380V641H22Z" glyph-name="lslash" horiz-adv-x="219" unicode="ł"/><glyph d="M318 30H392V342Q392 396 368.5 423.5Q345 451 288 451Q253 451 224 437.5Q195 424 173 400Q151 376 138 342Q125 308 124 266V30H198V0H22V30H89V438H22V472H113Q115 452 118 432Q120 415 122 393Q124 371 124 350V335Q130 373 147 400.5Q164 428 187.5 446Q211 464 239 472.5Q267 481 294 481Q363 481 395 444Q427 407 427 335Q433 373 450 400.5Q467 428 490.5 446Q514 464 542 472.5Q570 481 597 481Q666 481 698 443.5Q730 406 730 334V30H791V0H621V30H695V342Q695 396 671.5 423.5Q648 451 591 451Q556 451 527 437.5Q498 424 476 400Q454 376 441 342Q428 308 427 266V30H501V0H318Z" glyph-name="m" horiz-adv-x="813" unicode="m"/><glyph d="M100 600H300V572H100Z" glyph-name="macron" horiz-adv-x="400" unicode="¯"/><glyph d="M96 729H304V699H96Z" glyph-name="macron.uc" horiz-adv-x="400"/><glyph d="M375 330V299H39V330Z" glyph-name="minus" horiz-adv-x="414" unicode="−"/><glyph d="M185 308 48 449 70 471 207 331 345 471 367 449 229 308 367 168 345 146 207 286 70 146 48 168Z" glyph-name="multiply" horiz-adv-x="415" unicode="×"/><glyph d="M347 30H422V336Q422 393 395 422Q368 451 303 451Q265 451 233 437.5Q201 424 177.5 400Q154 376 139.5 342Q125 308 124 266V30H199V0H22V30H89V438H22V472H113Q115 452 118 432Q120 415 122 393Q124 371 124 350V335Q130 373 148.5 400.5Q167 428 193 446Q219 464 249 472.5Q279 481 309 481Q387 481 422 442Q457 403 457 328V30H518V0H347Z" glyph-name="n" horiz-adv-x="540" unicode="n"/><glyph d="M119 5Q256 62 334 150.5Q412 239 419 366Q399 314 352 280.5Q305 247 230 247Q185 247 148.5 262Q112 277 86.5 303Q61 329 47.5 365.5Q34 402 34 444V449Q34 494 48.5 531Q63 568 90 594.5Q117 621 156 635.5Q195 650 243 650Q289 650 329 635.5Q369 621 397.5 592.5Q426 564 442.5 522.5Q459 481 459 426V401Q459 316 433 250Q407 184 366 135Q325 86 275.5 52.5Q226 19 179 0H119ZM238 278Q275 278 308 290.5Q341 303 366 325Q391 347 405.5 377Q420 407 420 443V450Q420 487 408.5 517.5Q397 548 374.5 570.5Q352 593 319 605.5Q286 618 243 618Q162 618 117 573Q72 528 72 451V443Q72 365 113.5 321.5Q155 278 238 278Z" glyph-name="nine" horiz-adv-x="496" unicode="9"/><glyph glyph-name="nonmarkingreturn" horiz-adv-x="183"/><glyph d="M281 385H404V354H265L220 264H404V233H204L150 124H116L170 233H42V264H186L231 354H42V385H246L298 487H332Z" glyph-name="notequal" horiz-adv-x="446" unicode="≠"/><glyph d="M347 30H422V336Q422 393 395 422Q368 451 303 451Q265 451 233 437.5Q201 424 177.5 400Q154 376 139.5 342Q125 308 124 266V30H199V0H22V30H89V438H22V472H113Q115 452 118 432Q120 415 122 393Q124 371 124 350V335Q130 373 148.5 400.5Q167 428 193 446Q219 464 249 472.5Q279 481 309 481Q387 481 422 442Q457 403 457 328V30H518V0H347ZM178 558Q170 588 183 608Q196 628 224 628Q237 628 251 623.5Q265 619 278 613Q291 607 302.5 602.5Q314 598 322 598Q336 598 341.5 606.5Q347 615 345 635H368Q376 605 364 585Q352 565 326 565Q314 565 299.5 569.5Q285 574 271.5 580Q258 586 245.5 590.5Q233 595 225 595Q212 595 205.5 586.5Q199 578 201 558Z" glyph-name="ntilde" horiz-adv-x="540" unicode="ñ"/><glyph d="M332 437H412V405H327L302 250H381V218H297L262 0H231L266 218H140L105 0H74L109 218H30V250H114L139 405H60V437H144L177 639H208L175 437H301L334 639H365ZM145 250H271L296 405H170Z" glyph-name="numbersign" horiz-adv-x="442" unicode="#"/><glyph d="M250 20Q289 20 322.5 33.5Q356 47 380 74.5Q404 102 418 143.5Q432 185 432 241V261Q432 304 419 339.5Q406 375 382 400.5Q358 426 324.5 439.5Q291 453 250 453Q209 453 175 439.5Q141 426 117 400.5Q93 375 80 339.5Q67 304 67 261V241Q67 185 81 143.5Q95 102 119.5 74.5Q144 47 177.5 33.5Q211 20 250 20ZM250 -8Q203 -8 163 8.5Q123 25 93.5 57Q64 89 47.5 136Q31 183 31 245V247Q31 300 46 343.5Q61 387 89.5 417.5Q118 448 158.5 464.5Q199 481 250 481Q300 481 340.5 464.5Q381 448 409.5 418Q438 388 453 345.5Q468 303 468 250V248Q468 186 451.5 138Q435 90 405.5 57.5Q376 25 336 8.5Q296 -8 250 -8Z" glyph-name="o" horiz-adv-x="499" unicode="o"/><glyph d="M307 660H360L254 547H220ZM250 20Q289 20 322.5 33.5Q356 47 380 74.5Q404 102 418 143.5Q432 185 432 241V261Q432 304 419 339.5Q406 375 382 400.5Q358 426 324.5 439.5Q291 453 250 453Q209 453 175 439.5Q141 426 117 400.5Q93 375 80 339.5Q67 304 67 261V241Q67 185 81 143.5Q95 102 119.5 74.5Q144 47 177.5 33.5Q211 20 250 20ZM250 -8Q203 -8 163 8.5Q123 25 93.5 57Q64 89 47.5 136Q31 183 31 245V247Q31 300 46 343.5Q61 387 89.5 417.5Q118 448 158.5 464.5Q199 481 250 481Q300 481 340.5 464.5Q381 448 409.5 418Q438 388 453 345.5Q468 303 468 250V248Q468 186 451.5 138Q435 90 405.5 57.5Q376 25 336 8.5Q296 -8 250 -8Z" glyph-name="oacute" horiz-adv-x="499" unicode="ó"/><glyph d="M222 660H276L359 547H326L249 636L172 547H139ZM250 20Q289 20 322.5 33.5Q356 47 380 74.5Q404 102 418 143.5Q432 185 432 241V261Q432 304 419 339.5Q406 375 382 400.5Q358 426 324.5 439.5Q291 453 250 453Q209 453 175 439.5Q141 426 117 400.5Q93 375 80 339.5Q67 304 67 261V241Q67 185 81 143.5Q95 102 119.5 74.5Q144 47 177.5 33.5Q211 20 250 20ZM250 -8Q203 -8 163 8.5Q123 25 93.5 57Q64 89 47.5 136Q31 183 31 245V247Q31 300 46 343.5Q61 387 89.5 417.5Q118 448 158.5 464.5Q199 481 250 481Q300 481 340.5 464.5Q381 448 409.5 418Q438 388 453 345.5Q468 303 468 250V248Q468 186 451.5 138Q435 90 405.5 57.5Q376 25 336 8.5Q296 -8 250 -8Z" glyph-name="ocircumflex" horiz-adv-x="499" unicode="ô"/><glyph d="M181 572Q169 572 160 580Q151 588 151 601Q151 614 160 622.5Q169 631 181 631Q194 631 203 622.5Q212 614 212 601Q212 588 203 580Q194 572 181 572ZM317 572Q304 572 295 580Q286 588 286 601Q286 614 295 622.5Q304 631 317 631Q329 631 338 622.5Q347 614 347 601Q347 588 338 580Q329 572 317 572ZM250 20Q289 20 322.5 33.5Q356 47 380 74.5Q404 102 418 143.5Q432 185 432 241V261Q432 304 419 339.5Q406 375 382 400.5Q358 426 324.5 439.5Q291 453 250 453Q209 453 175 439.5Q141 426 117 400.5Q93 375 80 339.5Q67 304 67 261V241Q67 185 81 143.5Q95 102 119.5 74.5Q144 47 177.5 33.5Q211 20 250 20ZM250 -8Q203 -8 163 8.5Q123 25 93.5 57Q64 89 47.5 136Q31 183 31 245V247Q31 300 46 343.5Q61 387 89.5 417.5Q118 448 158.5 464.5Q199 481 250 481Q300 481 340.5 464.5Q381 448 409.5 418Q438 388 453 345.5Q468 303 468 250V248Q468 186 451.5 138Q435 90 405.5 57.5Q376 25 336 8.5Q296 -8 250 -8Z" glyph-name="odieresis" horiz-adv-x="499" unicode="ö"/><glyph d="M652 -8Q561 -8 510 35Q459 78 443 157Q423 76 371 34Q319 -8 247 -8Q202 -8 163 8.5Q124 25 94.5 57Q65 89 48 136Q31 183 31 245V247Q31 300 46.5 343.5Q62 387 90 417.5Q118 448 158 464.5Q198 481 247 481Q328 481 378 439.5Q428 398 445 324Q463 396 512.5 438.5Q562 481 637 481Q681 481 714 467Q747 453 769.5 427.5Q792 402 803 366.5Q814 331 814 288Q814 274 813.5 259.5Q813 245 811 232H462Q462 134 507.5 77.5Q553 21 653 21Q704 21 743 36Q782 51 808 74V45Q802 37 787.5 28Q773 19 753 11Q733 3 707.5 -2.5Q682 -8 652 -8ZM247 20Q285 20 317.5 33Q350 46 374 73Q398 100 412 142Q426 184 426 241V261Q426 351 376.5 402Q327 453 247 453Q207 453 174 439.5Q141 426 117 401.5Q93 377 80 341.5Q67 306 67 261V241Q67 184 81 142Q95 100 119 73Q143 46 176 33Q209 20 247 20ZM637 453Q600 453 568 439Q536 425 512.5 399.5Q489 374 475.5 337.5Q462 301 462 257H780V261Q780 360 745.5 406.5Q711 453 637 453Z" glyph-name="oe" horiz-adv-x="848" unicode="œ"/><glyph d="M202 -152Q169 -152 151 -134Q133 -116 133 -87Q133 -69 140.5 -54.5Q148 -40 159 -29Q170 -18 182.5 -11Q195 -4 205 0H239Q205 -15 186.5 -37.5Q168 -60 168 -85Q168 -102 177.5 -113Q187 -124 209 -124Q222 -124 230 -121Q238 -118 245 -114V-134Q240 -141 230 -146.5Q220 -152 202 -152Z" glyph-name="ogonek" horiz-adv-x="400" unicode="˛"/><glyph d="M250 20Q289 20 322.5 33.5Q356 47 380 74.5Q404 102 418 143.5Q432 185 432 241V261Q432 304 419 339.5Q406 375 382 400.5Q358 426 324.5 439.5Q291 453 250 453Q209 453 175 439.5Q141 426 117 400.5Q93 375 80 339.5Q67 304 67 261V241Q67 185 81 143.5Q95 102 119.5 74.5Q144 47 177.5 33.5Q211 20 250 20ZM250 -8Q203 -8 163 8.5Q123 25 93.5 57Q64 89 47.5 136Q31 183 31 245V247Q31 300 46 343.5Q61 387 89.5 417.5Q118 448 158.5 464.5Q199 481 250 481Q300 481 340.5 464.5Q381 448 409.5 418Q438 388 453 345.5Q468 303 468 250V248Q468 186 451.5 138Q435 90 405.5 57.5Q376 25 336 8.5Q296 -8 250 -8ZM138 660H191L278 547H244Z" glyph-name="ograve" horiz-adv-x="499" unicode="ò"/><glyph d="M44 30H159V602L30 473H27V516L152 639H196V30H307V0H44Z" glyph-name="one" horiz-adv-x="331" unicode="1"/><glyph d="M398 43Q484 103 535 157.5Q586 212 586 268Q586 310 563.5 328Q541 346 506 346Q473 346 448.5 334.5Q424 323 405 307V334Q419 351 444 363.5Q469 376 507 376Q555 376 587.5 350Q620 324 620 267Q620 235 605 205Q590 175 564 146Q538 117 501 88Q464 59 421 30V29H596V78H627V0H398ZM103 0H68L531 639H566ZM32 296H102V607L25 525H24V564L94 639H136V296H200V270H32Z" glyph-name="onehalf" horiz-adv-x="656" unicode="½"/><glyph d="M527 369V134H578V105H527V26H578V0H438V26H494V105H322V145L475 369ZM103 0H68L531 639H566ZM32 296H102V607L25 525H24V564L94 639H136V296H200V270H32ZM347 134H494V348Z" glyph-name="onequarter" horiz-adv-x="602" unicode="¼"/><glyph d="M49 605Q63 619 90 632.5Q117 646 162 646Q216 646 247.5 619.5Q279 593 279 541V375Q279 352 286 342.5Q293 333 310 333Q315 333 319 333.5Q323 334 328 335V315Q326 313 319 311Q312 309 301 309Q276 309 261.5 323.5Q247 338 246 372V389Q237 351 208 328Q179 305 133 305Q87 305 58.5 327Q30 349 30 391V392Q30 414 39.5 429.5Q49 445 65.5 455.5Q82 466 105 472.5Q128 479 154 485Q207 496 226.5 509Q246 522 246 549V550Q246 588 222 603.5Q198 619 160 619Q134 619 114.5 613.5Q95 608 81 600V550H49ZM139 329Q159 329 178 335.5Q197 342 212 356Q227 370 236.5 392.5Q246 415 246 448V502Q235 490 214.5 481Q194 472 156 462Q105 448 85 435Q65 422 65 393V391Q65 363 84 346Q103 329 139 329Z" glyph-name="ordfeminine" horiz-adv-x="350" unicode="ª"/><glyph d="M190 330Q216 330 238.5 338.5Q261 347 277.5 365Q294 383 303.5 410.5Q313 438 313 476V493Q313 553 279.5 586.5Q246 620 190 620Q133 620 99.5 586.5Q66 553 66 493V476Q66 438 75.5 410.5Q85 383 101.5 365Q118 347 141 338.5Q164 330 190 330ZM190 305Q157 305 128 316Q99 327 77.5 349.5Q56 372 43.5 404.5Q31 437 31 481V482Q31 557 74 601.5Q117 646 190 646Q262 646 305 602Q348 558 348 484V482Q348 438 335.5 405Q323 372 302 350Q281 328 252 316.5Q223 305 190 305Z" glyph-name="ordmasculine" horiz-adv-x="379" unicode="º"/><glyph d="M250 -8Q173 -8 116 35L75 -19H39L95 54Q65 86 48 134Q31 182 31 245V247Q31 300 46 343.5Q61 387 89.5 417.5Q118 448 158.5 464.5Q199 481 250 481Q332 481 387 438L425 487H461L409 419Q438 389 453 346.5Q468 304 468 250V248Q468 186 451.5 138Q435 90 405.5 57.5Q376 25 336 8.5Q296 -8 250 -8ZM67 241Q67 132 113 77L369 414Q322 453 250 453Q209 453 175 439.5Q141 426 117 400.5Q93 375 80 339.5Q67 304 67 261ZM250 20Q289 20 322.5 33.5Q356 47 380 74.5Q404 102 418 143.5Q432 185 432 241V261Q432 344 390 394L133 57Q177 20 250 20Z" glyph-name="oslash" horiz-adv-x="499" unicode="ø"/><glyph d="M250 20Q289 20 322.5 33.5Q356 47 380 74.5Q404 102 418 143.5Q432 185 432 241V261Q432 304 419 339.5Q406 375 382 400.5Q358 426 324.5 439.5Q291 453 250 453Q209 453 175 439.5Q141 426 117 400.5Q93 375 80 339.5Q67 304 67 261V241Q67 185 81 143.5Q95 102 119.5 74.5Q144 47 177.5 33.5Q211 20 250 20ZM250 -8Q203 -8 163 8.5Q123 25 93.5 57Q64 89 47.5 136Q31 183 31 245V247Q31 300 46 343.5Q61 387 89.5 417.5Q118 448 158.5 464.5Q199 481 250 481Q300 481 340.5 464.5Q381 448 409.5 418Q438 388 453 345.5Q468 303 468 250V248Q468 186 451.5 138Q435 90 405.5 57.5Q376 25 336 8.5Q296 -8 250 -8ZM154 558Q146 588 159 608Q172 628 200 628Q213 628 227 623.5Q241 619 254 613Q267 607 278.5 602.5Q290 598 298 598Q312 598 317.5 606.5Q323 615 321 635H344Q352 605 340 585Q328 565 302 565Q290 565 275.5 569.5Q261 574 247.5 580Q234 586 221.5 590.5Q209 595 201 595Q188 595 181.5 586.5Q175 578 177 558Z" glyph-name="otilde" horiz-adv-x="499" unicode="õ"/><glyph d="M22 472H113Q115 452 118 432Q120 415 122 393Q124 371 124 350V331Q130 368 148.5 396Q167 424 193 443Q219 462 251 471.5Q283 481 316 481Q361 481 398 465Q435 449 462 419Q489 389 503.5 345.5Q518 302 518 247V245Q518 181 502.5 133.5Q487 86 460 54.5Q433 23 395.5 7.5Q358 -8 314 -8Q279 -8 247.5 3Q216 14 190.5 33.5Q165 53 147.5 80.5Q130 108 124 140V-116H205V-146H22V-116H89V438H22ZM314 21Q391 21 436.5 75Q482 129 482 242V262Q482 352 436 402Q390 452 309 452Q271 452 237.5 437.5Q204 423 178.5 397Q153 371 138.5 333.5Q124 296 124 250V246Q124 185 141.5 142Q159 99 186.5 72Q214 45 247.5 33Q281 21 314 21Z" glyph-name="p" horiz-adv-x="551" unicode="p"/><glyph d="M231 -98V310H202Q163 310 131 322Q99 334 76.5 356Q54 378 42 409Q30 440 30 479Q30 553 75.5 596Q121 639 195 639H418V607H353V-98H318V607H266V-98Z" glyph-name="paragraph" horiz-adv-x="442" unicode="¶"/><glyph d="M87 273Q87 207 100 152Q113 97 135 51.5Q157 6 185.5 -30Q214 -66 244 -93V-98H209Q182 -76 154 -40.5Q126 -5 102.5 42.5Q79 90 64 149Q49 208 49 279V304Q49 371 64 428.5Q79 486 102.5 532.5Q126 579 154 614.5Q182 650 209 673H244V668Q214 641 185.5 604.5Q157 568 135 522.5Q113 477 100 423.5Q87 370 87 309Z" glyph-name="parenleft" horiz-adv-x="261" unicode="("/><glyph d="M174 302Q174 368 161 423Q148 478 126 523.5Q104 569 75.5 605Q47 641 17 668V673H52Q79 650 107 615Q135 580 158.5 532.5Q182 485 197 425.5Q212 366 212 296V271Q212 204 197 146.5Q182 89 158.5 42.5Q135 -4 107 -39.5Q79 -75 52 -98H17V-93Q47 -66 75.5 -29.5Q104 7 126 52.5Q148 98 161 151.5Q174 205 174 266Z" glyph-name="parenright" horiz-adv-x="261" unicode=")"/><glyph d="M59 494Q59 434 84 404Q109 374 154 374Q199 374 224 404Q249 434 249 494V510Q249 562 225 592Q201 622 154 622Q107 622 83 592Q59 562 59 510ZM553 142Q553 104 542.5 76Q532 48 514 29Q496 10 472.5 0.5Q449 -9 423 -9Q397 -9 373.5 0.5Q350 10 332 29Q314 48 303.5 76Q293 104 293 142V148Q293 216 330.5 254Q368 292 423 292Q479 292 516 254Q553 216 553 148ZM328 137Q328 77 353 47Q378 17 423 17Q468 17 493 47Q518 77 518 137V153Q518 205 494 235Q470 265 423 265Q376 265 352 235Q328 205 328 153ZM154 348Q128 348 104.5 357.5Q81 367 63 386Q45 405 34.5 433Q24 461 24 499V505Q24 573 61.5 611Q99 649 154 649Q210 649 247 611Q284 573 284 505V499Q284 461 273.5 433Q263 405 245 386Q227 367 203.5 357.5Q180 348 154 348ZM86 0H50L491 639H527Z" glyph-name="percent" horiz-adv-x="577" unicode="%"/><glyph d="M69 -6Q56 -6 46.5 3Q37 12 37 26Q37 40 46.5 49Q56 58 69 58Q82 58 91.5 49Q101 40 101 26Q101 12 91.5 3Q82 -6 69 -6Z" glyph-name="period" horiz-adv-x="138" unicode="."/><glyph d="M69 244Q56 244 46.5 253Q37 262 37 276Q37 290 46.5 299Q56 308 69 308Q82 308 91.5 299Q101 290 101 276Q101 262 91.5 253Q82 244 69 244Z" glyph-name="periodcentered" horiz-adv-x="138" unicode="·"/><glyph d="M718 -9Q692 -9 668.5 0.5Q645 10 627 29Q609 48 598.5 76Q588 104 588 142V148Q588 216 625.5 254Q663 292 718 292Q774 292 811 254Q848 216 848 148V142Q848 104 837.5 76Q827 48 809 29Q791 10 767.5 0.5Q744 -9 718 -9ZM718 17Q763 17 788 47Q813 77 813 137V153Q813 205 789 235Q765 265 718 265Q671 265 647 235Q623 205 623 153V137Q623 77 648 47Q673 17 718 17ZM491 639H527L86 0H50ZM423 17Q468 17 493 47Q518 77 518 137V153Q518 205 494 235Q470 265 423 265Q376 265 352 235Q328 205 328 153V137Q328 77 353 47Q378 17 423 17ZM154 348Q128 348 104.5 357.5Q81 367 63 386Q45 405 34.5 433Q24 461 24 499V505Q24 573 61.5 611Q99 649 154 649Q210 649 247 611Q284 573 284 505V499Q284 461 273.5 433Q263 405 245 386Q227 367 203.5 357.5Q180 348 154 348ZM423 -9Q397 -9 373.5 0.5Q350 10 332 29Q314 48 303.5 76Q293 104 293 142V148Q293 216 330.5 254Q368 292 423 292Q479 292 516 254Q553 216 553 148V142Q553 104 542.5 76Q532 48 514 29Q496 10 472.5 0.5Q449 -9 423 -9ZM154 374Q199 374 224 404Q249 434 249 494V510Q249 562 225 592Q201 622 154 622Q107 622 83 592Q59 562 59 510V494Q59 434 84 404Q109 374 154 374Z" glyph-name="perthousand" horiz-adv-x="872" unicode="‰"/><glyph d="M224 330H375V299H224V137H190V299H39V330H190V492H224Z" glyph-name="plus" horiz-adv-x="414" unicode="+"/><glyph d="M224 331H375V300H224V138H190V300H39V331H190V493H224ZM39 31H375V0H39Z" glyph-name="plusminus" horiz-adv-x="414" unicode="±"/><glyph d="M346 -116H427V140Q421 108 403.5 80.5Q386 53 361.5 33.5Q337 14 306 3Q275 -8 241 -8Q196 -8 158 7.5Q120 23 92 54.5Q64 86 48.5 133.5Q33 181 33 245V247Q33 302 48 345.5Q63 389 90.5 419Q118 449 155.5 465Q193 481 238 481Q271 481 302.5 471.5Q334 462 359.5 443Q385 424 403 396Q421 368 427 331Q427 360 428.5 385Q430 410 432 430Q435 453 438 472H529V438H462V-116H529V-146H346ZM241 21Q272 21 305 33Q338 45 365 72Q392 99 409.5 142Q427 185 427 246V250Q427 296 413 333.5Q399 371 374 397Q349 423 316 437.5Q283 452 245 452Q164 452 116.5 402Q69 352 69 262V242Q69 129 115.5 75Q162 21 241 21Z" glyph-name="q" horiz-adv-x="551" unicode="q"/><glyph d="M304 513Q304 574 270 602Q236 630 182 630Q147 630 119.5 622.5Q92 615 71 602V523H36V606Q57 629 94 646Q131 663 185 663Q218 663 247 653.5Q276 644 297.5 625Q319 606 331.5 577.5Q344 549 344 510Q344 474 331 444.5Q318 415 298 388.5Q278 362 255 337.5Q232 313 212 287.5Q192 262 179 233.5Q166 205 166 171V131H136V173Q136 210 148.5 240Q161 270 179.5 296.5Q198 323 220 347.5Q242 372 260.5 397.5Q279 423 291.5 451Q304 479 304 513ZM183 28Q183 14 173.5 5Q164 -4 151 -4Q138 -4 128.5 5Q119 14 119 28Q119 42 128.5 51Q138 60 151 60Q164 60 173.5 51Q183 42 183 28Z" glyph-name="question" horiz-adv-x="378" unicode="?"/><glyph d="M74 32Q74 -29 108 -57Q142 -85 196 -85Q231 -85 258 -77.5Q285 -70 307 -57V22H342V-61Q321 -84 284 -101Q247 -118 193 -118Q160 -118 131 -108.5Q102 -99 80.5 -80Q59 -61 46.5 -32.5Q34 -4 34 35Q34 71 47 100.5Q60 130 80 156.5Q100 183 123 207.5Q146 232 166 257.5Q186 283 199 311.5Q212 340 212 374V414H242V372Q242 335 229.5 305Q217 275 198.5 248.5Q180 222 158 197.5Q136 173 117.5 147.5Q99 122 86.5 94Q74 66 74 32ZM195 517Q195 531 204.5 540Q214 549 227 549Q240 549 249.5 540Q259 531 259 517Q259 503 249.5 494Q240 485 227 485Q214 485 204.5 494Q195 503 195 517Z" glyph-name="questiondown" horiz-adv-x="378" unicode="¿"/><glyph d="M51 501 44 639H84L77 501ZM134 501 127 639H167L160 501Z" glyph-name="quotedbl" horiz-adv-x="211" unicode="&quot;"/><glyph d="M35 -85Q45 -57 47 -30.5Q49 -4 49 11Q49 22 48 33Q47 44 45 53H83Q87 36 87 13Q87 -6 80.5 -33Q74 -60 57 -85ZM120 -85Q130 -57 132 -30.5Q134 -4 134 11Q134 22 133 33Q132 44 130 53H168Q172 36 172 13Q172 -6 165.5 -33Q159 -60 142 -85Z" glyph-name="quotedblbase" horiz-adv-x="221" unicode="„"/><glyph d="M52 501Q48 518 48 541Q48 560 55 587Q62 614 79 639H101Q91 611 89 584.5Q87 558 87 543Q87 532 88 521Q89 510 91 501ZM137 501Q133 518 133 541Q133 560 140 587Q147 614 164 639H186Q176 611 174 584.5Q172 558 172 543Q172 532 173 521Q174 510 176 501Z" glyph-name="quotedblleft" horiz-adv-x="221" unicode="“"/><glyph d="M35 501Q45 529 47 555.5Q49 582 49 597Q49 608 48 619Q47 630 45 639H83Q87 622 87 599Q87 580 80.5 553Q74 526 57 501ZM120 501Q130 529 132 555.5Q134 582 134 597Q134 608 133 619Q132 630 130 639H168Q172 622 172 599Q172 580 165.5 553Q159 526 142 501Z" glyph-name="quotedblright" horiz-adv-x="221" unicode="”"/><glyph d="M53 501Q49 518 49 541Q49 560 55.5 587Q62 614 79 639H101Q91 611 89 584.5Q87 558 87 543Q87 532 88 521Q89 510 91 501Z" glyph-name="quoteleft" horiz-adv-x="136" unicode="‘"/><glyph d="M35 501Q45 529 47 555.5Q49 582 49 597Q49 608 48 619Q47 630 45 639H83Q87 622 87 599Q87 580 80.5 553Q74 526 57 501Z" glyph-name="quoteright" horiz-adv-x="136" unicode="’"/><glyph d="M87 13Q87 -6 80.5 -33Q74 -60 57 -85H35Q45 -57 47 -30.5Q49 -4 49 11Q49 22 48 33Q47 44 45 53H83Q87 36 87 13Z" glyph-name="quotesinglbase" horiz-adv-x="136" unicode="‚"/><glyph d="M51 501 44 639H84L77 501Z" glyph-name="quotesingle" horiz-adv-x="128" unicode="'"/><glyph d="M22 472H113Q115 452 118 432Q120 415 122 393Q124 371 124 350V331Q135 402 172 440Q209 478 264 478Q280 478 287 475Q294 472 299 465V443Q213 449 168.5 396.5Q124 344 124 212V30H211V0H22V30H89V438H22Z" glyph-name="r" horiz-adv-x="328" unicode="r"/><glyph d="M182 348Q150 348 122 359.5Q94 371 73.5 391.5Q53 412 41.5 439Q30 466 30 497Q30 527 41.5 554.5Q53 582 73.5 602.5Q94 623 122 635Q150 647 182 647Q215 647 242.5 635Q270 623 290 602.5Q310 582 321.5 554.5Q333 527 333 497Q333 466 321.5 439Q310 412 290 391.5Q270 371 242.5 359.5Q215 348 182 348ZM182 370Q210 370 233 380Q256 390 272.5 407Q289 424 298 447Q307 470 307 497Q307 524 298 547Q289 570 272.5 587.5Q256 605 233 615Q210 625 182 625Q155 625 131.5 615Q108 605 91.5 587.5Q75 570 65.5 547Q56 524 56 497Q56 470 65.5 447Q75 424 91.5 407Q108 390 131.5 380Q155 370 182 370ZM155 492V421H128V580H186Q213 580 227 567Q241 554 241 532Q241 510 226.5 499Q212 488 189 488L250 421H218ZM182 505Q201 505 207.5 512Q214 519 214 533Q214 545 207.5 552Q201 559 183 559H155V505Z" glyph-name="registered" horiz-adv-x="363" unicode="®"/><glyph d="M201 569Q220 569 233.5 582Q247 595 247 618Q247 640 233.5 653.5Q220 667 201 667Q183 667 169.5 653.5Q156 640 156 618Q156 595 169.5 582Q183 569 201 569ZM201 545Q169 545 148.5 566Q128 587 128 618Q128 649 148.5 670.5Q169 692 201 692Q233 692 254 670.5Q275 649 275 618Q275 587 254 566Q233 545 201 545Z" glyph-name="ring" horiz-adv-x="400" unicode="˚"/><glyph d="M201 692Q220 692 233.5 705Q247 718 247 741Q247 763 233.5 776.5Q220 790 201 790Q183 790 169.5 776.5Q156 763 156 741Q156 718 169.5 705Q183 692 201 692ZM201 668Q169 668 148.5 689Q128 710 128 741Q128 772 148.5 793.5Q169 815 201 815Q233 815 254 793.5Q275 772 275 741Q275 710 254 689Q233 668 201 668Z" glyph-name="ring.uc" horiz-adv-x="400"/><glyph d="M300 433Q279 442 253.5 447.5Q228 453 196 453Q141 453 109 428Q77 403 77 356Q77 329 85 311Q93 293 119 281Q137 272 158.5 267.5Q180 263 202 259Q224 255 246 250.5Q268 246 287 238Q320 224 337 197.5Q354 171 354 123Q354 60 310 26Q266 -8 196 -8Q132 -8 96.5 6Q61 20 37 43V123H70V49Q94 35 122 27.5Q150 20 195 20Q254 20 286.5 46Q319 72 319 121Q319 151 311 173.5Q303 196 274 208Q254 217 232 221.5Q210 226 189 230Q168 234 147.5 238Q127 242 110 250Q77 264 60 288Q43 312 43 357Q43 386 54.5 409Q66 432 86.5 448Q107 464 135 472.5Q163 481 196 481Q244 481 278 470.5Q312 460 333 443V361H300Z" glyph-name="s" horiz-adv-x="394" unicode="s"/><glyph d="M119 665 196 576 273 665H306L223 552H169L86 665ZM300 433Q279 442 253.5 447.5Q228 453 196 453Q141 453 109 428Q77 403 77 356Q77 329 85 311Q93 293 119 281Q137 272 158.5 267.5Q180 263 202 259Q224 255 246 250.5Q268 246 287 238Q320 224 337 197.5Q354 171 354 123Q354 60 310 26Q266 -8 196 -8Q132 -8 96.5 6Q61 20 37 43V123H70V49Q94 35 122 27.5Q150 20 195 20Q254 20 286.5 46Q319 72 319 121Q319 151 311 173.5Q303 196 274 208Q254 217 232 221.5Q210 226 189 230Q168 234 147.5 238Q127 242 110 250Q77 264 60 288Q43 312 43 357Q43 386 54.5 409Q66 432 86.5 448Q107 464 135 472.5Q163 481 196 481Q244 481 278 470.5Q312 460 333 443V361H300Z" glyph-name="scaron" horiz-adv-x="394" unicode="š"/><glyph d="M365 527H332V595Q315 604 292 610Q269 616 237 616Q181 616 155 590Q129 564 129 519Q129 466 178 441Q194 433 217.5 426Q241 419 266.5 412.5Q292 406 316.5 399.5Q341 393 361 384Q393 370 417 344Q441 318 441 275Q441 222 407.5 192.5Q374 163 320 155Q347 140 362 116.5Q377 93 377 55Q377 -8 335.5 -42.5Q294 -77 226 -77Q193 -77 168 -71.5Q143 -66 124 -58Q105 -50 91.5 -40.5Q78 -31 70 -22V51H103V-14Q125 -28 153.5 -37Q182 -46 225 -46Q282 -46 311 -20.5Q340 5 340 53Q340 83 327.5 102Q315 121 287 135Q269 144 246 152Q223 160 198.5 168Q174 176 150.5 184Q127 192 108 200Q75 214 51 239.5Q27 265 27 304Q27 355 62.5 383.5Q98 412 158 415Q127 428 110.5 455Q94 482 94 520Q94 578 132 612.5Q170 647 237 647Q291 647 319.5 634Q348 621 365 604ZM299 175Q317 175 335.5 181.5Q354 188 369 200Q384 212 393.5 229Q403 246 403 267Q403 325 347 352Q327 362 300.5 370Q274 378 248.5 384Q223 390 201 393Q179 396 168 396Q126 396 94.5 374Q63 352 63 312Q63 284 78.5 265.5Q94 247 122 233Q139 225 166.5 215Q194 205 221 196Q248 187 270 181Q292 175 299 175Z" glyph-name="section" horiz-adv-x="468" unicode="§"/><glyph d="M40 -87Q52 -58 56 -31Q60 -4 60 13Q60 24 59 35Q58 46 56 56H96Q98 45 99 37Q100 29 100 15Q100 -5 91 -33Q82 -61 62 -87ZM72 288Q59 288 49.5 297Q40 306 40 320Q40 334 49.5 343Q59 352 72 352Q85 352 94.5 343Q104 334 104 320Q104 306 94.5 297Q85 288 72 288Z" glyph-name="semicolon" horiz-adv-x="138" unicode=";"/><glyph d="M35 483V639H440V595L180 0H140L404 605H71V483Z" glyph-name="seven" horiz-adv-x="466" unicode="7"/><glyph d="M377 634Q240 577 162.5 483.5Q85 390 77 275Q97 328 145.5 360Q194 392 265 392Q310 392 346.5 377Q383 362 408.5 336Q434 310 448 273.5Q462 237 462 195V190Q462 145 447.5 108Q433 71 406 44.5Q379 18 340 3.5Q301 -11 253 -11Q206 -11 166.5 4Q127 19 98.5 48Q70 77 53.5 119Q37 161 37 216V241Q37 319 63.5 383Q90 447 131 497.5Q172 548 221.5 583.5Q271 619 317 639H377ZM259 361Q221 361 188 348.5Q155 336 130 314.5Q105 293 90.5 263Q76 233 76 199V192Q76 155 87.5 124Q99 93 121.5 70Q144 47 177 34Q210 21 253 21Q334 21 379 66Q424 111 424 188V196Q424 274 382 317.5Q340 361 259 361Z" glyph-name="six" horiz-adv-x="496" unicode="6"/><glyph d="M34 -98H-1L245 673H280Z" glyph-name="slash" horiz-adv-x="296" unicode="/"/><glyph glyph-name="space" horiz-adv-x="183" unicode=" "/><glyph d="M164 -152Q176 -130 180.5 -110.5Q185 -91 185 -74Q185 -58 181 -45H217Q219 -50 220 -57Q221 -64 221 -75Q221 -116 188 -152Z" glyph-name="space_uni0326" horiz-adv-x="400"/><glyph d="M42 330H102V461Q102 550 152.5 600Q203 650 289 650Q322 650 346.5 643.5Q371 637 388.5 628Q406 619 417 609Q428 599 434 592V500H398V585Q379 599 353.5 607.5Q328 616 292 616Q220 616 179.5 577Q139 538 139 458V330H333V298H139V211Q139 173 132.5 145Q126 117 114 96Q102 75 85 60Q68 45 47 34V33H408V126H444V0H22V49Q43 61 58 75Q73 89 83 108Q93 127 97.5 152.5Q102 178 102 212V298H42Z" glyph-name="sterling" horiz-adv-x="489" unicode="£"/><glyph d="M208 -5Q181 -5 158 2.5Q135 10 118.5 26.5Q102 43 92.5 68.5Q83 94 83 131V442H18V461Q42 464 56.5 469Q71 474 79 486Q87 498 91 520Q95 542 98 579H118V472H280V442H118V127Q118 98 124.5 78.5Q131 59 142 47.5Q153 36 169 31Q185 26 204 26Q236 26 256.5 34.5Q277 43 294 57V31Q286 20 265.5 7.5Q245 -5 208 -5Z" glyph-name="t" horiz-adv-x="316" unicode="t"/><glyph d="M296 -8Q261 -8 229.5 3Q198 14 172.5 33.5Q147 53 129.5 80.5Q112 108 106 140V-116H187V-146H4V-116H71V641H1V673H106V331Q112 368 130.5 396Q149 424 175 443Q201 462 233 471.5Q265 481 298 481Q343 481 380 465Q417 449 444 419Q471 389 485.5 345.5Q500 302 500 247V245Q500 181 484.5 133.5Q469 86 442 54.5Q415 23 377.5 7.5Q340 -8 296 -8ZM296 21Q373 21 418.5 75Q464 129 464 242V262Q464 352 418 402Q372 452 291 452Q253 452 219.5 437.5Q186 423 160.5 397Q135 371 120.5 333.5Q106 296 106 250V246Q106 185 123.5 142Q141 99 168.5 72Q196 45 229.5 33Q263 21 296 21Z" glyph-name="thorn" horiz-adv-x="533" unicode="þ"/><glyph d="M215 650Q300 650 347.5 607Q395 564 395 493Q395 424 361 384.5Q327 345 269 335V334Q340 328 379 283Q418 238 418 165Q418 87 365.5 39.5Q313 -8 214 -8Q174 -8 144 -2Q114 4 91 13.5Q68 23 51.5 35Q35 47 23 59V94Q57 62 100.5 43Q144 24 213 24Q301 24 340 63.5Q379 103 379 174Q379 243 338.5 280.5Q298 318 207 318H134V348H207Q281 348 319.5 385Q358 422 358 485Q358 546 323.5 581Q289 616 215 616Q184 616 159.5 612Q135 608 115 600Q95 592 77 581Q59 570 41 557V587Q53 598 68.5 609.5Q84 621 105 630Q126 639 153 644.5Q180 650 215 650Z" glyph-name="three" horiz-adv-x="456" unicode="3"/><glyph d="M567 369V134H618V105H567V26H618V0H478V26H534V105H362V145L515 369ZM132 646Q182 646 212 620.5Q242 595 242 552Q242 514 222 491Q202 468 166 463V462Q208 458 232 432.5Q256 407 256 365Q256 320 223.5 292.5Q191 265 133 265Q86 265 60 278Q34 291 20 305V333Q40 315 65 304Q90 293 132 293Q178 293 199.5 314Q221 335 221 372Q221 409 199 428.5Q177 448 128 448H82V475H128Q169 475 189 494Q209 513 209 547Q209 580 189 598Q169 616 130 616Q95 616 73 607Q51 598 31 583V609Q45 623 69 634.5Q93 646 132 646ZM134 0H99L562 639H597ZM387 134H534V348Z" glyph-name="threequarters" horiz-adv-x="642" unicode="¾"/><glyph d="M105 558Q97 588 110 608Q123 628 151 628Q164 628 178 623.5Q192 619 205 613Q218 607 229.5 602.5Q241 598 249 598Q263 598 268.5 606.5Q274 615 272 635H295Q303 605 291 585Q279 565 253 565Q241 565 226.5 569.5Q212 574 198.5 580Q185 586 172.5 590.5Q160 595 152 595Q139 595 132.5 586.5Q126 578 128 558Z" glyph-name="tilde" horiz-adv-x="400" unicode="˜"/><glyph d="M97 688Q89 720 103 739.5Q117 759 146 759Q161 759 176 754.5Q191 750 205 744.5Q219 739 231.5 734.5Q244 730 254 730Q268 730 274.5 738.5Q281 747 279 767H303Q311 735 298 715.5Q285 696 258 696Q244 696 229 700.5Q214 705 199 710.5Q184 716 170.5 720.5Q157 725 147 725Q134 725 126.5 716.5Q119 708 121 688Z" glyph-name="tilde.uc" horiz-adv-x="400"/><glyph d="M237 639H311L373 457L434 639H508V615H484V446H508V423H424V446H453V610L388 423H356L290 615H289V446H320V423H237V446H261V615H237ZM178 614H132V446H162V423H71V446H101V614H54V568H26V639H206V568H178Z" glyph-name="trademark" horiz-adv-x="532" unicode="™"/><glyph d="M27 49Q99 101 160 152.5Q221 204 265.5 256Q310 308 335 361Q360 414 360 468Q360 544 318.5 580Q277 616 214 616Q154 616 113.5 594.5Q73 573 40 541V575Q61 603 104 626.5Q147 650 213 650Q253 650 287 638.5Q321 627 346 604.5Q371 582 385 547.5Q399 513 399 468Q399 410 372.5 355Q346 300 299.5 246Q253 192 190 139Q127 86 54 34V33H374V126H410V0H27Z" glyph-name="two" horiz-adv-x="451" unicode="2"/><glyph d="M343 472H443V30H510V0H419Q416 20 413 40Q411 57 409.5 78.5Q408 100 408 122V137Q402 99 385.5 71.5Q369 44 346 26Q323 8 295 -0.5Q267 -9 237 -9Q193 -9 163.5 4Q134 17 116 40Q98 63 90.5 95.5Q83 128 83 166V438H22V472H118V158Q118 127 123.5 102Q129 77 142.5 59Q156 41 179.5 31Q203 21 239 21Q274 21 304 34.5Q334 48 356.5 72Q379 96 392.5 130Q406 164 408 206V438H343Z" glyph-name="u" horiz-adv-x="532" unicode="u"/><glyph d="M316 660H369L263 547H229ZM343 472H443V30H510V0H419Q416 20 413 40Q411 57 409.5 78.5Q408 100 408 122V137Q402 99 385.5 71.5Q369 44 346 26Q323 8 295 -0.5Q267 -9 237 -9Q193 -9 163.5 4Q134 17 116 40Q98 63 90.5 95.5Q83 128 83 166V438H22V472H118V158Q118 127 123.5 102Q129 77 142.5 59Q156 41 179.5 31Q203 21 239 21Q274 21 304 34.5Q334 48 356.5 72Q379 96 392.5 130Q406 164 408 206V438H343Z" glyph-name="uacute" horiz-adv-x="532" unicode="ú"/><glyph d="M231 660H285L368 547H335L258 636L181 547H148ZM343 472H443V30H510V0H419Q416 20 413 40Q411 57 409.5 78.5Q408 100 408 122V137Q402 99 385.5 71.5Q369 44 346 26Q323 8 295 -0.5Q267 -9 237 -9Q193 -9 163.5 4Q134 17 116 40Q98 63 90.5 95.5Q83 128 83 166V438H22V472H118V158Q118 127 123.5 102Q129 77 142.5 59Q156 41 179.5 31Q203 21 239 21Q274 21 304 34.5Q334 48 356.5 72Q379 96 392.5 130Q406 164 408 206V438H343Z" glyph-name="ucircumflex" horiz-adv-x="532" unicode="û"/><glyph d="M190 572Q178 572 169 580Q160 588 160 601Q160 614 169 622.5Q178 631 190 631Q203 631 212 622.5Q221 614 221 601Q221 588 212 580Q203 572 190 572ZM326 572Q313 572 304 580Q295 588 295 601Q295 614 304 622.5Q313 631 326 631Q338 631 347 622.5Q356 614 356 601Q356 588 347 580Q338 572 326 572ZM343 472H443V30H510V0H419Q416 20 413 40Q411 57 409.5 78.5Q408 100 408 122V137Q402 99 385.5 71.5Q369 44 346 26Q323 8 295 -0.5Q267 -9 237 -9Q193 -9 163.5 4Q134 17 116 40Q98 63 90.5 95.5Q83 128 83 166V438H22V472H118V158Q118 127 123.5 102Q129 77 142.5 59Q156 41 179.5 31Q203 21 239 21Q274 21 304 34.5Q334 48 356.5 72Q379 96 392.5 130Q406 164 408 206V438H343Z" glyph-name="udieresis" horiz-adv-x="532" unicode="ü"/><glyph d="M343 472H443V30H510V0H419Q416 20 413 40Q411 57 409.5 78.5Q408 100 408 122V137Q402 99 385.5 71.5Q369 44 346 26Q323 8 295 -0.5Q267 -9 237 -9Q193 -9 163.5 4Q134 17 116 40Q98 63 90.5 95.5Q83 128 83 166V438H22V472H118V158Q118 127 123.5 102Q129 77 142.5 59Q156 41 179.5 31Q203 21 239 21Q274 21 304 34.5Q334 48 356.5 72Q379 96 392.5 130Q406 164 408 206V438H343ZM147 660H200L287 547H253Z" glyph-name="ugrave" horiz-adv-x="532" unicode="ù"/><glyph d="M-8 -104H345V-134H-8Z" glyph-name="underscore" horiz-adv-x="337" unicode="_"/><glyph glyph-name="uni00A0" horiz-adv-x="183" unicode=" "/><glyph d="M343 472H488V438H447L281 0H223L57 438H16V472H163V438H94L253 16L412 438H343Z" glyph-name="v" horiz-adv-x="504" unicode="v"/><glyph d="M360 426 233 0H178L52 438H14V472H158V438H87L207 20L341 472H381L507 20L627 438H557V472H699V438H661L535 0H478Z" glyph-name="w" horiz-adv-x="713" unicode="w"/><glyph d="M307 29H400L249 225L97 29H190V0H20V30H61L227 244L75 438H20V472H193V440H114L251 264L389 440H311V472H480V438H424L273 245L439 30H481V0H307Z" glyph-name="x" horiz-adv-x="501" unicode="x"/><glyph d="M343 472H488V438H446L270 -33Q247 -97 218.5 -124Q190 -151 145 -151Q119 -151 99.5 -145Q80 -139 70 -128V-110Q81 -115 97 -118Q113 -121 134 -121Q169 -121 193.5 -103Q218 -85 235 -39L249 0H225L56 438H16V472H163V438H93L255 16L411 438H343Z" glyph-name="y" horiz-adv-x="504" unicode="y"/><glyph d="M343 472H488V438H446L270 -33Q247 -97 218.5 -124Q190 -151 145 -151Q119 -151 99.5 -145Q80 -139 70 -128V-110Q81 -115 97 -118Q113 -121 134 -121Q169 -121 193.5 -103Q218 -85 235 -39L249 0H225L56 438H16V472H163V438H93L255 16L411 438H343ZM313 660H366L260 547H226Z" glyph-name="yacute" horiz-adv-x="504" unicode="ý"/><glyph d="M343 472H488V438H446L270 -33Q247 -97 218.5 -124Q190 -151 145 -151Q119 -151 99.5 -145Q80 -139 70 -128V-110Q81 -115 97 -118Q113 -121 134 -121Q169 -121 193.5 -103Q218 -85 235 -39L249 0H225L56 438H16V472H163V438H93L255 16L411 438H343ZM187 572Q175 572 166 580Q157 588 157 601Q157 614 166 622.5Q175 631 187 631Q200 631 209 622.5Q218 614 218 601Q218 588 209 580Q200 572 187 572ZM323 572Q310 572 301 580Q292 588 292 601Q292 614 301 622.5Q310 631 323 631Q335 631 344 622.5Q353 614 353 601Q353 588 344 580Q335 572 323 572Z" glyph-name="ydieresis" horiz-adv-x="504" unicode="ÿ"/><glyph d="M466 270H286V207H466V178H286V30H379V0H156V30H249V178H83V207H249V270H83V299H240L71 606H24V639H207V606H111L268 316L425 606H330V639H511V606H463L294 299H466Z" glyph-name="yen" horiz-adv-x="535" unicode="¥"/><glyph d="M49 472H388V431L66 29H351V120H384V0H33V41L355 443H82V361H49Z" glyph-name="z" horiz-adv-x="423" unicode="z"/><glyph d="M142 665 219 576 296 665H329L246 552H192L109 665ZM49 472H388V431L66 29H351V120H384V0H33V41L355 443H82V361H49Z" glyph-name="zcaron" horiz-adv-x="423" unicode="ž"/><glyph d="M275 -11Q226 -11 182.5 9.5Q139 30 107 71Q75 112 56 172.5Q37 233 37 313V355Q37 498 100.5 574Q164 650 275 650Q386 650 449.5 574Q513 498 513 355V313Q513 233 494.5 172.5Q476 112 444 71Q412 30 368.5 9.5Q325 -11 275 -11ZM275 21Q370 21 422 95Q474 169 474 311V367Q474 484 424.5 550Q375 616 275 616Q175 616 125.5 550Q76 484 76 367V311Q76 169 128.5 95Q181 21 275 21Z" glyph-name="zero" horiz-adv-x="550" unicode="0"/></font>
</defs>
</svg>
