<?xml version="1.0" encoding="UTF-8" standalone="no"?>
<!DOCTYPE svg PUBLIC "-//W3C//DTD SVG 1.1//EN" "http://www.w3.org/Graphics/SVG/1.1/DTD/svg11.dtd">
<svg version="1.1" xmlns="http://www.w3.org/2000/svg"><defs><font horiz-adv-x="0" id="font"><font-face ascent="861" bbox="-29 -141 425 860" cap-height="728" descent="-139" font-family="FC Kaiser XCond Web" font-stretch="normal" font-style="normal" font-weight="200" units-per-em="1000" x-height="569"/><missing-glyph horiz-adv-x="84"/><glyph d="M10 0 94 728H135L219 0H191L171 178H58L38 0ZM103 587 61 204H168L125 587L114 709Z" glyph-name="A" horiz-adv-x="229" unicode="A"/><glyph d="M6 0 161 728H314V702H211V408H314V382H211V26H314V0H182V150H67L34 0ZM182 177V704L71 177Z" glyph-name="AE" horiz-adv-x="332" unicode="Æ"/><glyph d="M10 0 94 728H135L219 0H191L171 178H58L38 0ZM103 587 61 204H168L125 587L114 709ZM68 783 166 821V794L68 758Z" glyph-name="Aacute" horiz-adv-x="229" unicode="Á"/><glyph d="M10 0 94 728H135L219 0H191L171 178H58L38 0ZM103 587 61 204H168L125 587L114 709ZM179 786V760L117 798L54 760V786L107 822H126Z" glyph-name="Acircumflex" horiz-adv-x="229" unicode="Â"/><glyph d="M10 0 94 728H135L219 0H191L171 178H58L38 0ZM103 587 61 204H168L125 587L114 709ZM64 816H93V769H64ZM139 816H167V769H139Z" glyph-name="Adieresis" horiz-adv-x="229" unicode="Ä"/><glyph d="M10 0 94 728H135L219 0H191L171 178H58L38 0ZM103 587 61 204H168L125 587L114 709ZM161 758 63 794V821L161 783Z" glyph-name="Agrave" horiz-adv-x="229" unicode="À"/><glyph d="M10 0 94 728H135L219 0H191L171 178H58L38 0ZM103 587 61 204H168L125 587L114 709ZM172 806Q172 783 156.5 769Q141 755 116 755Q93 755 77.5 769Q62 783 62 806Q62 832 77.5 846Q93 860 116 860Q141 860 156.5 846Q172 832 172 806ZM151 806Q151 822 141.5 831.5Q132 841 116 841Q101 841 92 831.5Q83 822 83 806Q83 792 92 783Q101 774 116 774Q132 774 141.5 783Q151 792 151 806Z" glyph-name="Aring" horiz-adv-x="229" unicode="Å"/><glyph d="M10 0 94 728H135L219 0H191L171 178H58L38 0ZM103 587 61 204H168L125 587L114 709ZM44 762Q45 784 54 797.5Q63 811 82 811Q92 811 100 807Q108 803 115 797.5Q122 792 129.5 788Q137 784 146 784Q165 784 165 810H187Q186 789 177 775Q168 761 150 761Q139 761 130.5 765Q122 769 114.5 774.5Q107 780 100 784Q93 788 85 788Q75 788 71 780Q67 772 66 762Z" glyph-name="Atilde" horiz-adv-x="229" unicode="Ã"/><glyph d="M120 728Q166 728 189 699Q212 670 212 608V499Q212 449 198 422.5Q184 396 158 387Q188 379 203 352.5Q218 326 218 275V121Q218 58 195 29Q172 0 126 0H26V728ZM125 26Q156 26 172.5 48Q189 70 189 118V280Q189 328 173.5 350.5Q158 373 123 373H55V26ZM120 398Q149 398 166 420.5Q183 443 183 492V609Q183 658 166.5 680Q150 702 118 702H55V398Z" glyph-name="B" horiz-adv-x="237" unicode="B"/><glyph d="M218 111Q218 49 192.5 22Q167 -5 123 -5H119Q76 -5 50 22Q24 49 24 111V618Q24 680 50 707Q76 734 119 734H123Q167 734 192.5 707Q218 680 218 618V510H190V618Q190 668 171 688Q152 708 123 708H120Q91 708 72 688Q53 668 53 618V110Q53 61 72 41Q91 21 120 21H123Q152 21 171.5 41Q191 61 191 110V248H218Z" glyph-name="C" horiz-adv-x="239" unicode="C"/><glyph d="M78 -118H106Q127 -118 138.5 -111Q150 -104 150 -87Q150 -70 138 -63.5Q126 -57 106 -57H91V-2Q60 6 42 33Q24 60 24 111V618Q24 680 50 707Q76 734 119 734H123Q167 734 192.5 707Q218 680 218 618V510H190V618Q190 668 171 688Q152 708 123 708H120Q91 708 72 688Q53 668 53 618V110Q53 61 72 41Q91 21 120 21H123Q152 21 171.5 41Q191 61 191 110V248H218V111Q218 49 192.5 22Q167 -5 123 -5H112V-37Q140 -37 157.5 -49Q175 -61 175 -87Q175 -139 108 -139H78Z" glyph-name="Ccedilla" horiz-adv-x="239" unicode="Ç"/><glyph d="M126 728Q172 728 195 699Q218 670 218 607V121Q218 58 195 29Q172 0 126 0H26V728ZM124 26Q156 26 172.5 48Q189 70 189 118V610Q189 658 172.5 680Q156 702 124 702H55V26Z" glyph-name="D" horiz-adv-x="242" unicode="D"/><glyph d="M26 0V728H168V702H55V408H168V382H55V26H168V0Z" glyph-name="E" horiz-adv-x="185" unicode="E"/><glyph d="M51 783 149 821V794L51 758ZM26 0V728H168V702H55V408H168V382H55V26H168V0Z" glyph-name="Eacute" horiz-adv-x="185" unicode="É"/><glyph d="M162 786V760L100 798L37 760V786L90 822H109ZM26 0V728H168V702H55V408H168V382H55V26H168V0Z" glyph-name="Ecircumflex" horiz-adv-x="185" unicode="Ê"/><glyph d="M26 0V728H168V702H55V408H168V382H55V26H168V0ZM47 816H76V769H47ZM122 816H150V769H122Z" glyph-name="Edieresis" horiz-adv-x="185" unicode="Ë"/><glyph d="M144 758 46 794V821L144 783ZM26 0V728H168V702H55V408H168V382H55V26H168V0Z" glyph-name="Egrave" horiz-adv-x="185" unicode="È"/><glyph d="M1 388H32V728H132Q178 728 201 699Q224 670 224 607V121Q224 58 201 29Q178 0 132 0H32V363H1ZM131 26Q162 26 178.5 48Q195 70 195 118V610Q195 658 178.5 680Q162 702 131 702H61V388H128V363H61V26Z" glyph-name="Eth" horiz-adv-x="248" unicode="Ð"/><glyph d="M170 316H77V110Q77 61 96.5 41Q116 21 145 21H147Q176 21 195.5 41Q215 61 215 110V248H242V111Q242 49 216.5 22Q191 -5 147 -5H143Q100 -5 74 22Q48 49 48 111V316H13V340H48V413H13V437H48V618Q48 680 74 707Q100 734 143 734H147Q191 734 216.5 707Q242 680 242 618V510H214V618Q214 668 195 688Q176 708 147 708H144Q115 708 96 688Q77 668 77 618V437H170V413H77V340H170Z" glyph-name="Euro" horiz-adv-x="263" unicode="€"/><glyph d="M55 380V0H26V728H168V702H55V406H168V380Z" glyph-name="F" horiz-adv-x="183" unicode="F"/><glyph d="M118 0Q73 0 48.5 25Q24 50 24 113V618Q24 680 50 707Q76 734 119 734H123Q167 734 191.5 707Q216 680 216 618V510H188V619Q188 668 170 688Q152 708 123 708H120Q91 708 72 688Q53 668 53 619V110Q53 62 71.5 44Q90 26 118 26H188V339H127V364H216V0Z" glyph-name="G" horiz-adv-x="238" unicode="G"/><glyph d="M188 370H55V0H26V728H55V396H188V728H217V0H188Z" glyph-name="H" horiz-adv-x="242" unicode="H"/><glyph d="M25 728H54V0H25Z" glyph-name="I" horiz-adv-x="79" unicode="I"/><glyph d="M25 728H54V0H25ZM-7 783 91 821V794L-7 758Z" glyph-name="Iacute" horiz-adv-x="79" unicode="Í"/><glyph d="M25 728H54V0H25ZM103 786V760L41 798L-22 760V786L31 822H50Z" glyph-name="Icircumflex" horiz-adv-x="79" unicode="Î"/><glyph d="M25 728H54V0H25ZM20 823V776H-9V823ZM87 823V776H58V823Z" glyph-name="Idieresis" horiz-adv-x="79" unicode="Ï"/><glyph d="M25 728H54V0H25ZM85 758 -13 794V821L85 783Z" glyph-name="Igrave" horiz-adv-x="79" unicode="Ì"/><glyph d="M120 112Q120 53 101 26.5Q82 0 35 0H8V26H31Q63 26 77 45Q91 64 91 112V728H120Z" glyph-name="J" horiz-adv-x="146" unicode="J"/><glyph d="M55 359V0H26V728H55V370L187 728H216L83 366L218 0H188Z" glyph-name="K" horiz-adv-x="223" unicode="K"/><glyph d="M26 728H55V26H168V0H26Z" glyph-name="L" horiz-adv-x="179" unicode="L"/><glyph d="M-2 302 35 325V728H64V343L141 390V361L64 314V26H177V0H35V296L-2 274Z" glyph-name="Lslash" horiz-adv-x="188" unicode="Ł"/><glyph d="M63 578 49 719 51 570V0H26V728H72L136 165L149 26L162 165L225 728H272V0H247V571L249 719L234 578L167 0H130Z" glyph-name="M" horiz-adv-x="297" unicode="M"/><glyph d="M73 579 51 710 53 574V0H26V728H73L176 184L197 52L195 194V728H223V0H183Z" glyph-name="N" horiz-adv-x="248" unicode="N"/><glyph d="M56 762Q57 784 66 797.5Q75 811 94 811Q104 811 112 807Q120 803 127 797.5Q134 792 141.5 788Q149 784 158 784Q177 784 177 810H199Q198 789 189 775Q180 761 162 761Q151 761 142.5 765Q134 769 126.5 774.5Q119 780 112 784Q105 788 97 788Q87 788 83 780Q79 772 78 762ZM73 579 51 710 53 574V0H26V728H73L176 184L197 52L195 194V728H223V0H183Z" glyph-name="Ntilde" horiz-adv-x="248" unicode="Ñ"/><glyph d="M24 618Q24 680 50.5 707Q77 734 120 734H124Q167 734 193.5 707Q220 680 220 618V111Q220 49 193.5 22Q167 -5 124 -5H120Q77 -5 50.5 22Q24 49 24 111ZM191 619Q191 668 171.5 688Q152 708 123 708H121Q92 708 72.5 688Q53 668 53 619V110Q53 61 72.5 41Q92 21 121 21H123Q152 21 171.5 41Q191 61 191 110Z" glyph-name="O" horiz-adv-x="245" unicode="O"/><glyph d="M120 0Q77 0 50.5 27Q24 54 24 116V612Q24 674 50.5 701Q77 728 120 728H316V702H206V408H316V382H206V26H316V0ZM53 115Q53 67 72.5 46.5Q92 26 121 26H177V702H121Q92 702 72.5 682Q53 662 53 613Z" glyph-name="OE" horiz-adv-x="333" unicode="Œ"/><glyph d="M75 783 173 821V794L75 758ZM24 618Q24 680 50.5 707Q77 734 120 734H124Q167 734 193.5 707Q220 680 220 618V111Q220 49 193.5 22Q167 -5 124 -5H120Q77 -5 50.5 22Q24 49 24 111ZM191 619Q191 668 171.5 688Q152 708 123 708H121Q92 708 72.5 688Q53 668 53 619V110Q53 61 72.5 41Q92 21 121 21H123Q152 21 171.5 41Q191 61 191 110Z" glyph-name="Oacute" horiz-adv-x="245" unicode="Ó"/><glyph d="M186 786V760L124 798L61 760V786L114 822H133ZM24 618Q24 680 50.5 707Q77 734 120 734H124Q167 734 193.5 707Q220 680 220 618V111Q220 49 193.5 22Q167 -5 124 -5H120Q77 -5 50.5 22Q24 49 24 111ZM191 619Q191 668 171.5 688Q152 708 123 708H121Q92 708 72.5 688Q53 668 53 619V110Q53 61 72.5 41Q92 21 121 21H123Q152 21 171.5 41Q191 61 191 110Z" glyph-name="Ocircumflex" horiz-adv-x="245" unicode="Ô"/><glyph d="M71 816H100V769H71ZM146 816H174V769H146ZM24 618Q24 680 50.5 707Q77 734 120 734H124Q167 734 193.5 707Q220 680 220 618V111Q220 49 193.5 22Q167 -5 124 -5H120Q77 -5 50.5 22Q24 49 24 111ZM191 619Q191 668 171.5 688Q152 708 123 708H121Q92 708 72.5 688Q53 668 53 619V110Q53 61 72.5 41Q92 21 121 21H123Q152 21 171.5 41Q191 61 191 110Z" glyph-name="Odieresis" horiz-adv-x="245" unicode="Ö"/><glyph d="M168 758 70 794V821L168 783ZM24 618Q24 680 50.5 707Q77 734 120 734H124Q167 734 193.5 707Q220 680 220 618V111Q220 49 193.5 22Q167 -5 124 -5H120Q77 -5 50.5 22Q24 49 24 111ZM191 619Q191 668 171.5 688Q152 708 123 708H121Q92 708 72.5 688Q53 668 53 619V110Q53 61 72.5 41Q92 21 121 21H123Q152 21 171.5 41Q191 61 191 110Z" glyph-name="Ograve" horiz-adv-x="245" unicode="Ò"/><glyph d="M38 618Q38 680 64.5 707Q91 734 134 734H138Q174 734 197 715L206 753H229L215 696Q234 666 234 618V111Q234 50 207.5 22.5Q181 -5 138 -5H134Q88 -5 64 22L54 -25H31L48 50Q38 73 38 111ZM208 618Q208 640 203 658L73 60Q82 39 98 29.5Q114 20 135 20H137Q167 20 187.5 40.5Q208 61 208 110ZM65 113 188 687Q169 709 137 709H135Q105 709 85 688.5Q65 668 65 618Z" glyph-name="Oslash" horiz-adv-x="269" unicode="Ø"/><glyph d="M51 762Q52 784 61 797.5Q70 811 89 811Q99 811 107 807Q115 803 122 797.5Q129 792 136.5 788Q144 784 153 784Q172 784 172 810H194Q193 789 184 775Q175 761 157 761Q146 761 137.5 765Q129 769 121.5 774.5Q114 780 107 784Q100 788 92 788Q82 788 78 780Q74 772 73 762ZM24 618Q24 680 50.5 707Q77 734 120 734H124Q167 734 193.5 707Q220 680 220 618V111Q220 49 193.5 22Q167 -5 124 -5H120Q77 -5 50.5 22Q24 49 24 111ZM191 619Q191 668 171.5 688Q152 708 123 708H121Q92 708 72.5 688Q53 668 53 619V110Q53 61 72.5 41Q92 21 121 21H123Q152 21 171.5 41Q191 61 191 110Z" glyph-name="Otilde" horiz-adv-x="245" unicode="Õ"/><glyph d="M55 398H121Q185 398 185 490V611Q185 659 168.5 680.5Q152 702 121 702H55ZM26 728H121Q169 728 191 699.5Q213 671 213 608V493Q213 429 191 401Q169 373 121 373H55V0H26Z" glyph-name="P" horiz-adv-x="234" unicode="P"/><glyph d="M24 618Q24 680 50.5 707Q77 734 120 734H124Q167 734 193.5 707Q220 680 220 618V111Q220 54 197.5 26.5Q175 -1 137 -4V-81H108V-4Q70 -1 47 26.5Q24 54 24 111ZM191 619Q191 668 171.5 688Q152 708 123 708H121Q92 708 72.5 688Q53 668 53 619V110Q53 61 72.5 41Q92 21 121 21H123Q152 21 171.5 41Q191 61 191 110Z" glyph-name="Q" horiz-adv-x="245" unicode="Q"/><glyph d="M55 0H26V728H118Q164 728 187 699Q210 670 210 608V505Q210 455 195.5 429Q181 403 152 394Q183 386 194.5 360Q206 334 206 285V0H177V294Q177 339 164.5 361Q152 383 116 383H55ZM116 408Q148 408 164.5 430.5Q181 453 181 502V609Q181 658 164.5 680Q148 702 116 702H55V408Z" glyph-name="R" horiz-adv-x="230" unicode="R"/><glyph d="M165 356Q187 329 199.5 303.5Q212 278 212 237V112Q212 49 187 22Q162 -5 119 -5H114Q70 -5 46 22Q22 49 22 112V248H49V110Q49 61 67.5 41Q86 21 115 21H118Q147 21 165 41Q183 61 183 110V236Q183 270 173 291Q163 312 144 335L69 426Q49 449 35 475Q21 501 21 543V617Q21 680 45.5 707Q70 734 114 734H119Q162 734 186.5 707Q211 680 211 617V510H183V619Q183 668 165 688Q147 708 118 708H115Q86 708 68 688Q50 668 50 619V543Q50 511 61.5 489.5Q73 468 88 449Z" glyph-name="S" horiz-adv-x="233" unicode="S"/><glyph d="M126 755H107L54 791V816L117 778L179 816V791ZM165 356Q187 329 199.5 303.5Q212 278 212 237V112Q212 49 187 22Q162 -5 119 -5H114Q70 -5 46 22Q22 49 22 112V248H49V110Q49 61 67.5 41Q86 21 115 21H118Q147 21 165 41Q183 61 183 110V236Q183 270 173 291Q163 312 144 335L69 426Q49 449 35 475Q21 501 21 543V617Q21 680 45.5 707Q70 734 114 734H119Q162 734 186.5 707Q211 680 211 617V510H183V619Q183 668 165 688Q147 708 118 708H115Q86 708 68 688Q50 668 50 619V543Q50 511 61.5 489.5Q73 468 88 449Z" glyph-name="Scaron" horiz-adv-x="233" unicode="Š"/><glyph d="M114 702V0H85V702H8V728H190V702Z" glyph-name="T" horiz-adv-x="198" unicode="T"/><glyph d="M54 569H120Q168 569 190.5 540.5Q213 512 213 449V334Q213 270 190.5 242Q168 214 120 214H54V0H25V728H54ZM54 543V239H120Q184 239 184 331V452Q184 500 167.5 521.5Q151 543 120 543Z" glyph-name="Thorn" horiz-adv-x="233" unicode="Þ"/><glyph d="M220 111Q220 49 193.5 22Q167 -5 124 -5H120Q77 -5 50.5 22Q24 49 24 111V728H53V111Q53 61 72.5 41Q92 21 121 21H123Q152 21 171.5 41Q191 61 191 111V728H220Z" glyph-name="U" horiz-adv-x="245" unicode="U"/><glyph d="M75 783 173 821V794L75 758ZM220 111Q220 49 193.5 22Q167 -5 124 -5H120Q77 -5 50.5 22Q24 49 24 111V728H53V111Q53 61 72.5 41Q92 21 121 21H123Q152 21 171.5 41Q191 61 191 111V728H220Z" glyph-name="Uacute" horiz-adv-x="245" unicode="Ú"/><glyph d="M186 786V760L124 798L61 760V786L114 822H133ZM220 111Q220 49 193.5 22Q167 -5 124 -5H120Q77 -5 50.5 22Q24 49 24 111V728H53V111Q53 61 72.5 41Q92 21 121 21H123Q152 21 171.5 41Q191 61 191 111V728H220Z" glyph-name="Ucircumflex" horiz-adv-x="245" unicode="Û"/><glyph d="M220 111Q220 49 193.5 22Q167 -5 124 -5H120Q77 -5 50.5 22Q24 49 24 111V728H53V111Q53 61 72.5 41Q92 21 121 21H123Q152 21 171.5 41Q191 61 191 111V728H220ZM71 816H100V769H71ZM146 816H174V769H146Z" glyph-name="Udieresis" horiz-adv-x="245" unicode="Ü"/><glyph d="M168 758 70 794V821L168 783ZM220 111Q220 49 193.5 22Q167 -5 124 -5H120Q77 -5 50.5 22Q24 49 24 111V728H53V111Q53 61 72.5 41Q92 21 121 21H123Q152 21 171.5 41Q191 61 191 111V728H220Z" glyph-name="Ugrave" horiz-adv-x="245" unicode="Ù"/><glyph d="M219 728 134 0H93L7 728H36L99 178L114 20L129 178L191 728Z" glyph-name="V" horiz-adv-x="226" unicode="V"/><glyph d="M328 728 273 0H235L181 536L171 702L160 536L106 0H67L12 728H40L81 143L88 27L96 150L153 728H189L245 150L255 27L260 143L301 728Z" glyph-name="W" horiz-adv-x="340" unicode="W"/><glyph d="M190 0 115 361 40 0H11L92 380L18 728H49L116 399L186 728H216L139 380L220 0Z" glyph-name="X" horiz-adv-x="231" unicode="X"/><glyph d="M127 285V0H98V288L8 728H37L113 349L185 728H213Z" glyph-name="Y" horiz-adv-x="221" unicode="Y"/><glyph d="M127 285V0H98V288L8 728H37L113 349L185 728H213ZM65 783 163 821V794L65 758Z" glyph-name="Yacute" horiz-adv-x="221" unicode="Ý"/><glyph d="M127 285V0H98V288L8 728H37L113 349L185 728H213ZM61 816H90V769H61ZM136 816H164V769H136Z" glyph-name="Ydieresis" horiz-adv-x="221" unicode="Ÿ"/><glyph d="M47 26H180V0H19V26L152 702H24V728H180V702Z" glyph-name="Z" horiz-adv-x="198" unicode="Z"/><glyph d="M112 755H93L40 791V816L103 778L165 816V791ZM47 26H180V0H19V26L152 702H24V728H180V702Z" glyph-name="Zcaron" horiz-adv-x="198" unicode="Ž"/><glyph d="M102 0Q58 0 37.5 23Q17 46 17 107V211Q17 272 38.5 295Q60 318 102 318H158V466Q158 511 145 528.5Q132 546 108 546H106Q83 546 68.5 529.5Q54 513 54 468V390H27V467Q27 524 47.5 548Q68 572 106 572H110Q148 572 167.5 547Q187 522 187 465V0ZM158 26V292H105Q77 292 61.5 276Q46 260 46 213V105Q46 58 61.5 42Q77 26 105 26Z" glyph-name="a" horiz-adv-x="211" unicode="a"/><glyph d="M102 0Q58 0 37.5 23Q17 46 17 107V211Q17 272 38.5 295Q60 318 102 318H158V466Q158 511 145 528.5Q132 546 108 546H106Q83 546 68.5 529.5Q54 513 54 468V390H27V467Q27 524 47.5 548Q68 572 106 572H110Q148 572 167.5 547Q187 522 187 465V0ZM158 26V292H105Q77 292 61.5 276Q46 260 46 213V105Q46 58 61.5 42Q77 26 105 26ZM57 645 162 688V659L57 619Z" glyph-name="aacute" horiz-adv-x="211" unicode="á"/><glyph d="M102 0Q58 0 37.5 23Q17 46 17 107V211Q17 272 38.5 295Q60 318 102 318H158V466Q158 511 145 528.5Q132 546 108 546H106Q83 546 68.5 529.5Q54 513 54 468V390H27V467Q27 524 47.5 548Q68 572 106 572H110Q148 572 167.5 547Q187 522 187 465V0ZM158 26V292H105Q77 292 61.5 276Q46 260 46 213V105Q46 58 61.5 42Q77 26 105 26ZM168 643V616L109 660L50 616V643L100 685H118Z" glyph-name="acircumflex" horiz-adv-x="211" unicode="â"/><glyph d="M142 645 247 688V659L142 619Z" glyph-name="acute" horiz-adv-x="401" unicode="´"/><glyph d="M143 783 241 821V794L143 758Z" glyph-name="acute.uc" horiz-adv-x="401"/><glyph d="M102 0Q58 0 37.5 23Q17 46 17 107V211Q17 272 38.5 295Q60 318 102 318H158V466Q158 511 145 528.5Q132 546 108 546H106Q83 546 68.5 529.5Q54 513 54 468V390H27V467Q27 524 47.5 548Q68 572 106 572H110Q148 572 167.5 547Q187 522 187 465V0ZM158 26V292H105Q77 292 61.5 276Q46 260 46 213V105Q46 58 61.5 42Q77 26 105 26ZM59 678H88V631H59ZM128 678H157V631H128Z" glyph-name="adieresis" horiz-adv-x="211" unicode="ä"/><glyph d="M321 199V108Q321 52 297.5 26Q274 0 236 0H102Q58 1 37.5 23.5Q17 46 17 107V206Q17 266 38.5 289.5Q60 313 102 313H154V466Q154 512 141 529Q128 546 106 546H104Q81 546 67.5 529.5Q54 513 54 468V390H27V467Q27 524 46.5 548Q66 572 104 572H107Q160 572 170 519Q175 544 193 558Q211 572 236 572H239Q277 572 299 546Q321 520 321 464V288H183V26H235Q260 26 276.5 44.5Q293 63 293 107V199ZM154 26V287H105Q77 287 61.5 270.5Q46 254 46 207V105Q46 58 61.5 42Q77 26 105 26ZM183 313H292V465Q292 509 277 527.5Q262 546 238 546H236Q213 546 198 528Q183 510 183 465Z" glyph-name="ae" horiz-adv-x="340" unicode="æ"/><glyph d="M102 0Q58 0 37.5 23Q17 46 17 107V211Q17 272 38.5 295Q60 318 102 318H158V466Q158 511 145 528.5Q132 546 108 546H106Q83 546 68.5 529.5Q54 513 54 468V390H27V467Q27 524 47.5 548Q68 572 106 572H110Q148 572 167.5 547Q187 522 187 465V0ZM158 26V292H105Q77 292 61.5 276Q46 260 46 213V105Q46 58 61.5 42Q77 26 105 26ZM158 619 52 659V689L158 645Z" glyph-name="agrave" horiz-adv-x="211" unicode="à"/><glyph d="M250 373H215V0H118Q74 0 49 28Q24 56 24 117V275Q24 326 38 352Q52 378 79 386Q52 395 38.5 421.5Q25 448 25 498V615Q25 677 50 705.5Q75 734 118 734H122Q165 734 189.5 705.5Q214 677 214 615V510H186V615Q186 665 168 686.5Q150 708 121 708H119Q90 708 72 686.5Q54 665 54 615V492Q54 443 70 420.5Q86 398 116 398H250ZM187 24V373H115Q84 373 68 351Q52 329 52 280V117Q52 68 71 46Q90 24 119 24Z" glyph-name="ampersand" horiz-adv-x="258" unicode="&amp;"/><glyph d="M102 0Q58 0 37.5 23Q17 46 17 107V211Q17 272 38.5 295Q60 318 102 318H158V466Q158 511 145 528.5Q132 546 108 546H106Q83 546 68.5 529.5Q54 513 54 468V390H27V467Q27 524 47.5 548Q68 572 106 572H110Q148 572 167.5 547Q187 522 187 465V0ZM158 26V292H105Q77 292 61.5 276Q46 260 46 213V105Q46 58 61.5 42Q77 26 105 26ZM165 662Q165 639 150 624Q135 609 109 609Q85 609 70 624Q55 639 55 662Q55 688 70 703.5Q85 719 109 719Q135 719 150 703.5Q165 688 165 662ZM144 662Q144 679 135 689Q126 699 109 699Q94 699 85 688.5Q76 678 76 662Q76 648 85 638Q94 628 109 628Q126 628 135 638Q144 648 144 662Z" glyph-name="aring" horiz-adv-x="211" unicode="å"/><glyph d="M132 474 86 686 41 474H19L72 728H100L155 474Z" glyph-name="asciicircum" horiz-adv-x="173" unicode="^"/><glyph d="M148 275Q133 275 123 281Q113 287 104 294.5Q95 302 86.5 308.5Q78 315 66 315Q49 315 43.5 301Q38 287 38 272H17V274Q17 298 27.5 318Q38 338 64 338Q79 338 89.5 331.5Q100 325 108.5 317.5Q117 310 125.5 304Q134 298 146 298Q163 298 168.5 313Q174 328 174 341H195V339Q195 316 184.5 295.5Q174 275 148 275Z" glyph-name="asciitilde" horiz-adv-x="211" unicode="~"/><glyph d="M149 605 95 638 96 574H76L77 638L22 605L12 622L68 654L12 687L22 703L77 669L76 734H96L95 670L149 703L159 686L103 653L159 621Z" glyph-name="asterisk" horiz-adv-x="171" unicode="*"/><glyph d="M279 24Q316 24 332.5 41.5Q349 59 349 101V512Q349 606 316 652.5Q283 699 203 699H198Q154 699 125.5 682.5Q97 666 80 637.5Q63 609 56 570.5Q49 532 49 488V81Q49 -19 91.5 -66Q134 -113 212 -113H288V-135H211Q123 -135 74 -83.5Q25 -32 25 80V488Q25 535 33 577.5Q41 620 60.5 651.5Q80 683 113.5 701.5Q147 720 198 720H204Q251 720 283.5 706.5Q316 693 335.5 666.5Q355 640 363.5 601.5Q372 563 372 512V101Q372 45 348 22.5Q324 0 279 0H202Q160 0 138 23.5Q116 47 116 108V461Q116 523 137 546Q158 569 202 569H279ZM145 105Q145 58 161 41Q177 24 206 24H250V543H206Q177 543 161 526.5Q145 510 145 462Z" glyph-name="at" horiz-adv-x="397" unicode="@"/><glyph d="M102 0Q58 0 37.5 23Q17 46 17 107V211Q17 272 38.5 295Q60 318 102 318H158V466Q158 511 145 528.5Q132 546 108 546H106Q83 546 68.5 529.5Q54 513 54 468V390H27V467Q27 524 47.5 548Q68 572 106 572H110Q148 572 167.5 547Q187 522 187 465V0ZM158 26V292H105Q77 292 61.5 276Q46 260 46 213V105Q46 58 61.5 42Q77 26 105 26ZM36 623Q36 646 45 661.5Q54 677 74 677Q84 677 92.5 672.5Q101 668 108.5 662Q116 656 123.5 651.5Q131 647 140 647Q149 647 153.5 655Q158 663 158 676H181Q180 653 172 637.5Q164 622 144 622Q132 622 123 626.5Q114 631 106.5 637Q99 643 92 647.5Q85 652 78 652Q67 652 63 643Q59 634 58 623Z" glyph-name="atilde" horiz-adv-x="211" unicode="ã"/><glyph d="M24 728H53V569H112Q154 569 175.5 546Q197 523 197 462V108Q197 47 176 23.5Q155 0 112 0H24ZM53 26H107Q136 26 152 42.5Q168 59 168 107V462Q168 510 152 526.5Q136 543 107 543H53Z" glyph-name="b" horiz-adv-x="220" unicode="b"/><glyph d="M145 -77H118L1 747H27Z" glyph-name="backslash" horiz-adv-x="140" unicode="\"/><glyph d="M21 747H46V-110H21Z" glyph-name="bar" horiz-adv-x="67" unicode="|"/><glyph d="M164 -76H159Q108 -76 85.5 -45.5Q63 -15 66 45L77 243Q79 280 69 295Q59 310 37 310H24V336H37Q60 336 69 353Q78 370 76 403L66 622Q64 690 88 719Q112 748 156 748H163V722H160Q127 722 109 699Q91 676 94 622L104 404Q106 369 97 349.5Q88 330 71 324Q86 318 96.5 301Q107 284 105 240L94 45Q91 -2 106.5 -26.5Q122 -51 160 -51H164Z" glyph-name="braceleft" horiz-adv-x="183" unicode="{"/><glyph d="M19 -51H23Q61 -51 76 -26.5Q91 -2 89 45L78 240Q76 284 86 301Q96 318 111 324Q95 330 86 349.5Q77 369 79 404L89 622Q91 676 73.5 699Q56 722 23 722H20V748H26Q70 748 94.5 719Q119 690 116 622L106 403Q104 370 113.5 353Q123 336 146 336H159V310H146Q123 310 113 295Q103 280 105 243L116 45Q119 -15 97 -45.5Q75 -76 24 -76H19Z" glyph-name="braceright" horiz-adv-x="183" unicode="}"/><glyph d="M115 721H53V-51H116V-77H26V747H115Z" glyph-name="bracketleft" horiz-adv-x="133" unicode="["/><glyph d="M18 747H107V-77H17V-51H80V721H18Z" glyph-name="bracketright" horiz-adv-x="133" unicode="]"/><glyph d="M264 680Q264 645 246 628.5Q228 612 201 612Q174 612 156.5 628.5Q139 645 139 680H163Q163 657 173.5 646Q184 635 201 635Q219 635 229.5 646Q240 657 240 680Z" glyph-name="breve" horiz-adv-x="400" unicode="˘"/><glyph d="M268 823Q266 791 247.5 773.5Q229 756 200 756Q172 756 153.5 772.5Q135 789 133 823H157Q159 803 170.5 791.5Q182 780 200 780Q219 780 230.5 792Q242 804 244 823Z" glyph-name="breve.uc" horiz-adv-x="400"/><glyph d="M45 747H74V371H45ZM45 307H74V-110H45Z" glyph-name="brokenbar" horiz-adv-x="119" unicode="¦"/><glyph d="M19 340Q19 372 40.5 394Q62 416 94 416Q126 416 148 394Q170 372 170 340Q170 308 148 286Q126 264 94 264Q62 264 40.5 286Q19 308 19 340Z" glyph-name="bullet" horiz-adv-x="188" unicode="•"/><glyph d="M193 105Q193 48 170.5 22.5Q148 -3 109 -3H106Q67 -3 44 23Q21 49 21 105V464Q21 520 44 546Q67 572 106 572H109Q148 572 170.5 546Q193 520 193 464V390H165V465Q165 509 149.5 527.5Q134 546 108 546H106Q81 546 65.5 527.5Q50 509 50 465V104Q50 60 65.5 41.5Q81 23 106 23H108Q133 23 149 41.5Q165 60 165 104V199H193Z" glyph-name="c" horiz-adv-x="213" unicode="c"/><glyph d="M210 613H192L142 656V682L201 638L260 682V656Z" glyph-name="caron" horiz-adv-x="400" unicode="ˇ"/><glyph d="M210 755H191L138 791V816L201 778L263 816V791Z" glyph-name="caron.uc" horiz-adv-x="400"/><glyph d="M63 -118H91Q112 -118 123.5 -111Q135 -104 135 -87Q135 -70 123 -63.5Q111 -57 91 -57H76V0H80Q52 8 36.5 33.5Q21 59 21 105V464Q21 520 44 546Q67 572 106 572H109Q148 572 170.5 546Q193 520 193 464V390H165V465Q165 509 149.5 527.5Q134 546 108 546H106Q81 546 65.5 527.5Q50 509 50 465V104Q50 60 65.5 41.5Q81 23 106 23H108Q133 23 149 41.5Q165 60 165 104V199H193V105Q193 48 170.5 22.5Q148 -3 109 -3H106Q104 -3 101.5 -2.5Q99 -2 97 -2V-37Q125 -37 142.5 -49Q160 -61 160 -87Q160 -139 93 -139H63Z" glyph-name="ccedilla" horiz-adv-x="213" unicode="ç"/><glyph d="M157 -118H185Q206 -118 217.5 -111Q229 -104 229 -87Q229 -70 217 -63.5Q205 -57 185 -57H170V0H191V-37Q219 -37 236.5 -49Q254 -61 254 -87Q254 -139 187 -139H157Z" glyph-name="cedilla" horiz-adv-x="399" unicode="¸"/><glyph d="M112 -2Q77 1 58 27Q39 53 39 105V464Q39 515 58 541.5Q77 568 112 571V638H138V571Q172 568 191 541.5Q210 515 210 464V390H182V465Q182 509 166.5 527.5Q151 546 126 546H124Q99 546 83 527.5Q67 509 67 465V104Q67 60 83 41.5Q99 23 124 23H126Q151 23 166.5 41.5Q182 60 182 104V199H210V105Q210 52 190.5 26.5Q171 1 138 -2V-69H112Z" glyph-name="cent" horiz-adv-x="245" unicode="¢"/><glyph d="M260 643V616L201 660L142 616V643L192 685H210Z" glyph-name="circumflex" horiz-adv-x="400" unicode="ˆ"/><glyph d="M263 786V760L201 798L138 760V786L191 822H210Z" glyph-name="circumflex.uc" horiz-adv-x="400"/><glyph d="M53 54V0H24V54ZM53 455V401H24V455Z" glyph-name="colon" horiz-adv-x="77" unicode=":"/><glyph d="M54 54 42 -53H21L26 54Z" glyph-name="comma" horiz-adv-x="75" unicode=","/><glyph d="M238 448V521Q238 550 229.5 570.5Q221 591 196 591H192Q167 591 158.5 570.5Q150 550 150 521V201Q150 175 158.5 156Q167 137 191 137H196Q220 137 229 155.5Q238 174 238 201V287H265V202Q265 164 250 138Q235 112 196 112H191Q151 112 137 138Q123 164 123 202V520Q123 539 126 556.5Q129 574 137 587.5Q145 601 158 608.5Q171 616 191 616H196Q217 616 230 608.5Q243 601 251 588Q259 575 262 557.5Q265 540 265 520V448ZM23 465Q23 593 60.5 663.5Q98 734 188 734H196Q242 734 273.5 716Q305 698 324 663.5Q343 629 351.5 579Q360 529 360 465V263Q360 126 318.5 60Q277 -6 196 -6H188Q100 -6 61.5 60Q23 126 23 263ZM47 263Q47 141 79 78Q111 15 188 15H196Q268 15 302 78Q336 141 336 263V465Q336 522 329.5 568Q323 614 306.5 646Q290 678 263 695.5Q236 713 196 713H188Q148 713 121 695.5Q94 678 77.5 646Q61 614 54 568Q47 522 47 465Z" glyph-name="copyright" horiz-adv-x="383" unicode="©"/><glyph d="M196 0H108Q65 0 44 23.5Q23 47 23 108V462Q23 523 44.5 546Q66 569 108 569H167V728H196ZM167 543H113Q84 543 68 526.5Q52 510 52 462V107Q52 59 68 42.5Q84 26 113 26H167Z" glyph-name="d" horiz-adv-x="220" unicode="d"/><glyph d="M9 585H71V728H98V585H160V560H98V0H71V560H9Z" glyph-name="dagger" horiz-adv-x="169" unicode="†"/><glyph d="M9 585H71V728H98V585H160V560H98V168H160V143H98V0H71V143H9V168H71V560H9Z" glyph-name="daggerdbl" horiz-adv-x="169" unicode="‡"/><glyph d="M14 661Q14 692 34.5 713.5Q55 735 88 735Q120 735 141 713.5Q162 692 162 661Q162 630 141 608.5Q120 587 88 587Q55 587 34.5 608.5Q14 630 14 661ZM36 661Q36 639 50.5 624Q65 609 88 609Q111 609 125 624Q139 639 139 661Q139 683 125 698Q111 713 88 713Q65 713 50.5 698Q36 683 36 661Z" glyph-name="degree" horiz-adv-x="175" unicode="°"/><glyph d="M155 678H184V631H155ZM224 678H253V631H224Z" glyph-name="dieresis" horiz-adv-x="401" unicode="¨"/><glyph d="M149 816H178V769H149ZM224 816H252V769H224Z" glyph-name="dieresis.uc" horiz-adv-x="401"/><glyph d="M14 290V314H194V290ZM90 251H117V193H90ZM90 409H117V351H90Z" glyph-name="divide" horiz-adv-x="208" unicode="÷"/><glyph d="M185 619Q185 664 170 684Q155 704 130 707V399L166 356Q177 342 186 329.5Q195 317 201 303.5Q207 290 210 274Q213 258 213 237V112Q213 53 191 26Q169 -1 130 -4V-62H104V-4Q66 -1 44.5 26Q23 53 23 112V248H51V110Q51 66 65 45.5Q79 25 104 21V385L70 426Q51 449 37 475Q23 501 23 543V617Q23 675 44.5 702.5Q66 730 104 733V789H130V733Q169 730 191 703Q213 676 213 617V510H185ZM130 354V21Q154 25 169.5 45Q185 65 185 110V236Q185 270 175 291Q165 312 146 335ZM104 431V707Q80 703 65.5 683Q51 663 51 619V543Q51 511 62.5 489.5Q74 468 89 449Z" glyph-name="dollar" horiz-adv-x="234" unicode="$"/><glyph d="M185 679H214V631H185Z" glyph-name="dotaccent" horiz-adv-x="399" unicode="˙"/><glyph d="M186 816H215V767H186Z" glyph-name="dotaccent.uc" horiz-adv-x="399"/><glyph d="M53 569V0H24V569Z" glyph-name="dotlessi" horiz-adv-x="77" unicode="ı"/><glyph d="M50 288V104Q50 60 66.5 41.5Q83 23 108 23H110Q134 23 150.5 41.5Q167 60 167 104V199H195V105Q195 49 171.5 23Q148 -3 110 -3H107Q68 -3 44.5 23Q21 49 21 105V464Q21 520 44.5 546Q68 572 107 572H110Q148 572 171.5 546Q195 520 195 464V288ZM50 313H166V465Q166 509 150 527.5Q134 546 109 546H107Q83 546 66.5 527.5Q50 509 50 465Z" glyph-name="e" horiz-adv-x="215" unicode="e"/><glyph d="M58 645 163 688V659L58 619ZM50 288V104Q50 60 66.5 41.5Q83 23 108 23H110Q134 23 150.5 41.5Q167 60 167 104V199H195V105Q195 49 171.5 23Q148 -3 110 -3H107Q68 -3 44.5 23Q21 49 21 105V464Q21 520 44.5 546Q68 572 107 572H110Q148 572 171.5 546Q195 520 195 464V288ZM50 313H166V465Q166 509 150 527.5Q134 546 109 546H107Q83 546 66.5 527.5Q50 509 50 465Z" glyph-name="eacute" horiz-adv-x="215" unicode="é"/><glyph d="M169 643V616L110 660L51 616V643L101 685H119ZM50 288V104Q50 60 66.5 41.5Q83 23 108 23H110Q134 23 150.5 41.5Q167 60 167 104V199H195V105Q195 49 171.5 23Q148 -3 110 -3H107Q68 -3 44.5 23Q21 49 21 105V464Q21 520 44.5 546Q68 572 107 572H110Q148 572 171.5 546Q195 520 195 464V288ZM50 313H166V465Q166 509 150 527.5Q134 546 109 546H107Q83 546 66.5 527.5Q50 509 50 465Z" glyph-name="ecircumflex" horiz-adv-x="215" unicode="ê"/><glyph d="M61 678H90V631H61ZM130 678H159V631H130ZM50 288V104Q50 60 66.5 41.5Q83 23 108 23H110Q134 23 150.5 41.5Q167 60 167 104V199H195V105Q195 49 171.5 23Q148 -3 110 -3H107Q68 -3 44.5 23Q21 49 21 105V464Q21 520 44.5 546Q68 572 107 572H110Q148 572 171.5 546Q195 520 195 464V288ZM50 313H166V465Q166 509 150 527.5Q134 546 109 546H107Q83 546 66.5 527.5Q50 509 50 465Z" glyph-name="edieresis" horiz-adv-x="215" unicode="ë"/><glyph d="M50 288V104Q50 60 66.5 41.5Q83 23 108 23H110Q134 23 150.5 41.5Q167 60 167 104V199H195V105Q195 49 171.5 23Q148 -3 110 -3H107Q68 -3 44.5 23Q21 49 21 105V464Q21 520 44.5 546Q68 572 107 572H110Q148 572 171.5 546Q195 520 195 464V288ZM50 313H166V465Q166 509 150 527.5Q134 546 109 546H107Q83 546 66.5 527.5Q50 509 50 465ZM158 619 52 659V689L158 645Z" glyph-name="egrave" horiz-adv-x="215" unicode="è"/><glyph d="M22 618Q22 680 47 707Q72 734 116 734H120Q163 734 188.5 707Q214 680 214 618V531Q214 481 198 455Q182 429 153 422Q181 416 198 391Q215 366 215 314V111Q215 49 189 22Q163 -5 120 -5H116Q72 -5 46.5 22Q21 49 21 111V314Q21 366 37.5 391Q54 416 82 422Q54 429 38 455Q22 481 22 531ZM186 319Q186 369 166.5 388.5Q147 408 119 408H116Q88 408 68.5 388.5Q49 369 49 319V110Q49 61 68 41Q87 21 116 21H119Q148 21 167 41Q186 61 186 110ZM186 619Q186 668 167 688Q148 708 119 708H116Q87 708 68.5 688Q50 668 50 619V524Q50 434 116 434H119Q186 434 186 524Z" glyph-name="eight" horiz-adv-x="235" unicode="8"/><glyph d="M24 49H53V0H24ZM93 49H122V0H93ZM161 49H190V0H161Z" glyph-name="ellipsis" horiz-adv-x="214" unicode="…"/><glyph d="M16 315H390V289H16Z" glyph-name="emdash" horiz-adv-x="406" unicode="—"/><glyph d="M16 315H200V289H16Z" glyph-name="endash" horiz-adv-x="216" unicode="–"/><glyph d="M230 374V351H10V374ZM230 299V277H10V299Z" glyph-name="equal" horiz-adv-x="240" unicode="="/><glyph d="M64 637 107 661 76 728H104L129 673L179 701V680L137 657L183 560Q194 536 198.5 513.5Q203 491 203 451V105Q203 49 179 23Q155 -3 114 -3H110Q69 -3 45 23Q21 49 21 105V464Q21 520 44.5 546Q68 572 105 572H107Q125 572 137 567Q149 562 156 556L115 644L64 616ZM50 104Q50 60 67.5 41.5Q85 23 111 23H113Q139 23 156.5 41.5Q174 60 174 104V465Q174 509 157 527.5Q140 546 113 546H111Q85 546 67.5 527.5Q50 509 50 465Z" glyph-name="eth" horiz-adv-x="224" unicode="ð"/><glyph d="M26 136V728H55V136ZM55 49V0H26V49Z" glyph-name="exclam" horiz-adv-x="80" unicode="!"/><glyph d="M62 -133H33V458H62ZM62 546H33V595H62Z" glyph-name="exclamdown" horiz-adv-x="94" unicode="¡"/><glyph d="M73 543V0H44V543H5V569H44V635Q44 686 57 707Q70 728 104 728H122V702H107Q89 702 81 687.5Q73 673 73 637V569H122V543Z" glyph-name="f" horiz-adv-x="127" unicode="f"/><glyph d="M117 476Q168 476 192 454Q216 432 216 369V115Q216 52 190.5 23.5Q165 -5 122 -5H117Q75 -5 50.5 23.5Q26 52 26 115V248H54V112Q54 64 72 42.5Q90 21 119 21H121Q150 21 168.5 42.5Q187 64 187 112V370Q187 421 169 435.5Q151 450 114 450H25V728H216V702H53V476Z" glyph-name="five" horiz-adv-x="238" unicode="5"/><glyph d="M84 478 75 -133H46L55 478H12V503H55L57 617Q58 677 77.5 702.5Q97 728 143 728H166V702H146Q116 702 101.5 683.5Q87 665 86 618L84 503H166V478Z" glyph-name="florin" horiz-adv-x="183" unicode="ƒ"/><glyph d="M180 134V0H152V134H9V157L138 728H180V159H212V134ZM152 159V687L36 159Z" glyph-name="four" horiz-adv-x="217" unicode="4"/><glyph d="M248 728H273L33 0H9Z" glyph-name="fraction" horiz-adv-x="281" unicode="⁄"/><glyph d="M165 543H109Q81 543 65.5 527Q50 511 50 464V105Q50 58 65 42Q80 26 109 26H165ZM165 0H106Q61 0 41 23Q21 46 21 107V462Q21 523 42 546Q63 569 106 569H194V-35Q194 -92 174.5 -115.5Q155 -139 117 -139H113Q75 -139 52 -115Q29 -91 30 -37V-32H57V-38Q57 -82 73.5 -97.5Q90 -113 114 -113H116Q141 -113 153 -97Q165 -81 165 -37Z" glyph-name="g" horiz-adv-x="218" unicode="g"/><glyph d="M89 428H116Q139 428 154.5 444.5Q170 461 170 500V629Q170 708 114 708H110Q78 708 65 687.5Q52 667 52 629V0H24V628Q24 679 43.5 706.5Q63 734 109 734H115Q159 734 179 706.5Q199 679 199 628V507Q199 469 187.5 447.5Q176 426 153 418Q180 411 194 389.5Q208 368 208 323V107Q208 53 184 26.5Q160 0 117 0H91V26H116Q144 26 161.5 45.5Q179 65 179 107V327Q179 371 162 387Q145 403 119 403H89Z" glyph-name="germandbls" horiz-adv-x="226" unicode="ß"/><glyph d="M248 619 142 659V689L248 645Z" glyph-name="grave" horiz-adv-x="400" unicode="`"/><glyph d="M262 758 164 794V821L262 783Z" glyph-name="grave.uc" horiz-adv-x="401"/><glyph d="M17 397 190 315V292L17 211V237L163 304L17 371Z" glyph-name="greater" horiz-adv-x="207" unicode="&gt;"/><glyph d="M108 252 160 101H135L81 252L135 403H160ZM40 252 94 101H68L16 242V262L68 403H94Z" glyph-name="guillemotleft" horiz-adv-x="176" unicode="«"/><glyph d="M68 252 16 403H41L95 252L41 101H16ZM136 252 82 403H108L160 262V242L108 101H82Z" glyph-name="guillemotright" horiz-adv-x="176" unicode="»"/><glyph d="M40 252 93 101H67L16 242V262L67 403H93Z" glyph-name="guilsinglleft" horiz-adv-x="108" unicode="‹"/><glyph d="M69 252 16 403H41L93 262V242L41 101H16Z" glyph-name="guilsinglright" horiz-adv-x="108" unicode="›"/><glyph d="M166 459Q166 510 154.5 526.5Q143 543 108 543H53V0H24V728H53V569H112Q136 569 152 563.5Q168 558 177.5 545.5Q187 533 190.5 511.5Q194 490 194 458V0H166Z" glyph-name="h" horiz-adv-x="217" unicode="h"/><glyph d="M190 708 172 618H149L166 708ZM245 708 227 618H204L221 708Z" glyph-name="hungarumlaut" horiz-adv-x="400" unicode="˝"/><glyph d="M244 837 225 755H201L220 837ZM187 837 168 755H145L163 837Z" glyph-name="hungarumlaut.uc" horiz-adv-x="400"/><glyph d="M16 315H120V289H16Z" glyph-name="hyphen" horiz-adv-x="136" unicode="-"/><glyph d="M53 569V0H24V569ZM24 631V679H53V631Z" glyph-name="i" horiz-adv-x="77" unicode="i"/><glyph d="M86 688V659L-8 619V645ZM53 569V0H24V569Z" glyph-name="iacute" horiz-adv-x="77" unicode="í"/><glyph d="M99 643V616L40 660L-19 616V643L31 685H49ZM53 569V0H24V569Z" glyph-name="icircumflex" horiz-adv-x="77" unicode="î"/><glyph d="M19 678V631H-9V678ZM87 678V631H58V678ZM53 569V0H24V569Z" glyph-name="idieresis" horiz-adv-x="77" unicode="ï"/><glyph d="M53 569V0H24V569ZM88 619 -18 659V689L88 645Z" glyph-name="igrave" horiz-adv-x="77" unicode="ì"/><glyph d="M-29 -113H-16Q7 -113 15.5 -98.5Q24 -84 24 -48V569H53V-46Q53 -97 38.5 -118Q24 -139 -12 -139H-29ZM24 631V679H53V631Z" glyph-name="j" horiz-adv-x="77" unicode="j"/><glyph d="M194 569 80 283 196 0H165L53 281V0H24V728H53V286L166 569Z" glyph-name="k" horiz-adv-x="198" unicode="k"/><glyph d="M53 0H24V728H53Z" glyph-name="l" horiz-adv-x="77" unicode="l"/><glyph d="M190 371 45 304 190 237V211L17 292V315L190 397Z" glyph-name="less" horiz-adv-x="207" unicode="&lt;"/><glyph d="M62 432 98 457V430L62 405V0H33V386L1 364V391L33 413V728H62Z" glyph-name="lslash" horiz-adv-x="98" unicode="ł"/><glyph d="M258 459Q258 510 246.5 526.5Q235 543 200 543H170V0H141V543H53V0H24V569H204Q228 569 244 563.5Q260 558 269.5 545Q279 532 282.5 510.5Q286 489 286 457V0H258Z" glyph-name="m" horiz-adv-x="309" unicode="m"/><glyph d="M254 636H146V662H254Z" glyph-name="macron" horiz-adv-x="400" unicode="¯"/><glyph d="M260 778H139V801H260Z" glyph-name="macron.uc" horiz-adv-x="400"/><glyph d="M10 290V314H191V290Z" glyph-name="minus" horiz-adv-x="201" unicode="−"/><glyph d="M26 246 80 302 26 357 43 375 97 319 151 375 168 358 114 302 168 247 151 230 97 285 43 230Z" glyph-name="multiply" horiz-adv-x="194" unicode="×"/><glyph d="M168 459Q168 510 156.5 526.5Q145 543 110 543H53V0H24V569H114Q138 569 154 563.5Q170 558 179.5 545Q189 532 192.5 510.5Q196 489 196 457V0H168Z" glyph-name="n" horiz-adv-x="219" unicode="n"/><glyph d="M123 21Q152 21 171 42.5Q190 64 190 113V299H121Q71 299 47.5 322Q24 345 24 408V615Q24 677 50 705.5Q76 734 120 734H124Q167 734 193 705.5Q219 677 219 615V114Q219 52 193 23.5Q167 -5 124 -5H120Q76 -5 50.5 23.5Q25 52 25 114V219H53V113Q53 64 72 42.5Q91 21 120 21ZM53 407Q53 382 57.5 366Q62 350 71.5 341Q81 332 94.5 328.5Q108 325 126 325H190V616Q190 665 171 686.5Q152 708 123 708H120Q91 708 72 686.5Q53 665 53 616Z" glyph-name="nine" horiz-adv-x="243" unicode="9"/><glyph d="M168 459Q168 510 156.5 526.5Q145 543 110 543H53V0H24V569H114Q138 569 154 563.5Q170 558 179.5 545Q189 532 192.5 510.5Q196 489 196 457V0H168ZM35 623Q35 646 44 661.5Q53 677 73 677Q83 677 91.5 672.5Q100 668 107.5 662Q115 656 122.5 651.5Q130 647 139 647Q148 647 152.5 655Q157 663 157 676H180Q179 653 171 637.5Q163 622 143 622Q131 622 122 626.5Q113 631 105.5 637Q98 643 91 647.5Q84 652 77 652Q66 652 62 643Q58 634 57 623Z" glyph-name="ntilde" horiz-adv-x="219" unicode="ñ"/><glyph d="M154 299H75L53 0H28L50 299H2V324H52L62 459H14V485H64L83 728H108L89 485H168L187 728H212L193 485H237V459H191L181 324H228V299H179L157 0H132ZM77 324H156L166 459H87Z" glyph-name="numbersign" horiz-adv-x="242" unicode="#"/><glyph d="M50 104Q50 60 67.5 41.5Q85 23 111 23H113Q139 23 156.5 41.5Q174 60 174 104V465Q174 509 157 527.5Q140 546 113 546H111Q85 546 67.5 527.5Q50 509 50 465ZM21 464Q21 520 45 546Q69 572 110 572H114Q155 572 179 546Q203 520 203 464V105Q203 49 179 23Q155 -3 114 -3H110Q69 -3 45 23Q21 49 21 105Z" glyph-name="o" horiz-adv-x="224" unicode="o"/><glyph d="M61 645 166 688V659L61 619ZM50 104Q50 60 67.5 41.5Q85 23 111 23H113Q139 23 156.5 41.5Q174 60 174 104V465Q174 509 157 527.5Q140 546 113 546H111Q85 546 67.5 527.5Q50 509 50 465ZM21 464Q21 520 45 546Q69 572 110 572H114Q155 572 179 546Q203 520 203 464V105Q203 49 179 23Q155 -3 114 -3H110Q69 -3 45 23Q21 49 21 105Z" glyph-name="oacute" horiz-adv-x="224" unicode="ó"/><glyph d="M172 643V616L113 660L54 616V643L104 685H122ZM50 104Q50 60 67.5 41.5Q85 23 111 23H113Q139 23 156.5 41.5Q174 60 174 104V465Q174 509 157 527.5Q140 546 113 546H111Q85 546 67.5 527.5Q50 509 50 465ZM21 464Q21 520 45 546Q69 572 110 572H114Q155 572 179 546Q203 520 203 464V105Q203 49 179 23Q155 -3 114 -3H110Q69 -3 45 23Q21 49 21 105Z" glyph-name="ocircumflex" horiz-adv-x="224" unicode="ô"/><glyph d="M64 678H93V631H64ZM133 678H162V631H133ZM50 104Q50 60 67.5 41.5Q85 23 111 23H113Q139 23 156.5 41.5Q174 60 174 104V465Q174 509 157 527.5Q140 546 113 546H111Q85 546 67.5 527.5Q50 509 50 465ZM21 464Q21 520 45 546Q69 572 110 572H114Q155 572 179 546Q203 520 203 464V105Q203 49 179 23Q155 -3 114 -3H110Q69 -3 45 23Q21 49 21 105Z" glyph-name="odieresis" horiz-adv-x="224" unicode="ö"/><glyph d="M348 199V105Q348 49 324.5 23Q301 -3 263 -3H259Q233 -3 214 11Q195 25 188 53Q182 25 162 11Q142 -3 114 -3H110Q69 -3 45 23Q21 49 21 105V464Q21 520 44.5 546Q68 572 110 572H113Q142 572 162.5 558Q183 544 188 516Q195 545 214 558.5Q233 572 259 572H263Q301 572 324.5 546Q348 520 348 464V288H203V104Q203 59 220 41Q237 23 260 23H262Q287 23 303.5 41.5Q320 60 320 104V199ZM50 104Q50 60 67.5 41.5Q85 23 111 23H113Q139 23 156.5 41.5Q174 60 174 104V465Q174 509 157 527.5Q140 546 113 546H111Q85 546 67.5 527.5Q50 509 50 465ZM203 313H319V465Q319 509 302.5 527.5Q286 546 262 546H260Q236 546 219.5 527.5Q203 509 203 465Z" glyph-name="oe" horiz-adv-x="367" unicode="œ"/><glyph d="M237 -139H224Q192 -139 177 -124Q162 -109 162 -88Q162 -63 173 -41.5Q184 -20 204 0H229Q212 -17 199.5 -38.5Q187 -60 187 -84Q187 -98 197 -108.5Q207 -119 228 -119H237Z" glyph-name="ogonek" horiz-adv-x="401" unicode="˛"/><glyph d="M50 104Q50 60 67.5 41.5Q85 23 111 23H113Q139 23 156.5 41.5Q174 60 174 104V465Q174 509 157 527.5Q140 546 113 546H111Q85 546 67.5 527.5Q50 509 50 465ZM21 464Q21 520 45 546Q69 572 110 572H114Q155 572 179 546Q203 520 203 464V105Q203 49 179 23Q155 -3 114 -3H110Q69 -3 45 23Q21 49 21 105ZM162 619 56 659V689L162 645Z" glyph-name="ograve" horiz-adv-x="224" unicode="ò"/><glyph d="M52 702H6V728H81V0H52Z" glyph-name="one" horiz-adv-x="115" unicode="1"/><glyph d="M243 728H267L27 0H3ZM223 167Q236 180 240.5 190.5Q245 201 245 218V266Q245 293 235.5 302.5Q226 312 214 312H210Q192 312 186.5 298.5Q181 285 181 267V215H158V264Q158 292 168.5 313Q179 334 210 334H215Q237 334 253 318.5Q269 303 269 264V221Q269 197 261.5 180.5Q254 164 239 150L208 119Q199 109 193.5 101Q188 93 185 85.5Q182 78 181.5 69.5Q181 61 181 50V23H274V0H156V44Q156 59 157 70.5Q158 82 161.5 92.5Q165 103 172.5 114Q180 125 192 137ZM70 706H37V728H94V404H70Z" glyph-name="onehalf" horiz-adv-x="298" unicode="½"/><glyph d="M127 85 199 329H233V89H256V66H233V0H210V66H127ZM243 728H267L27 0H3ZM70 706H37V728H94V404H70ZM210 89V301L148 89Z" glyph-name="onequarter" horiz-adv-x="282" unicode="¼"/><glyph d="M88 383Q19 383 19 461V504Q19 547 37 562.5Q55 578 88 578H118V664Q118 688 109.5 700Q101 712 81 712H80Q60 712 53 698Q46 684 46 664V618H24V663Q24 692 36.5 712.5Q49 733 79 733H80Q140 733 140 663V383ZM118 404V558H88Q66 558 53.5 547Q41 536 41 504V461Q41 404 88 404Z" glyph-name="ordfeminine" horiz-adv-x="159" unicode="ª"/><glyph d="M19 644Q19 733 82 733H84Q118 733 133 710Q148 687 148 644V470Q148 426 132.5 402Q117 378 84 378H82Q49 378 34 402Q19 426 19 470ZM42 471Q42 438 50.5 419Q59 400 82 400H84Q107 400 116 419Q125 438 125 471V643Q125 676 116 693.5Q107 711 84 711H82Q59 711 50.5 693.5Q42 676 42 643Z" glyph-name="ordmasculine" horiz-adv-x="167" unicode="º"/><glyph d="M31 464Q31 520 55 546Q79 572 120 572H124Q156 572 178 556L186 588H208L195 537Q203 524 208 506Q213 488 213 464V105Q213 49 189 23Q165 -3 124 -3H120Q81 -3 59 19L49 -19H27L43 41Q31 65 31 105ZM186 465Q186 474 185 482Q184 490 182 498L70 47Q87 21 121 21H123Q150 21 168 40Q186 59 186 104ZM57 104Q57 97 57 91Q57 85 58 80L169 527Q152 548 123 548H121Q93 548 75 529Q57 510 57 465Z" glyph-name="oslash" horiz-adv-x="234" unicode="ø"/><glyph d="M50 104Q50 60 67.5 41.5Q85 23 111 23H113Q139 23 156.5 41.5Q174 60 174 104V465Q174 509 157 527.5Q140 546 113 546H111Q85 546 67.5 527.5Q50 509 50 465ZM21 464Q21 520 45 546Q69 572 110 572H114Q155 572 179 546Q203 520 203 464V105Q203 49 179 23Q155 -3 114 -3H110Q69 -3 45 23Q21 49 21 105ZM40 623Q40 646 49 661.5Q58 677 78 677Q88 677 96.5 672.5Q105 668 112.5 662Q120 656 127.5 651.5Q135 647 144 647Q153 647 157.5 655Q162 663 162 676H185Q184 653 176 637.5Q168 622 148 622Q136 622 127 626.5Q118 631 110.5 637Q103 643 96 647.5Q89 652 82 652Q71 652 67 643Q63 634 62 623Z" glyph-name="otilde" horiz-adv-x="224" unicode="õ"/><glyph d="M24 569H111Q155 569 176 546Q197 523 197 461V108Q197 47 175 23.5Q153 0 111 0H53V-139H24ZM53 26H107Q136 26 152 42.5Q168 59 168 107V462Q168 510 152 526.5Q136 543 107 543H53Z" glyph-name="p" horiz-adv-x="220" unicode="p"/><glyph d="M231 0H207V705H161V0H137V428H127Q73 428 46 461.5Q19 495 19 567V590Q19 656 42.5 692Q66 728 126 728H231Z" glyph-name="paragraph" horiz-adv-x="254" unicode="¶"/><glyph d="M26 614Q26 682 50.5 714.5Q75 747 116 747H122V721H120Q90 721 71.5 694.5Q53 668 53 614V57Q53 2 71.5 -24.5Q90 -51 120 -51H123V-77H116Q75 -77 50.5 -44.5Q26 -12 26 57Z" glyph-name="parenleft" horiz-adv-x="141" unicode="("/><glyph d="M115 57Q115 -12 90.5 -44.5Q66 -77 25 -77H18V-51H21Q51 -51 69.5 -24.5Q88 2 88 57V614Q88 668 69.5 694.5Q51 721 21 721H19V747H25Q66 747 90.5 714.5Q115 682 115 614Z" glyph-name="parenright" horiz-adv-x="141" unicode=")"/><glyph d="M17 657Q17 693 32 713.5Q47 734 79 734H82Q114 734 128.5 714Q143 694 143 657V512Q143 479 127 459Q111 439 82 439H79Q47 439 32 459Q17 479 17 512ZM119 660Q119 685 110 699Q101 713 81 713H79Q59 713 50 699Q41 685 41 660V509Q41 488 49.5 474Q58 460 79 460H81Q101 460 110 474Q119 488 119 509ZM247 728H270L44 0H20ZM146 212Q146 248 161 268.5Q176 289 208 289H211Q243 289 257.5 268.5Q272 248 272 212V66Q272 34 256 14Q240 -6 211 -6H208Q176 -6 161 13.5Q146 33 146 66ZM248 214Q248 239 239 253Q230 267 210 267H208Q188 267 179 253Q170 239 170 214V64Q170 42 178.5 28.5Q187 15 208 15H210Q230 15 239 28.5Q248 42 248 64Z" glyph-name="percent" horiz-adv-x="290" unicode="%"/><glyph d="M53 54V0H24V54Z" glyph-name="period" horiz-adv-x="77" unicode="."/><glyph d="M35 373H64V319H35Z" glyph-name="periodcentered" horiz-adv-x="99" unicode="·"/><glyph d="M119 660Q119 685 110 699Q101 713 81 713H79Q59 713 50 699Q41 685 41 660V509Q41 488 49.5 474Q58 460 79 460H81Q101 460 110 474Q119 488 119 509ZM143 512Q143 479 127 459Q111 439 82 439H79Q47 439 32 459Q17 479 17 512V657Q17 693 32 713.5Q47 734 79 734H82Q114 734 128.5 714Q143 694 143 657ZM20 0 247 728H270L44 0ZM248 214Q248 239 239 253Q230 267 210 267H208Q188 267 179 253Q170 239 170 214V64Q170 42 178.5 28.5Q187 15 208 15H210Q230 15 239 28.5Q248 42 248 64ZM272 66Q272 34 256 14Q240 -6 211 -6H208Q176 -6 161 13.5Q146 33 146 66V212Q146 248 161 268.5Q176 289 208 289H211Q243 289 257.5 268.5Q272 248 272 212ZM401 214Q401 239 392 253Q383 267 363 267H361Q341 267 331.5 253Q322 239 322 214V64Q322 42 331 28.5Q340 15 361 15H363Q383 15 392 28.5Q401 42 401 64ZM425 66Q425 34 409 14Q393 -6 363 -6H360Q329 -6 314 13.5Q299 33 299 66V212Q299 248 314 268.5Q329 289 360 289H363Q395 289 410 268.5Q425 248 425 212Z" glyph-name="perthousand" horiz-adv-x="442" unicode="‰"/><glyph d="M113 290V200H88V290H10V314H88V402H113V314H191V290Z" glyph-name="plus" horiz-adv-x="201" unicode="+"/><glyph d="M196 -139H167V0H108Q66 0 44.5 23.5Q23 47 23 108V461Q23 523 44 546Q65 569 108 569H196ZM167 543H113Q84 543 68 526.5Q52 510 52 462V107Q52 59 68 42.5Q84 26 113 26H167Z" glyph-name="q" horiz-adv-x="220" unicode="q"/><glyph d="M111 363Q141 363 159.5 383.5Q178 404 178 452V619Q178 668 160.5 688Q143 708 114 708H112Q83 708 64.5 688Q46 668 46 619V510H18V617Q18 680 42.5 707Q67 734 110 734H115Q158 734 182.5 707Q207 680 207 617V455Q207 392 183 365Q159 338 119 338H115V136H87V363ZM116 49V0H87V49Z" glyph-name="question" horiz-adv-x="229" unicode="?"/><glyph d="M126 229Q95 229 77 209Q59 189 59 140V-27Q59 -75 76.5 -95.5Q94 -116 123 -116H125Q154 -116 172 -95.5Q190 -75 190 -27V83H218V-25Q218 -87 194 -114Q170 -141 127 -141H122Q78 -141 54 -114Q30 -87 30 -25V138Q30 201 54 228Q78 255 118 255H122V456H149V229ZM150 546H121V595H150Z" glyph-name="questiondown" horiz-adv-x="243" unicode="¿"/><glyph d="M50 728V639H26V728ZM96 728V639H72V728Z" glyph-name="quotedbl" horiz-adv-x="122" unicode="&quot;"/><glyph d="M47 56 35 -50H14L19 56ZM96 56 84 -50H64L68 56Z" glyph-name="quotedblbase" horiz-adv-x="109" unicode="„"/><glyph d="M12 623 25 728H45L41 623ZM62 623 74 728H94L90 623Z" glyph-name="quotedblleft" horiz-adv-x="109" unicode="“"/><glyph d="M47 728 35 623H14L19 728ZM96 728 84 623H63L68 728Z" glyph-name="quotedblright" horiz-adv-x="109" unicode="”"/><glyph d="M12 622 24 727H45L40 622Z" glyph-name="quoteleft" horiz-adv-x="59" unicode="‘"/><glyph d="M47 728 35 623H14L19 728Z" glyph-name="quoteright" horiz-adv-x="59" unicode="’"/><glyph d="M47 56 35 -50H14L19 56Z" glyph-name="quotesinglbase" horiz-adv-x="60" unicode="‚"/><glyph d="M50 728V639H26V728Z" glyph-name="quotesingle" horiz-adv-x="76" unicode="'"/><glyph d="M128 543H108Q91 543 80 539Q69 535 63 525.5Q57 516 54.5 499Q52 482 52 456V0H24V455Q24 488 27.5 510Q31 532 40 545Q49 558 64.5 563.5Q80 569 103 569H128Z" glyph-name="r" horiz-adv-x="134" unicode="r"/><glyph d="M14 602Q14 666 37.5 699.5Q61 733 112 733H114Q214 733 214 602V566Q214 504 189.5 470Q165 436 114 436H112Q61 436 37.5 469.5Q14 503 14 566ZM31 566Q31 512 49.5 482Q68 452 112 452H115Q158 452 177 482Q196 512 196 566V602Q196 658 177 687.5Q158 717 115 717H112Q67 717 49 687.5Q31 658 31 602ZM136 497V560Q136 583 113 583H94V497H76V676H115Q134 676 144.5 666Q155 656 155 632V626Q155 613 150 603.5Q145 594 134 591Q154 585 154 561V497ZM113 597Q137 597 137 626V630Q137 661 110 661H94V597Z" glyph-name="registered" horiz-adv-x="227" unicode="®"/><glyph d="M257 662Q257 639 242 624Q227 609 201 609Q177 609 162 624Q147 639 147 662Q147 688 162 703.5Q177 719 201 719Q227 719 242 703.5Q257 688 257 662ZM236 662Q236 679 227 689Q218 699 201 699Q186 699 177 688.5Q168 678 168 662Q168 648 177 638Q186 628 201 628Q218 628 227 638Q236 648 236 662Z" glyph-name="ring" horiz-adv-x="400" unicode="˚"/><glyph d="M255 806Q255 783 239.5 769Q224 755 199 755Q176 755 160.5 769Q145 783 145 806Q145 832 160.5 846Q176 860 199 860Q224 860 239.5 846Q255 832 255 806ZM234 806Q234 822 224.5 831.5Q215 841 199 841Q184 841 175 831.5Q166 822 166 806Q166 792 175 783Q184 774 199 774Q215 774 224.5 783Q234 792 234 806Z" glyph-name="ring.uc" horiz-adv-x="400"/><glyph d="M152 270Q162 259 169.5 248.5Q177 238 181.5 226Q186 214 188 199Q190 184 190 164V105Q190 49 167.5 23Q145 -3 106 -3H103Q63 -3 41 23Q19 49 19 105V198H47V104Q47 60 62.5 41.5Q78 23 103 23H105Q131 23 146.5 41.5Q162 60 162 104V163Q162 195 156 212.5Q150 230 133 247L64 318Q53 328 45 337.5Q37 347 31.5 358.5Q26 370 23 385Q20 400 20 421V463Q20 520 40.5 546Q61 572 103 572H106Q147 572 167 546Q187 520 187 463V391H160V465Q160 509 146 527.5Q132 546 105 546H103Q77 546 62 527.5Q47 509 47 465V423Q47 391 56 374.5Q65 358 82 341Z" glyph-name="s" horiz-adv-x="209" unicode="s"/><glyph d="M115 613H97L47 656V682L106 638L165 682V656ZM152 270Q162 259 169.5 248.5Q177 238 181.5 226Q186 214 188 199Q190 184 190 164V105Q190 49 167.5 23Q145 -3 106 -3H103Q63 -3 41 23Q19 49 19 105V198H47V104Q47 60 62.5 41.5Q78 23 103 23H105Q131 23 146.5 41.5Q162 60 162 104V163Q162 195 156 212.5Q150 230 133 247L64 318Q53 328 45 337.5Q37 347 31.5 358.5Q26 370 23 385Q20 400 20 421V463Q20 520 40.5 546Q61 572 103 572H106Q147 572 167 546Q187 520 187 463V391H160V465Q160 509 146 527.5Q132 546 105 546H103Q77 546 62 527.5Q47 509 47 465V423Q47 391 56 374.5Q65 358 82 341Z" glyph-name="scaron" horiz-adv-x="209" unicode="š"/><glyph d="M56 95V17Q56 -31 74 -52Q92 -73 122 -73H127Q194 -73 194 15V81Q194 108 186 120Q178 132 161 146L82 214Q64 229 52.5 242.5Q41 256 34 271.5Q27 287 24.5 306.5Q22 326 22 353V619Q22 675 45.5 704.5Q69 734 117 734H123Q167 734 191 706.5Q215 679 215 617V549H187V618Q187 666 169.5 687Q152 708 122 708H118Q51 708 51 620V573Q51 561 52.5 552Q54 543 58 536Q62 529 68.5 522.5Q75 516 84 508L163 440Q181 425 193 411.5Q205 398 211.5 382Q218 366 220.5 346.5Q223 327 223 300V16Q223 -40 199 -69.5Q175 -99 127 -99H121Q78 -99 53 -71.5Q28 -44 28 18V95ZM173 174Q180 168 185 163Q190 158 194 153V299Q194 321 192 337.5Q190 354 184.5 367.5Q179 381 170 392.5Q161 404 147 416L72 480Q64 486 59 491Q54 496 51 502V353Q51 330 53.5 314Q56 298 61.5 285Q67 272 76 261Q85 250 98 238Z" glyph-name="section" horiz-adv-x="245" unicode="§"/><glyph d="M54 54 42 -53H21L26 54ZM53 455V401H24V455Z" glyph-name="semicolon" horiz-adv-x="78" unicode=";"/><glyph d="M153 702H7V728H182V714L80 0H51Z" glyph-name="seven" horiz-adv-x="194" unicode="7"/><glyph d="M53 430H122Q171 430 195 406.5Q219 383 219 321V114Q219 52 193 23.5Q167 -5 123 -5H119Q76 -5 50 23.5Q24 52 24 114V615Q24 677 50 705.5Q76 734 119 734H123Q167 734 192.5 705.5Q218 677 218 615V510H190V616Q190 665 170.5 686.5Q151 708 122 708H120Q91 708 72 686.5Q53 665 53 616ZM53 404V113Q53 64 72 42.5Q91 21 120 21H123Q152 21 171 42.5Q190 64 190 113V322Q190 371 171.5 387.5Q153 404 117 404Z" glyph-name="six" horiz-adv-x="243" unicode="6"/><glyph d="M112 747H138L21 -77H-6Z" glyph-name="slash" horiz-adv-x="140" unicode="/"/><glyph glyph-name="space" horiz-adv-x="84" unicode=" "/><glyph d="M212 -42 203 -125H181L185 -42Z" glyph-name="space_uni0326" horiz-adv-x="399" unicode=""/><glyph d="M8 26H49V315H8V341H49V618Q49 678 71.5 706Q94 734 136 734H140Q182 734 204.5 706Q227 678 227 618V510H199V619Q199 667 183 687.5Q167 708 139 708H137Q109 708 93.5 687.5Q78 667 78 619V341H184V315H78V26H241V0H8Z" glyph-name="sterling" horiz-adv-x="262" unicode="£"/><glyph d="M79 543V0H50V543H5V569H50V678H79V569H127V543Z" glyph-name="t" horiz-adv-x="132" unicode="t"/><glyph d="M24 728H53V569H111Q155 569 176 546Q197 523 197 461V108Q197 47 175 23.5Q153 0 111 0H53V-139H24ZM53 26H107Q136 26 152 42.5Q168 59 168 107V462Q168 510 152 526.5Q136 543 107 543H53Z" glyph-name="thorn" horiz-adv-x="220" unicode="þ"/><glyph d="M94 398H125Q155 398 171 420.5Q187 443 187 492V615Q187 665 168.5 686.5Q150 708 121 708H119Q90 708 71 686.5Q52 665 52 615V510H24V615Q24 677 49.5 705.5Q75 734 118 734H122Q165 734 190.5 705.5Q216 677 216 615V498Q216 448 202 421.5Q188 395 161 386Q187 378 201.5 352Q216 326 216 275V114Q216 52 190.5 23.5Q165 -5 122 -5H118Q75 -5 49.5 23.5Q24 52 24 114V248H51V114Q51 64 70 42.5Q89 21 118 21H121Q150 21 168.5 42.5Q187 64 187 114V280Q187 329 171.5 351Q156 373 125 373H94Z" glyph-name="three" horiz-adv-x="241" unicode="3"/><glyph d="M158 85 230 329H264V89H287V66H264V0H241V66H158ZM274 728H299L59 0H34ZM50 472Q50 448 57.5 433.5Q65 419 85 419Q106 419 113.5 433.5Q121 448 121 472V512Q121 567 85 567H66V589H85Q102 589 110 601Q118 613 118 633V670Q118 690 111 703Q104 716 84 716Q62 716 56 702.5Q50 689 50 669V637H28V668Q28 681 30 693.5Q32 706 38 716Q44 726 55 731.5Q66 737 83 737H85Q117 737 129.5 718.5Q142 700 142 670V634Q142 589 109 580Q129 575 137 557.5Q145 540 145 511V472Q145 438 131 417.5Q117 397 85 397H83Q53 397 40.5 418Q28 439 28 473V503H50ZM241 89V298L180 89Z" glyph-name="threequarters" horiz-adv-x="313" unicode="¾"/><glyph d="M130 623Q130 646 139 661.5Q148 677 168 677Q178 677 186.5 672.5Q195 668 202.5 662Q210 656 217.5 651.5Q225 647 234 647Q243 647 247.5 655Q252 663 252 676H275Q274 653 266 637.5Q258 622 238 622Q226 622 217 626.5Q208 631 200.5 637Q193 643 186 647.5Q179 652 172 652Q161 652 157 643Q153 634 152 623Z" glyph-name="tilde" horiz-adv-x="399" unicode="˜"/><glyph d="M127 762Q128 784 137 797.5Q146 811 165 811Q175 811 183 807Q191 803 198 797.5Q205 792 212.5 788Q220 784 229 784Q248 784 248 810H270Q269 789 260 775Q251 761 233 761Q222 761 213.5 765Q205 769 197.5 774.5Q190 780 183 784Q176 788 168 788Q158 788 154 780Q150 772 149 762Z" glyph-name="tilde.uc" horiz-adv-x="399"/><glyph d="M175 475 209 728H240V446H221V700L185 446H164L128 693V446H109V728H140ZM43 446V710H14V728H92V710H63V446Z" glyph-name="trademark" horiz-adv-x="253" unicode="™"/><glyph d="M155 432Q171 461 174.5 486Q178 511 178 545V619Q178 668 160.5 688Q143 708 114 708H112Q83 708 64.5 688Q46 668 46 619V510H18V617Q18 680 42.5 707Q67 734 110 734H115Q158 734 182.5 707Q207 680 207 617V544Q207 524 205.5 507.5Q204 491 200.5 476Q197 461 191 446Q185 431 176 414L77 237Q66 217 59.5 201.5Q53 186 50 171.5Q47 157 46 142Q45 127 45 110V26H207V0H16V111Q16 132 17.5 149Q19 166 23.5 182.5Q28 199 35 216Q42 233 54 254Z" glyph-name="two" horiz-adv-x="223" unicode="2"/><glyph d="M52 110Q52 84 54.5 68Q57 52 63 42.5Q69 33 80 29.5Q91 26 109 26H164V569H193V0H105Q81 0 65 5.5Q49 11 39.5 24Q30 37 26.5 58.5Q23 80 23 112V569H52Z" glyph-name="u" horiz-adv-x="217" unicode="u"/><glyph d="M57 645 162 688V659L57 619ZM52 110Q52 84 54.5 68Q57 52 63 42.5Q69 33 80 29.5Q91 26 109 26H164V569H193V0H105Q81 0 65 5.5Q49 11 39.5 24Q30 37 26.5 58.5Q23 80 23 112V569H52Z" glyph-name="uacute" horiz-adv-x="217" unicode="ú"/><glyph d="M168 643V616L109 660L50 616V643L100 685H118ZM52 110Q52 84 54.5 68Q57 52 63 42.5Q69 33 80 29.5Q91 26 109 26H164V569H193V0H105Q81 0 65 5.5Q49 11 39.5 24Q30 37 26.5 58.5Q23 80 23 112V569H52Z" glyph-name="ucircumflex" horiz-adv-x="217" unicode="û"/><glyph d="M60 678H89V631H60ZM129 678H158V631H129ZM52 110Q52 84 54.5 68Q57 52 63 42.5Q69 33 80 29.5Q91 26 109 26H164V569H193V0H105Q81 0 65 5.5Q49 11 39.5 24Q30 37 26.5 58.5Q23 80 23 112V569H52Z" glyph-name="udieresis" horiz-adv-x="217" unicode="ü"/><glyph d="M52 110Q52 84 54.5 68Q57 52 63 42.5Q69 33 80 29.5Q91 26 109 26H164V569H193V0H105Q81 0 65 5.5Q49 11 39.5 24Q30 37 26.5 58.5Q23 80 23 112V569H52ZM158 619 52 659V689L158 645Z" glyph-name="ugrave" horiz-adv-x="217" unicode="ù"/><glyph d="M11 -65V-42H203V-65Z" glyph-name="underscore" horiz-adv-x="213" unicode="_"/><glyph glyph-name="uni00A0" horiz-adv-x="84" unicode=" "/><glyph d="M200 569 126 0H82L8 569H37L91 145L104 24L117 145L171 569Z" glyph-name="v" horiz-adv-x="208" unicode="v"/><glyph d="M317 569 256 0H216L172 407L163 528L154 407L110 0H70L10 569H40L83 134L90 24L97 124L144 569H182L230 124L238 24L245 134L288 569Z" glyph-name="w" horiz-adv-x="326" unicode="w"/><glyph d="M191 569 120 300 197 0H167L100 273L33 0H5L81 300L8 569H38L101 326L164 569Z" glyph-name="x" horiz-adv-x="203" unicode="x"/><glyph d="M202 569 99 -139H71L94 20L9 569H38L95 184L108 86L120 183L174 569Z" glyph-name="y" horiz-adv-x="211" unicode="y"/><glyph d="M202 569 99 -139H71L94 20L9 569H38L95 184L108 86L120 183L174 569ZM57 645 162 688V659L57 619Z" glyph-name="yacute" horiz-adv-x="212" unicode="ý"/><glyph d="M202 569 99 -139H71L94 20L9 569H38L95 184L108 86L120 183L174 569ZM61 678H90V631H61ZM130 678H159V631H130Z" glyph-name="ydieresis" horiz-adv-x="212" unicode="ÿ"/><glyph d="M190 185H121V0H92V185H21V209H92V282H21V306H88L8 728H37L107 349L175 728H204L122 306H190V282H121V209H190Z" glyph-name="yen" horiz-adv-x="211" unicode="¥"/><glyph d="M14 543V569H156V543L40 27H156V0H12V27L128 543Z" glyph-name="z" horiz-adv-x="168" unicode="z"/><glyph d="M95 613H77L27 656V682L86 638L145 682V656ZM14 543V569H156V543L40 27H156V0H12V27L128 543Z" glyph-name="zcaron" horiz-adv-x="168" unicode="ž"/><glyph d="M24 618Q24 680 50.5 707Q77 734 120 734H124Q167 734 193.5 707Q220 680 220 618V111Q220 49 193.5 22Q167 -5 124 -5H120Q77 -5 50.5 22Q24 49 24 111ZM191 619Q191 668 171.5 688Q152 708 123 708H121Q92 708 72.5 688Q53 668 53 619V110Q53 61 72.5 41Q92 21 121 21H123Q152 21 171.5 41Q191 61 191 110Z" glyph-name="zero" horiz-adv-x="245" unicode="0"/></font>
</defs>
</svg>
